<?xml version="1.0" encoding="UTF-8"?>
<svg id="Layer_2" data-name="Layer 2" xmlns="http://www.w3.org/2000/svg" viewBox="0 0 499.93599 499.57747">
  <g id="Layer_2-2" data-name="Layer 2">
    <g id="_3-Layer-IK" data-name="3-Layer-IK">
      <path d="M419.39002,69.75611c-6.98062-10.94593-3.39215-25.24942,8.01506-31.94776s26.31349-3.25498,33.29411,7.69095,3.39215,25.24942-8.01506,31.94776c-11.40721,6.69833-26.31349,3.25498-33.29411-7.69095Z" fill="#2d429b"/>
      <path d="M338.07099,385.13353c-6.98062-10.94593-3.39215-25.24942,8.01506-31.94776,11.40721-6.69833,26.31349-3.25498,33.29411,7.69095,6.98062,10.94593,3.39215,25.24942-8.01506,31.94776s-26.31349,3.25498-33.29411-7.69095Z" fill="#2d429b"/>
      <path d="M138.04657,454.04748c-6.98062-10.94593-3.39215-25.24942,8.01506-31.94776,11.40721-6.69833,26.31349-3.25498,33.29411,7.69095,6.98062,10.94593,3.39215,25.24942-8.01506,31.94776-11.40721,6.69833-26.31349,3.25498-33.29411-7.69095Z" fill="#2d429b"/>
      <path d="M358.73732,430.36425c-4.74328,0-9.56015-.54618-14.36667-1.68708-32.02489-7.60288-51.63217-38.789-43.70888-69.51886L382.0202,43.62816c7.92386-30.72959,40.42538-49.54343,72.44855-41.94137h0c32.02489,7.60316,51.63274,38.78927,43.70888,69.51913l-81.35844,315.52988c-6.73431,26.11771-31.22227,43.62845-58.08188,43.62845ZM440.10093,21.11798c-16.98209,0-32.46185,11.06917-36.7193,27.5819l-81.35844,315.5296c-5.0089,19.42732,7.38687,39.14318,27.63233,43.95009,20.24374,4.80525,40.79277-7.08815,45.80225-26.51493l81.35844-315.53043c2.42683-9.41078.88886-19.16527-4.33047-27.46632-5.21933-8.30105-13.49448-14.15507-23.30186-16.48349-3.03742-.72106-6.0852-1.06642-9.08295-1.06642Z" fill="#f6871f"/>
      <path d="M159.40578,499.10356c-8.70578,0-17.3742-1.84597-25.48175-5.51528-14.45435-6.54143-25.3889-18.09223-30.78934-32.52507s-4.62053-30.01983,2.19657-43.8894c6.81681-13.87012,18.85468-24.36222,33.89576-29.54427l197.89015-68.17879c15.04108-5.18316,31.28494-4.43396,45.73958,2.10747,14.45464,6.54143,25.3889,18.09223,30.78934,32.52507h.00057c11.14757,29.79419-5.0434,62.73689-36.09319,73.43422l-197.89015,68.17824c-6.60437,2.27573-13.44274,3.40781-20.25754,3.40781ZM357.36033,337.16948c-4.30862,0-8.63104.7161-12.80685,2.15436l-197.89015,68.17879c-9.50898,3.27651-17.11921,9.90951-21.42898,18.67812-4.30948,8.76861-4.80279,18.6224-1.38849,27.74686,3.41401,9.12445,10.32684,16.42722,19.46498,20.56216,9.13785,4.13494,19.40748,4.60774,28.91618,1.33289l197.89015-68.17824c19.62855-6.76265,29.86311-27.59018,22.81833-46.42553h0c-3.41459-9.12445-10.32712-16.42722-19.46527-20.56216-5.12504-2.31932-10.60655-3.48725-16.1099-3.48725Z" fill="#f6871f"/>
      <path d="M158.7331,499.57747c-8.89954,0-17.75424-1.92927-26.00237-5.75692-14.38708-6.67659-25.20348-18.33001-30.45645-32.81305l-69.11187-190.54572c-10.84371-29.89736,5.68216-62.68614,36.83946-73.09162h0c31.15759-10.40631,65.32788,5.45294,76.17217,35.34974l69.11187,190.54627c10.844,29.89736-5.68216,62.68614-36.83946,73.09162-6.44022,2.1505-13.08944,3.21968-19.71335,3.21968ZM77.23524,217.31276c-9.54204,3.18658-17.21954,9.74814-21.61843,18.47565-4.39889,8.72751-4.99252,18.57661-1.67136,27.73251l69.11187,190.54627c3.32087,9.1559,10.15895,16.52321,19.25426,20.74422,9.0956,4.221,19.35976,4.7909,28.90151,1.60377,9.54204-3.18658,17.21954-9.74787,21.61843-18.47565s4.99252-18.57661,1.67136-27.73306l-69.11187-190.54572c-6.85533-18.90101-28.4591-28.9272-48.15549-22.34799h-.00029Z" fill="#f6871f"/>
      <g>
        <g>
          <polygon points="25.66516 287.44758 14.9856 259.97105 151.93842 210.95698 162.61799 238.43295 25.66516 287.44758" fill="#cc4097"/>
          <polygon points="34.81078 295.89345 0 281.09263 15.69105 248.12399 43.49011 260.30593 40.63926 266.29649 47.1916 269.08227 34.81078 295.89345" fill="#cc4097"/>
          <polygon points="161.91253 250.28029 134.11347 238.09835 136.96432 232.10779 130.41227 229.32202 142.79252 202.51083 177.60358 217.31138 161.91253 250.28029" fill="#cc4097"/>
        </g>
        <g>
          <polygon points="100.02453 320.03389 48.94488 188.61864 77.57876 178.37094 128.65899 309.78564 100.02453 320.03389" fill="#cc4097"/>
          <polygon points="122.03622 334.41322 87.67792 319.35586 100.37381 292.68149 106.61683 295.41734 109.52 289.12969 137.46107 301.00985 122.03622 334.41322" fill="#cc4097"/>
          <polygon points="68.08387 209.27431 40.1428 197.3947 55.56708 163.99134 89.92537 179.04787 77.23006 205.72279 70.98704 202.98722 68.08387 209.27431" fill="#cc4097"/>
        </g>
      </g>
    </g>
  </g>
</svg>