<?xml version="1.0" encoding="UTF-8"?>
<svg id="Layer_2" data-name="Layer 2" xmlns="http://www.w3.org/2000/svg" viewBox="0 0 499.93599 499.57747">
  <g id="Layer_2-2" data-name="Layer 2">
    <g id="_2-Layer-IK" data-name="2-Layer-IK">
      <path d="M49.47927,81.38506c-11.86649-7.46794-15.13858-22.6966-7.30841-34.01414s23.79746-14.43827,35.66395-6.97032c11.86649,7.46794,15.13858,22.6966,7.30841,34.01414s-23.79746,14.43827-35.66395,6.97032Z" fill="#2d429b"/>
      <ellipse cx="133.68841" cy="397.61445" rx="25.74228" ry="24.55145" fill="#2d429b"/>
      <path d="M160.67264,452.48556c-4.56565,2.0413-9.45898,3.59174-14.62201,4.56875-34.40085,6.50836-67.93903-14.88965-74.76307-47.69912L1.22231,72.47049C-5.60104,39.66104,16.83621,7.67436,51.23501,1.16595h0c34.40098-6.50809,67.93971,14.88967,74.7632,47.69939l70.06513,336.88443c5.79964,27.88528-9.53693,55.17658-35.39069,66.7358ZM46.54268,25.93929c-16.34614,7.30836-26.04097,24.56019-22.37394,42.19034l70.065,336.88416c4.3143,20.74197,25.51719,34.26977,47.26492,30.15582,21.7453-4.11479,35.93198-24.33677,31.61848-45.07846L103.05177,53.2062c-2.08943-10.04781-8.15683-18.71817-17.08424-24.41372s-19.64551-7.73488-30.18055-5.74184c-3.26275.61733-6.3588,1.59855-9.24429,2.88865Z" fill="#f6871f"/>
      <path d="M428.09769,352.13635c8.71653,2.96646,16.70834,7.75722,23.45972,14.17138,12.03663,11.43503,18.68398,26.65583,18.71731,42.859.03333,16.20317-6.55103,31.44897-18.5406,42.92852-11.98948,11.48019-27.94873,17.81966-44.93781,17.85146l-271.41269-11.67409c-16.98949.03289-32.97446-6.24771-45.01138-17.68284s-18.68398-26.65583-18.71731-42.859l-.00058-.0002c-.06808-33.44848,28.40842-60.71475,63.47948-60.78023l271.41248,11.67464c7.45985-.01431,14.72816,1.18924,21.55138,3.51135ZM121.71267,433.74187c4.31394,1.46814,8.90832,2.22836,13.6248,2.21994l271.41269,11.67409c10.74066-.0205,20.82995-4.02826,28.40986-11.28589,7.57962-7.25774,11.74238-16.89575,11.72117-27.13945-.02092-10.2436-4.22325-19.86654-11.83312-27.09525-7.60958-7.22861-17.71585-11.19846-28.45561-11.1795l-271.41248-11.67464c-22.17072.04158-40.17262,17.28092-40.1321,38.4256h0c.0215,10.2438,4.22354,19.86664,11.8334,27.09535,4.26782,4.05443,9.32124,7.08451,14.83138,8.95976Z" fill="#f6871f"/>
      <g>
        <g>
          <polygon points="321.26404 418.0636 321.64875 387.08007 477.02495 388.83357 476.64046 419.81656 321.26404 418.0636" fill="#cc4097"/>
          <polygon points="326.9593 429.73052 298.35322 402.41908 327.08008 375.6619 349.77949 397.82929 344.55996 402.6913 349.94446 407.83192 326.9593 429.73052" fill="#cc4097"/>
          <polygon points="471.20903 431.235 448.50961 409.06761 453.72914 404.2056 448.34492 399.06509 471.32952 377.16628 499.93599 404.47755 471.20903 431.235" fill="#cc4097"/>
        </g>
        <g>
          <polygon points="381.98203 477.35985 383.8208 329.17078 416.30657 329.53748 414.46859 477.72622 381.98203 477.35985" fill="#cc4097"/>
          <polygon points="398.06514 499.57747 370.01019 472.17859 393.25313 450.53 398.35085 455.50834 403.74092 450.37266 426.70168 472.29453 398.06514 499.57747" fill="#cc4097"/>
          <polygon points="394.54858 356.52407 371.5876 334.60274 400.22357 307.3196 428.27884 334.71766 405.03626 356.367 399.93842 351.38893 394.54858 356.52407" fill="#cc4097"/>
        </g>
      </g>
    </g>
  </g>
</svg>