<?xml version="1.0" encoding="UTF-8"?>
<svg id="Layer_2" data-name="Layer 2" xmlns="http://www.w3.org/2000/svg" viewBox="0 0 499.93599 499.57747">
  <g id="Layer_2-2" data-name="Layer 2">
    <g id="BurstMate">
      <g>
        <rect x="240.23622" y="121.12733" width="19.46374" height="85.50158" rx="9.72775" ry="9.72775" fill="#f6831d"/>
        <rect x="283.22405" y="132.62946" width="19.46025" height="85.51694" rx="9.72806" ry="9.72806" transform="translate(126.84958 -122.9279) rotate(29.98218)" fill="#f6831d"/>
        <rect x="314.69554" y="164.0595" width="19.45326" height="85.54767" rx="9.72662" ry="9.72662" transform="translate(341.21442 -177.54641) rotate(59.98217)" fill="#f6831d"/>
        <rect x="326.21537" y="207.00704" width="19.44977" height="85.56302" rx="9.72487" ry="9.72487" transform="translate(585.72881 -86.1517) rotate(90)" fill="#f6831d"/>
        <rect x="314.69554" y="249.96993" width="19.45326" height="85.54767" rx="9.72662" ry="9.72662" transform="translate(740.19863 158.28713) rotate(120.01782)" fill="#f6831d"/>
        <rect x="283.22405" y="281.43069" width="19.46025" height="85.51694" rx="9.72806" ry="9.72806" transform="translate(708.71272 458.59745) rotate(150.01782)" fill="#f6831d"/>
        <rect x="240.23622" y="292.94819" width="19.46374" height="85.50158" rx="9.72775" ry="9.72775" transform="translate(499.93618 671.39796) rotate(-180)" fill="#f6831d"/>
        <rect x="197.25188" y="281.43069" width="19.46025" height="85.51694" rx="9.72806" ry="9.72806" transform="translate(224.25852 708.43087) rotate(-150.01781)" fill="#f6831d"/>
        <rect x="165.78738" y="249.96993" width="19.45326" height="85.54767" rx="9.72662" ry="9.72662" transform="translate(9.84025 591.16676) rotate(-120.01781)" fill="#f6831d"/>
        <rect x="154.27104" y="207.00704" width="19.44977" height="85.56302" rx="9.72487" ry="9.72487" transform="translate(-85.79266 413.78442) rotate(-89.99999)" fill="#f6831d"/>
        <rect x="165.78738" y="164.0595" width="19.45326" height="85.54767" rx="9.72662" ry="9.72662" transform="translate(-91.38103 255.33318) rotate(-59.98216)" fill="#f6831d"/>
        <rect x="197.25188" y="132.62946" width="19.46025" height="85.51694" rx="9.72806" ry="9.72806" transform="translate(-59.94856 126.90545) rotate(-29.98217)" fill="#f6831d"/>
      </g>
      <g>
        <rect x="240.23622" y="43.9306" width="19.46374" height="62.9505" rx="9.72775" ry="9.72775" fill="#fbf104"/>
        <rect x="285.40268" y="49.87103" width="19.46281" height="62.95354" rx="9.72783" ry="9.72783" transform="translate(31.083 -73.56708) rotate(14.98972)" fill="#1dbcf6"/>
        <rect x="327.49197" y="67.28779" width="19.46025" height="62.96182" rx="9.72806" ry="9.72806" transform="translate(94.48453 -155.30308) rotate(29.98218)" fill="#cb349e"/>
        <rect x="363.63551" y="94.9948" width="19.45676" height="62.97313" rx="9.72837" ry="9.72837" transform="translate(198.66465 -226.89988) rotate(44.97942)" fill="#fbf104"/>
        <rect x="391.36983" y="131.10498" width="19.45326" height="62.98444" rx="9.72662" ry="9.72662" transform="translate(341.22819 -266.04252) rotate(59.98218)" fill="#cb349e"/>
        <rect x="408.80454" y="173.15863" width="19.4507" height="62.99271" rx="9.72534" ry="9.72534" transform="translate(507.80582 -252.59849) rotate(74.98971)" fill="#1dbcf6"/>
        <rect x="414.75122" y="218.29068" width="19.44977" height="62.99574" rx="9.72487" ry="9.72487" transform="translate(674.26466 -174.68755) rotate(90)" fill="#fbf104"/>
        <rect x="408.80454" y="263.42576" width="19.4507" height="62.99271" rx="9.72534" ry="9.72534" transform="translate(811.78516 -32.94465) rotate(105.01029)" fill="#1dbcf6"/>
        <rect x="391.36983" y="305.48768" width="19.45326" height="62.98444" rx="9.72662" ry="9.72662" transform="translate(893.53348 158.26334) rotate(120.01783)" fill="#cb349e"/>
        <rect x="363.63551" y="341.60918" width="19.45676" height="62.97313" rx="9.72837" ry="9.72837" transform="translate(901.19059 373.0957) rotate(135.02058)" fill="#fbf104"/>
        <rect x="327.49197" y="369.32749" width="19.46025" height="62.96182" rx="9.72806" ry="9.72806" transform="translate(829.61366 579.46076) rotate(150.01782)" fill="#cb349e"/>
        <rect x="285.40268" y="386.75254" width="19.46281" height="62.95354" rx="9.72783" ry="9.72783" transform="translate(688.39863 745.89205) rotate(165.01028)" fill="#1dbcf6"/>
        <rect x="240.23622" y="392.696" width="19.46374" height="62.9505" rx="9.72775" ry="9.72775" transform="translate(499.93618 848.3425) rotate(-180)" fill="#fbf104"/>
        <rect x="195.07069" y="386.75254" width="19.46281" height="62.95354" rx="9.72783" ry="9.72783" transform="translate(294.46201 875.19839) rotate(-165.01028)" fill="#1dbcf6"/>
        <rect x="152.98395" y="369.32749" width="19.46025" height="62.96182" rx="9.72806" ry="9.72806" transform="translate(103.35758 829.29416) rotate(-150.01781)" fill="#cb349e"/>
        <rect x="116.84391" y="341.60918" width="19.45676" height="62.97313" rx="9.72837" ry="9.72837" transform="translate(-47.61921 726.47698) rotate(-135.02058)" fill="#fbf104"/>
        <rect x="89.11308" y="305.48768" width="19.45326" height="62.98444" rx="9.72662" ry="9.72662" transform="translate(-143.49454 591.14294) rotate(-120.01782)" fill="#cb349e"/>
        <rect x="71.68094" y="263.42576" width="19.4507" height="62.99271" rx="9.72534" ry="9.72534" transform="translate(-182.36926 449.93339) rotate(-105.01029)" fill="#1dbcf6"/>
        <rect x="65.73519" y="218.29068" width="19.44977" height="62.99574" rx="9.72487" ry="9.72487" transform="translate(-174.32848 325.24862) rotate(-90)" fill="#fbf104"/>
        <rect x="71.68094" y="173.15863" width="19.4507" height="62.99271" rx="9.72534" ry="9.72534" transform="translate(-137.34935 230.27952) rotate(-74.98971)" fill="#1dbcf6"/>
        <rect x="89.11308" y="131.10498" width="19.45326" height="62.98444" rx="9.72662" ry="9.72662" transform="translate(-91.39478 166.83713) rotate(-59.98218)" fill="#cb349e"/>
        <rect x="116.84391" y="94.9948" width="19.45676" height="62.97313" rx="9.72837" ry="9.72837" transform="translate(-52.36368 126.48139) rotate(-44.97942)" fill="#fbf104"/>
        <rect x="152.98395" y="67.28779" width="19.46025" height="62.96182" rx="9.72806" ry="9.72806" transform="translate(-27.58349 94.53036) rotate(-29.98218)" fill="#cb349e"/>
        <rect x="195.07069" y="49.87103" width="19.46281" height="62.95354" rx="9.72783" ry="9.72783" transform="translate(-14.0713 55.73924) rotate(-14.98971)" fill="#1dbcf6"/>
      </g>
      <g>
        <path d="M468.19345,499.57747h-157.65876c-7.48802,0-13.55874-6.06635-13.55874-13.549s6.07071-13.549,13.55874-13.549h157.65876c2.55038,0,4.62507-2.07417,4.62507-4.62273v-160.11556c0-7.48265,6.07071-13.549,13.55874-13.549s13.55874,6.06635,13.55874,13.549v160.11556c0,17.49042-14.23955,31.72072-31.74254,31.72072Z" fill="#ca379e"/>
        <path d="M486.37726,198.63275c-7.48802,0-13.55874-6.06586-13.55874-13.549V31.72023c0-2.54855-2.07469-4.62224-4.62507-4.62224h-157.65876c-7.48802,0-13.55874-6.06586-13.55874-13.549s6.07071-13.549,13.55874-13.549h157.65876c17.50299,0,31.74254,14.22982,31.74254,31.72023v153.36352c0,7.48313-6.07071,13.549-13.55874,13.549Z" fill="#ca379e"/>
        <path d="M13.55874,198.63275c-7.48851,0-13.55874-6.06586-13.55874-13.549V31.72023C0,14.22982,14.24004,0,31.74303,0h154.34795c7.48851,0,13.55874,6.06586,13.55874,13.549s-6.07022,13.549-13.55874,13.549H31.74303c-2.55038,0-4.62556,2.07369-4.62556,4.62224v153.36352c0,7.48313-6.07022,13.549-13.55874,13.549Z" fill="#ca379e"/>
        <path d="M186.09098,499.57747H31.74303c-17.50299,0-31.74303-14.2303-31.74303-31.72072v-160.11556c0-7.48265,6.07022-13.549,13.55874-13.549s13.55874,6.06635,13.55874,13.549v160.11556c0,2.54855,2.07518,4.62273,4.62556,4.62273h154.34795c7.48851,0,13.55874,6.06635,13.55874,13.549s-6.07022,13.549-13.55874,13.549Z" fill="#ca379e"/>
      </g>
    </g>
  </g>
</svg>