<?xml version="1.0" encoding="UTF-8"?>
<svg id="Layer_2" data-name="Layer 2" xmlns="http://www.w3.org/2000/svg" viewBox="0 0 500 500">
  <g id="Layer_2-2" data-name="Layer 2">
    <g id="CamBot">
      <path d="M307.37824,467.2075H50.45901C22.64472,467.2075.016,444.57906.016,416.76477v-148.34616c0-27.81429,22.62872-50.44301,50.44301-50.44301h256.91922c27.81429,0,50.44273,22.62872,50.44273,50.44301v148.34616c0,27.81429-22.62843,50.44273-50.44273,50.44273ZM50.45901,241.4648c-14.86226,0-26.95381,12.09126-26.95381,26.95381v148.34616c0,14.86197,12.09155,26.95352,26.95381,26.95352h256.91922c14.86197,0,26.95352-12.09155,26.95352-26.95352v-148.34616c0-14.86254-12.09155-26.95381-26.95352-26.95381H50.45901Z" fill="#cc4097"/>
      <path d="M482.261,456.58746l-94.42191-55.84077c-10.07467-5.44679-16.318-15.90453-16.318-27.37215v-58.11858c0-10.51681,5.22084-20.20152,13.98457-25.97805l95.86705-69.08585c7.75636-5.5891,18.6113-.03214,18.6113,9.52815v216.75818c0,9.13168-9.94464,14.70879-17.723,10.10908ZM476.49479,252.66031l-77.47768,55.83389c-.16688.12043-.33663.23569-.50924.34695-2.19007,1.41016-3.49758,3.80782-3.49758,6.4148v58.11858c0,2.83694,1.5604,5.4227,4.07219,6.74799.16803.08889.33376.18122.4972.27813l76.91511,45.4874v-173.22774Z" fill="#fff200"/>
      <path d="M253.12367,204.6984c-47.39446,0-85.95266-38.5582-85.95266-85.95295s38.5582-85.95295,85.95266-85.95295,85.95295,38.5582,85.95295,85.95295-38.5582,85.95295-85.95295,85.95295ZM253.12367,56.28171c-34.44243,0-62.46346,28.02103-62.46346,62.46374s28.02103,62.46374,62.46346,62.46374,62.46374-28.02103,62.46374-62.46374-28.02132-62.46374-62.46374-62.46374Z" fill="#fff200"/>
      <path d="M89.06366,204.69238c-37.6871,0-68.3478-30.6607-68.3478-68.3478s30.6607-68.34751,68.3478-68.34751,68.34751,30.6607,68.34751,68.34751-30.6607,68.3478-68.34751,68.3478ZM89.06366,91.48628c-24.73506,0-44.85859,20.12324-44.85859,44.85831s20.12353,44.85859,44.85859,44.85859,44.85831-20.12353,44.85831-44.85859-20.12324-44.85831-44.85831-44.85831Z" fill="#fff200"/>
      <path d="M172.52662,333.1431c0,8.05682-1.75581,15.70256-4.89752,22.59076h-20.30643c4.82705-6.25986,7.70446-14.09352,7.70446-22.59076,0-14.4752-8.34452-27.04194-20.48256-33.12564l-13.0248,26.0554c2.58971,1.29191,4.37487,3.97556,4.37487,7.07024,0,2.87744-1.54442,5.40252-3.84635,6.78254l9.45439,15.80823h-24.8046l7.75732-15.52049c-2.58971-1.29779-4.36899-3.97556-4.36899-7.07027,0-2.87741,1.53854-5.39661,3.84047-6.77662l-14.95086-24.99839c-10.78742,6.48304-18.0221,18.29811-18.0221,31.77502,0,8.49724,2.87741,16.33675,7.71034,22.59076h-20.31231c-3.14167-6.8882-4.89748-14.53395-4.89748-22.59076,0-21.71576,12.7605-40.50713,31.17603-49.27447h46.72003c18.41553,8.76734,31.17607,27.55871,31.17607,49.27447Z" fill="#ff8a12"/>
      <path d="M256.99379,283.86864h-46.72003c-18.41553,8.76146-31.17603,27.55871-31.17603,49.27447,0,8.05682,1.75581,15.70256,4.90336,22.59076h20.30055c-4.82705-6.25986-7.70446-14.09352-7.70446-22.59076,0-7.42256,2.19624-14.34603,5.97212-20.14787l13.12462,8.51484c-2.21975,3.41181-3.50578,7.48134-3.50578,11.85034,0,11.86202,9.48962,21.51609,21.28709,21.77447l-.00588.59899h49.79711c3.14758-6.8882,4.90339-14.53395,4.90339-22.59076,0-21.71576-12.76054-40.513-31.17607-49.27447ZM264.69237,353.29101l-12.45513-8.08029c2.22559-3.41181,3.51162-7.48131,3.51162-11.8503,0-12.0265-9.75388-21.78038-21.78035-21.78038h-.1762l.11158-15.46766c20.30055.14097,36.76651,16.69499,36.76651,37.03073,0,7.4226-2.19627,14.34606-5.97803,20.1479Z" fill="#ff8a12"/>
      <path d="M287.43592,367.47872H67.84109c-13.98485,0-25.36244-11.37758-25.36244-25.36272v-44.62949c0-13.98514,11.37758-25.36272,25.36244-25.36272h219.59484c13.98457,0,25.36215,11.37758,25.36215,25.36272v44.62949c0,13.98514-11.37758,25.36272-25.36215,25.36272ZM67.84109,295.61299c-1.03281,0-1.87323.8407-1.87323,1.87352v44.62949c0,1.03281.84042,1.87352,1.87323,1.87352h219.59484c1.03281,0,1.87294-.8407,1.87294-1.87352v-44.62949c0-1.03281-.84013-1.87352-1.87294-1.87352H67.84109Z" fill="#cc4097"/>
      <rect width="500" height="500" fill="none"/>
    </g>
  </g>
</svg>