<?xml version="1.0" encoding="UTF-8"?>
<svg id="Layer_2" data-name="Layer 2" xmlns="http://www.w3.org/2000/svg" viewBox="0 0 499.93599 499.57747">
  <g id="Layer_2-2" data-name="Layer 2">
    <g id="Controllerizer">
      <path d="M131.05187,448.2906c-15.98638-.04188-28.98026-13.01152-28.98026-28.90971v-34.78615c.04208-15.86705,13.03597-28.7991,28.9657-28.84098h84.45811c15.98422.00967,28.99915,12.95997,29.01587,28.8689v6.87841h198.91233c.11221-.00322.22442-.00537.33663-.00537,3.69975,0,7.17723,1.96311,9.07511,5.12256,2.00902,3.33342,2.00794,7.47872-.00647,10.81322-1.89141,3.14871-5.3635,5.11182-9.05677,5.11182-.11761,0-.23629-.00215-.35498-.00644h-198.90585v6.87304c-.01672,15.91001-13.03057,28.86353-29.00994,28.88071h-84.44948ZM215.48247,427.22045c4.33417-.00752,7.87369-3.5278,7.88071-7.84815v-35.14914c-.20069-4.15067-3.65982-7.46798-7.88071-7.46798h-10.65956v50.46527h10.65956ZM183.68774,427.22045v-50.46527h-20.84924v50.46527h20.84924ZM123.17656,419.37552c.00432,4.3182,3.54168,7.83741,7.88502,7.84493h10.64176v-50.46527h-10.6574c-4.34388.00537-7.88017,3.52351-7.88286,7.84278v30.89967l.01349,3.8779ZM252.79337,324.10235c-15.99231-.00537-29.00562-12.9589-29.01101-28.87642v-6.86337h-113.43853c-5.83015,0-10.57325-4.72092-10.57325-10.52326,0-5.80288,4.7431-10.52434,10.57325-10.52434h113.43853v-6.86069c.00539-15.91967,13.0187-28.87373,29.0094-28.8791h84.45056c15.98368.01503,28.99483,12.96802,29.01101,28.87373v6.86606h77.27387c5.83069,0,10.57379,4.72145,10.57379,10.52434,0,5.80235-4.7431,10.52326-10.57379,10.52326h-77.27387v6.86122c-.01618,15.91108-13.02841,28.86353-29.00562,28.87857h-84.45433ZM337.19483,303.06657c4.33741-.0043,7.87531-3.52565,7.88071-7.84922v-35.56957c-.4154-3.9434-3.77419-7.03251-7.83971-7.03681h-10.65902v50.4556h10.61802ZM305.38716,303.06657v-50.4556h-20.83791v50.4556h20.83791ZM244.91698,295.21734c.00539,4.32357,3.54114,7.84493,7.88179,7.84922h10.61586v-50.4556h-10.65848c-4.34334.00483-7.87963,3.52512-7.88233,7.84707v30.01691l.04316,4.7424ZM340.6421,199.95921c-15.98584-.01611-28.99915-12.96695-29.01533-28.86997v-6.87841H110.41395c-.11329.00376-.22604.00537-.33879.00537-3.69381,0-7.16967-1.96096-9.07026-5.11773-2.01118-3.3345-2.01118-7.48141.00162-10.81913,1.89303-3.15139,5.36943-5.11451,9.06864-5.11451.11275,0,.2255.00161.33825.00537h201.21336v-6.87304c-.00539-15.92397,13.00791-28.89306,29.00994-28.90917h84.45002c15.98584.04188,28.97972,13.01044,28.97972,28.90917v34.78669c-.02158,15.88208-13.01439,28.83239-28.96462,28.87534h-84.45973ZM372.39367,178.91376l20.90588-.03651v-50.41963h-20.90588v50.45614ZM425.08673,178.86758c4.32015-.00268,7.85481-3.50632,7.87531-7.80949v-34.76092c.00647-2.11561-.8103-4.09107-2.29818-5.57951-1.49004-1.48952-3.47424-2.31213-5.58684-2.31589h-10.65147v50.46581h10.66118ZM332.76571,171.05809c.0205,4.30317,3.55517,7.8068,7.87963,7.80949h10.66981v-50.40996h-10.70542c-4.3428.00805-7.88179,3.5278-7.88718,7.84707v31.32816l.04316,3.42524Z" fill="#e27326"/>
      <g>
        <path d="M486.35617,486.76013H54.4385V56.34148h431.91766v430.41865ZM79.45063,461.74878h381.89341V81.35282H79.45063v380.39596Z" fill="#3cc3e1"/>
        <rect x="447.76393" y="42.88305" width="52.17206" height="51.92807" fill="#3cc3e1"/>
        <rect x="447.76393" y="447.6494" width="52.17206" height="51.92807" fill="#3cc3e1"/>
        <rect x="40.85854" y="447.6494" width="52.17206" height="51.92807" fill="#3cc3e1"/>
        <rect x="40.85863" y="42.88305" width="52.17206" height="51.92807" fill="#3cc3e1"/>
        <path d="M66.94457,106.91618c-21.07076,0-38.21286-17.07782-38.21286-38.06903s17.1421-38.06927,38.21286-38.06927,38.21311,17.07782,38.21311,38.06927-17.14234,38.06903-38.21311,38.06903ZM66.94457,45.78469c-12.79551,0-23.20559,10.34576-23.20559,23.06246s10.41008,23.06222,23.20559,23.06222,23.20583-10.34576,23.20583-23.06222-10.41008-23.06246-23.20583-23.06246Z" fill="#e51377"/>
        <path d="M66.94457,28.81068c-4.1441,0-7.50364-3.35943-7.50364-7.5034V7.5034c0-4.14397,3.35954-7.5034,7.50364-7.5034s7.50364,3.35943,7.50364,7.5034v13.80387c0,4.14397-3.35954,7.5034-7.50364,7.5034Z" fill="#e51377"/>
        <path d="M100.71827,42.73472c-1.92623,0-3.85197-.73691-5.31825-2.21023-2.92354-2.93688-2.9123-7.68781.02491-10.61126l12.98994-12.92896c2.93673-2.9232,7.68805-2.9127,10.61159.02491,2.92354,2.93688,2.9123,7.68781-.02491,10.61126l-12.9897,12.92896c-1.46409,1.45696-3.37932,2.18532-5.29358,2.18532Z" fill="#e51377"/>
        <path d="M133.79607,76.35056h-15.38661c-4.1441,0-7.50364-3.35943-7.50364-7.5034s3.35954-7.5034,7.50364-7.5034h15.38661c4.1441,0,7.50364,3.35943,7.50364,7.5034s-3.35954,7.5034-7.50364,7.5034Z" fill="#e51377"/>
        <path d="M113.70821,122.89535c-1.91475,0-3.82925-.72787-5.29358-2.18532l-12.98994-12.92921c-2.93697-2.92345-2.94821-7.67438-.02467-10.6115,2.92329-2.93737,7.67438-2.94836,10.61183-.02467l12.98994,12.92921c2.93697,2.92345,2.94821,7.67438.02467,10.6115-1.46604,1.47284-3.39227,2.20999-5.31825,2.20999Z" fill="#e51377"/>
        <path d="M66.94457,142.17485c-4.1441,0-7.50364-3.35943-7.50364-7.5034v-18.28466c0-4.14397,3.35954-7.5034,7.50364-7.5034s7.50364,3.35943,7.50364,7.5034v18.28466c0,4.14397-3.35954,7.5034-7.50364,7.5034Z" fill="#e51377"/>
        <path d="M20.18117,122.89535c-1.92598,0-3.85197-.73715-5.31825-2.20999-2.92354-2.93712-2.9123-7.68806.02467-10.6115l12.98994-12.92921c2.93673-2.92345,7.68781-2.91245,10.61183.02467,2.92354,2.93712,2.9123,7.68806-.02467,10.6115l-12.98994,12.92921c-1.46409,1.4572-3.37908,2.18532-5.29358,2.18532Z" fill="#e51377"/>
        <path d="M19.18142,76.35056H7.50364c-4.1441,0-7.50364-3.35943-7.50364-7.5034s3.35954-7.5034,7.50364-7.5034h11.67778c4.1441,0,7.50364,3.35943,7.50364,7.5034s-3.35954,7.5034-7.50364,7.5034Z" fill="#e51377"/>
        <path d="M33.17111,42.73472c-1.9145,0-3.82925-.72811-5.29334-2.18532l-12.98994-12.92896c-2.93722-2.92345-2.94845-7.67438-.02491-10.61126,2.92378-2.93761,7.67438-2.94836,10.61183-.02491l12.9897,12.92896c2.93722,2.92345,2.94845,7.67438.02491,10.61126-1.46629,1.47308-3.39227,2.21023-5.31825,2.21023Z" fill="#e51377"/>
      </g>
    </g>
  </g>
</svg>