<?xml version="1.0" encoding="UTF-8"?>
<svg id="Layer_2" data-name="Layer 2" xmlns="http://www.w3.org/2000/svg" viewBox="0 0 499.93599 499.57747">
  <g id="Layer_2-2" data-name="Layer 2">
    <g id="Distributron">
      <path d="M249.38396,499.57747c-1.21767-19.30337-7.79326-40.63516-13.05442-53.0378l30.20242-13.10697c6.59408,15.54363,14.16754,40.52695,15.65072,64.02782l-32.79872,2.11695Z" fill="#f6871f"/>
      <path d="M196.12707,362.08999c-6.17538-10.0555-6.42922-10.40177-12.93139-19.26206l-1.01634-1.38605,26.39381-19.80605,1.01294,1.38015c7.03271,9.58332,7.72567,10.57097,14.45882,21.53246l-27.91784,17.54155Z" fill="#f6871f"/>
      <path d="M120.7032,272.39123c-8.70992-8.36843-9.96503-9.39445-18.13079-16.0709l-2.45916-2.01267,20.67797-25.83669,2.44263,1.99792c8.4376,6.89877,10.44208,8.53813,20.10415,17.82141l-22.6348,24.10094Z" fill="#f6871f"/>
      <path d="M22.85655,202.59935c-8.78189-4.73706-12.63086-6.41331-21.0636-10.0855l-1.79295-.78107,13.0092-30.52654,1.78079.77566c8.73083,3.80254,13.54071,5.89686,23.53151,11.28612l-15.46496,29.33133Z" fill="#f6871f"/>
      <path d="M73.16215,250.37232c-21.22067,0-38.48489-17.46187-38.48489-38.92498s17.26422-38.92547,38.48489-38.92547,38.48441,17.46187,38.48441,38.92547-17.26422,38.92498-38.48441,38.92498ZM73.16215,205.76346c-3.09863,0-5.61955,2.54978-5.61955,5.68389,0,3.13361,2.52092,5.68339,5.61955,5.68339,3.09815,0,5.61907-2.54978,5.61907-5.68339,0-3.13411-2.52092-5.68389-5.61907-5.68389Z" fill="#fff200"/>
      <path d="M166.71584,332.83146c-21.22018,0-38.48441-17.46187-38.48441-38.92547s17.26422-38.92547,38.48441-38.92547,38.48489,17.46187,38.48489,38.92547-17.26422,38.92547-38.48489,38.92547ZM166.71584,288.2221c-3.09815,0-5.61907,2.54978-5.61907,5.68389s2.52092,5.68389,5.61907,5.68389c3.09863,0,5.61955-2.54978,5.61955-5.68389s-2.52092-5.68389-5.61955-5.68389Z" fill="#fff200"/>
      <path d="M232.20387,434.55314c-21.22018,0-38.48441-17.46187-38.48441-38.92547s17.26422-38.92449,38.48441-38.92449,38.48489,17.46187,38.48489,38.92449-17.26422,38.92547-38.48489,38.92547ZM232.20387,389.94477c-3.09815,0-5.61907,2.54978-5.61907,5.6829,0,3.13411,2.52092,5.68389,5.61907,5.68389,3.09863,0,5.61955-2.54978,5.61955-5.68389,0-3.13312-2.52092-5.6829-5.61955-5.6829Z" fill="#fff200"/>
      <polygon points="293.99075 220.09466 275.16748 196.62625 414.93077 81.95302 433.75403 105.42143 293.99075 220.09466" fill="#03d1ed"/>
      <path d="M488.52279,97.14251l-60.34941-8.85783,8.75709-61.04078,60.34941,8.85783-8.75709,61.04078ZM456.38786,66.97945l11.07085,1.6246,1.6067-11.1971-11.07085-1.6246-1.6067,11.1971Z" fill="#f0f"/>
      <path d="M270.1198,276.33788l-60.3499-8.85734,8.75757-61.04029,60.35038,8.85783-8.75806,61.0398ZM237.98535,246.17532l11.07036,1.6246,1.60621-11.19661-11.07036-1.6246-1.60621,11.19661Z" fill="#f0f"/>
      <polygon points="365.90994 367.54172 355.82431 339.09672 403.91341 321.65453 413.99904 350.09953 365.90994 367.54172" fill="#03d1ed"/>
      <path d="M472.05511,362.29756l-54.23773-28.20006,27.88088-54.85865,54.23773,28.20006-27.88088,54.85865ZM451.34407,323.21371l9.95044,5.17334,5.11479-10.06435-9.95044-5.17334-5.11479,10.06435Z" fill="#f0f"/>
      <path d="M327.85006,408.93533l-54.23773-28.20006,27.88185-54.85865,54.23773,28.20006-27.88185,54.85865ZM307.13902,369.85148l9.95044,5.17334,5.11576-10.06435-9.95044-5.17334-5.11576,10.06435Z" fill="#f0f"/>
      <polygon points="154.87082 103.16922 127.42079 91.2368 136.45117 69.98518 163.9012 81.9176 154.87082 103.16922" fill="#03d1ed"/>
      <path d="M149.55763,73.30521l-12.20877-60.43433L199.62689,0l12.20877,60.43433-62.27803,12.87088ZM166.72751,32.50282l2.23985,11.08741,13.48965-2.78784-2.23985-11.08741-13.48965,2.78784Z" fill="#f0f"/>
      <path d="M93.46519,173.68314l-12.20877-60.43433,59.7503-12.34853,12.20877,60.43433-59.7503,12.34853ZM110.63507,132.88075l2.23985,11.08741,10.96192-2.26549-2.23985-11.08741-10.96192,2.26549Z" fill="#f0f"/>
    </g>
  </g>
</svg>