<?xml version="1.0" encoding="UTF-8"?>
<svg id="Layer_2" data-name="Layer 2" xmlns="http://www.w3.org/2000/svg" viewBox="0 0 499.93599 499.57747">
  <g id="Layer_2-2" data-name="Layer 2">
    <g id="Elast-o-matic-elastic">
      <path d="M207.5936,372.4525h-.05591c-11.04601,0-20.00064-8.99116-20.00064-20.08276s8.95463-20.08276,20.00064-20.08276h.05591c.54958,0,1.04691-.0505,1.52056-.15494,10.79136-2.37355,21.45382,4.48528,23.81791,15.31948s-4.46645,21.54141-15.2566,23.91545c-3.27428.72025-6.66623,1.08553-10.08187,1.08553Z" fill="#cc4097"/>
      <path d="M174.79152,325.82921c-8.63553,0-16.6021-5.66004-19.17274-14.39869-.58547-1.99014-1.17533-4.07588-1.75323-6.19938-2.91245-10.69888,3.36437-21.74243,14.01974-24.66709,10.65635-2.92465,21.65377,3.37818,24.56598,14.07755.50685,1.86119,1.02152,3.68119,1.53008,5.41048,3.12925,10.63661-2.92173,21.80715-13.51533,24.94901-1.89069.56091-3.79846.82812-5.6745.82812Z" fill="#cc4097"/>
      <path d="M248.24482,325.53601c-2.0882,0-4.21058-.33046-6.30123-1.02718-10.48398-3.49242-16.16336-14.85762-12.68522-25.38489.56056-1.69595,1.12162-3.46987,1.66778-5.27222,3.21495-10.6116,14.39011-16.59721,24.95564-13.36857,10.56772,3.22815,16.52885,14.44723,13.31391,25.05835-.6426,2.12154-1.30571,4.21758-1.97077,6.23027-2.78476,8.4278-10.59604,13.76424-18.9801,13.76424Z" fill="#cc4097"/>
      <path d="M263.74434,260.48374c-1.25736,0-2.53231-.11963-3.81311-.36822-10.84581-2.10192-17.94076-12.63483-15.84695-23.52517.37867-1.9693.75491-3.94031,1.13016-5.91083,2.07429-10.89451,12.55119-18.03869,23.40066-15.95393,10.84947,2.0828,17.96298,12.60272,15.8887,23.49673-.37941,1.99406-.76028,3.98861-1.1431,5.98144-1.84674,9.60403-10.22445,16.27998-19.61636,16.27998Z" fill="#cc4097"/>
      <path d="M160.75615,260.42883c-9.5904,0-18.05869-6.94611-19.70034-16.75876-.33522-2.00337-.66726-4.0168-.99661-6.03856-1.78204-10.94623,5.61029-21.27052,16.51152-23.06012,10.9005-1.78862,21.18354,5.63332,22.96583,16.57931.31959,1.9639.64235,3.91947.9678,5.86499,1.82989,10.93814-5.51727,21.29503-16.41069,23.13269-1.12113.18877-2.23738.28045-3.33751.28045Z" fill="#cc4097"/>
      <path d="M380.73932,252.06624c-4.14955,0-8.33425-1.29195-11.91982-3.96948-2.53963-1.89649-5.0192-4.20213-7.36889-6.85295-7.34448-8.28488-6.60959-20.97903,1.64165-28.35342,8.25027-7.37389,20.89325-6.63648,28.23724,1.64815.73928.834,1.19828,1.20688,1.36088,1.32872,8.86357,6.61883,10.70542,19.19924,4.11341,28.0992-3.92493,5.29967-9.95638,8.09979-16.06448,8.09979Z" fill="#cc4097"/>
      <path d="M425.0679,221.89086c-3.651,0-7.34496-1.00291-10.6605-3.10533-9.33966-5.92236-12.1293-18.32552-6.23116-27.70352.91556-1.45595,2.12653-3.3745,3.37267-5.30041,6.0168-9.30176,18.40343-11.94449,27.6674-5.90274,9.26348,6.0415,11.8954,18.47948,5.87861,27.78099-1.12259,1.73567-2.2447,3.51375-3.09727,4.86894-3.80432,6.04885-10.29525,9.36207-16.92975,9.36207Z" fill="#cc4097"/>
      <path d="M277.15395,194.90955c-1.61529,0-3.25596-.19784-4.89371-.61165-10.71226-2.70573-17.21198-13.61887-14.51756-24.37511.53273-2.12472,1.07132-4.20287,1.6021-6.17633,2.87949-10.7077,13.85836-17.04534,24.52325-14.15281,10.66392,2.89156,16.97467,13.91599,14.09518,24.62369-.47121,1.75087-.9512,3.60249-1.42729,5.50364-2.28279,9.11177-10.43149,15.18857-19.38197,15.18857Z" fill="#cc4097"/>
      <path d="M150.74948,194.25843c-9.774,0-18.32261-7.2018-19.76822-17.19979l-.86306-5.95496c-1.59551-10.97516,5.97187-21.17074,16.90216-22.7728,10.93102-1.60353,21.08442,5.99639,22.67969,16.97155l.86746,5.98487c1.58721,10.97639-5.98799,21.16633-16.91925,22.76006-.97415.14194-1.94269.21107-2.89878.21107Z" fill="#cc4097"/>
      <path d="M349.97222,193.49405c-7.98854,0-15.53468-4.83928-18.62658-12.75863-.72121-1.84795-1.44341-3.69075-2.16706-5.52055-4.07777-10.30811.939-21.98366,11.20495-26.07793,10.26498-4.09574,21.89328.94285,25.97105,11.25071.74612,1.8857,1.48979,3.78439,2.23347,5.68873,4.03138,10.32649-1.03763,21.97901-11.32165,26.02694-2.39705.94359-4.86637,1.39074-7.29418,1.39074Z" fill="#cc4097"/>
      <path d="M140.27112,128.15888c-9.42511,0-17.81722-6.7191-19.63076-16.35843-.36525-1.94037-.73367-3.85034-1.10624-5.72722-2.15949-10.87735,4.87174-21.45291,15.70461-23.62127,10.8314-2.16934,21.36519,4.89174,23.52468,15.76909.39845,2.00681.79251,4.04867,1.1829,6.12338,2.0506,10.89867-5.0861,21.4029-15.94021,23.46168-1.25419.23804-2.50374.35277-3.73498.35277Z" fill="#cc4097"/>
      <path d="M35.05049,486.55113c-.06421,0-.12818,0-.19263-.00098-9.66437-.10443-17.41487-8.05566-17.31086-17.75971.01001-.92471,1.08695-93.60156,9.44147-191.37216,4.93449-57.748,11.4159-106.07165,19.26405-143.62926,10.72813-51.34024,23.62186-82.10693,40.57675-96.82481,11.59559-10.06614,23.13429-10.94231,30.77223-9.90655,9.57819,1.29955,16.29349,10.14998,14.99902,19.7675-1.18681,8.81857-8.69755,15.22019-17.32087,15.22093-.78128.00025-1.57012-.05222-2.3658-.16033-.73025-.09929-1.8067.46113-3.19346,1.66507-4.7814,4.15041-17.19806,19.99819-29.19601,77.376-7.55762,36.14211-13.83126,83.01178-18.64684,139.30725-8.2532,96.48307-9.32159,188.02095-9.33136,188.93438-.10376,9.63982-7.91871,17.38267-17.49568,17.38267Z" fill="#cc4097"/>
      <polygon points="35.0467 499.57747 0 464.38688 35.0467 429.19629 70.09339 464.38688 35.0467 499.57747" fill="#f5871f"/>
      <polygon points="115.25766 70.38118 80.21097 35.19059 115.25766 0 150.30436 35.19059 115.25766 70.38118" fill="#f5871f"/>
      <polygon points="210.12726 386.63102 175.08056 351.44043 210.12726 316.24984 245.17395 351.44043 210.12726 386.63102" fill="#f5871f"/>
      <polygon points="312.22088 147.80769 277.17418 112.6171 312.22088 77.42651 347.26757 112.6171 312.22088 147.80769" fill="#f5871f"/>
      <polygon points="393.71727 276.75338 358.67057 241.56279 393.71727 206.3722 428.76397 241.56279 393.71727 276.75338" fill="#f5871f"/>
      <polygon points="464.88929 196.61621 429.8426 161.42562 464.88929 126.23503 499.93599 161.42562 464.88929 196.61621" fill="#f5871f"/>
    </g>
  </g>
</svg>