<?xml version="1.0" encoding="UTF-8"?>
<svg id="Layer_2" data-name="Layer 2" xmlns="http://www.w3.org/2000/svg" viewBox="0 0 499.93599 499.57747">
  <g id="Layer_2-2" data-name="Layer 2">
    <g id="Elast-o-matic-bounce">
      <path d="M96.64108,482.72986c-11.50484,0-19.89833-10.8947-16.93953-21.99831.02028-.07615.50736-1.90088,1.42212-5.13883,2.62746-9.29939,12.30415-14.71256,21.6167-12.08677,9.31133,2.62384,14.72998,12.28984,12.10277,21.58923-.83558,2.95677-1.28037,4.62187-1.28477,4.63847-2.08857,7.8276-9.173,12.9962-16.91729,12.9962Z" fill="#f6871f"/>
      <path d="M452.63517,448.79221c-6.624,0-12.96108-3.77004-15.91822-10.17075-.67061-1.45178-1.35149-2.89819-2.02405-4.2992-4.18252-8.71311-.501-19.1626,8.2233-23.33976,8.7243-4.17716,19.18671-.50036,23.36972,8.21275.74686,1.55576,1.50203,3.16033,2.24498,4.76783,5.38632,11.66059-3.23971,24.82913-15.89573,24.82913Z" fill="#f6871f"/>
      <path d="M111.61301,434.25978c-11.95896,0-20.45576-11.76859-16.58736-23.13181.54059-1.58846,1.09414-3.19938,1.66015-4.83129,3.16658-9.13049,13.14657-13.96715,22.28634-10.80584,9.14221,3.16228,13.98654,13.12752,10.8202,22.25801-.54377,1.56747-1.07581,3.11591-1.59539,4.64188-2.47862,7.28184-9.28909,11.86905-16.58394,11.86905Z" fill="#f6871f"/>
      <path d="M302.65679,418.28631c-8.0708,0-15.32972-5.60307-17.10498-13.80166-3.32093-15.32284,2.20004-23.395,12.16876-25.64972,9.31905-2.11095,18.5737,2.07235,22.07543,18.25414,2.36169,10.90601-5.96673,21.19724-17.1392,21.19724Z" fill="#f6871f"/>
      <path d="M345.71864,408.73747c-13.55476,0-22.12265-14.9524-14.90204-26.66851,8.45424-13.71682,18.67667-15.27452,27.20961-9.68894,8.09132,5.29748,10.35146,16.14238,5.04767,24.22382-2.5039,3.81333-6.41272,12.13363-17.35524,12.13363Z" fill="#f6871f"/>
      <path d="M336.13793,463.0022c-12.32606,5.6319-26.34586-4.40523-24.66023-18.05941,1.97401-15.9861,10.62094-21.64994,20.70712-20.11604,9.56459,1.4554,16.13739,10.37817,14.68077,19.93073-.68845,4.50801-.77705,13.69819-10.72766,18.24472Z" fill="#f6871f"/>
      <path d="M427.2849,405.11095c-5.28962,0-10.51618-2.38221-13.96259-6.91328-.89741-1.17939-1.8085-2.33437-2.70835-3.43223-6.12837-7.47661-5.02763-18.49969,2.45907-24.6202,7.4867-6.121,18.52295-5.02118,24.6518,2.45592,1.16722,1.42395,2.34372,2.9143,3.49627,4.43002,8.82038,11.59584.35743,28.07977-13.9362,28.07977Z" fill="#f6871f"/>
      <path d="M129.39154,386.88561c-12.43455,0-20.96989-12.67446-16.17043-24.2121.65693-1.57968,1.32143-3.15935,1.9935-4.73854,3.78416-8.89276,14.07037-13.03819,22.9743-9.25887,8.90417,3.77931,13.05492,14.05209,9.27076,22.94484-.63493,1.4923-1.26277,2.98508-1.88353,4.47689-2.79878,6.72827-9.31744,10.78778-16.1846,10.78778Z" fill="#f6871f"/>
      <path d="M387.27502,376.50348c-1.85116.00072-2.68079-.28526-3.95817-.22455-9.66716.58676-17.954-6.77708-18.52979-16.42258-.57628-9.64501,6.78578-17.93098,16.44366-18.50603,2.66876-.15914,5.38493-.03368,8.06053.27923,9.60949,1.12423,16.48667,9.81537,15.36149,19.41205-1.04453,8.90545-8.61432,15.4585-17.37773,15.46188Z" fill="#f6871f"/>
      <path d="M289.19227,369.55359c-7.23937,0-14.01245-4.51643-16.53653-11.72748-.52544-1.50108-1.06213-2.99631-1.59539-4.44369-3.34181-9.06752,1.30945-19.12404,10.3891-22.46157,9.07965-3.33851,19.14859,1.30826,22.4904,10.37578.59925,1.62605,1.20143,3.30287,1.78993,4.98359,3.99237,11.40802-4.53702,23.27337-16.53751,23.27337Z" fill="#f6871f"/>
      <path d="M151.10013,341.22047c-13.19377,0-21.81406-14.24743-15.30773-25.97727.8649-1.55917,1.74202-3.11054,2.60668-4.61015,4.82796-8.37336,15.53892-11.25251,23.92278-6.43147,8.38411,4.82153,11.2672,15.51851,6.43948,23.89187-.76886,1.33364-1.54993,2.71513-2.32172,4.10638-3.19811,5.76562-9.17642,9.02065-15.3395,9.02065Z" fill="#f6871f"/>
      <path d="M267.75569,323.9031c-5.75445,0-11.38915-2.82741-14.73927-8.01651-.80014-1.23894-1.61787-2.45738-2.4317-3.62164-5.53743-7.92328-3.595-18.82968,4.33844-24.36001,7.93247-5.53131,18.85336-3.59088,24.39128,4.33288,1.05773,1.51329,2.11692,3.09052,3.14777,4.6868,7.56765,11.72237-1.01904,26.97849-14.70652,26.97849Z" fill="#f6871f"/>
      <path d="M180.61851,300.35246c-15.63408,0-23.58836-19.17886-12.10888-30.14077,1.50105-1.43372,3.0263-2.80349,4.53371-4.07269,7.39652-6.22693,18.44841-5.28625,24.68455,2.10152,6.23541,7.38826,5.29353,18.42549-2.10421,24.65339-3.07298,2.58753-6.90912,7.45855-15.00517,7.45855Z" fill="#f6871f"/>
      <path d="M231.18538,290.24224c-4.47447,0-6.53873-1.45398-9.95701-2.53402-9.22408-2.91527-14.33554-12.74676-11.41652-21.95877,2.91926-9.2125,12.76312-14.31618,21.98696-11.40188,2.06584.65315,4.13633,1.41126,6.15428,2.25431,8.92543,3.72903,13.13411,13.97838,9.40053,22.89212-2.80953,6.70777-9.31646,10.74824-16.16823,10.74824Z" fill="#f6871f"/>
      <path d="M96.62959,490.23089c-9.66496,0-17.50554-7.81881-17.51727-17.47407-.00122-1.02171-.22631-103.36676-9.02759-207.62391-5.12856-60.75358-12.10766-110.15605-20.74276-146.83519-13.83575-58.76703-27.66442-66.92462-30.29628-67.96317-8.99777-3.55085-13.40978-13.71428-9.85437-22.70077,3.55541-8.98624,13.73287-13.39283,22.72991-9.84173,22.38605,8.83418,38.76494,38.25125,51.54541,92.57727,9.02735,38.37256,16.27674,89.51945,21.54681,152.02015,8.91102,105.68209,9.13366,209.29195,9.13488,210.32586.01124,9.66258-7.82249,17.50433-17.49723,17.51556h-.02151Z" fill="#f6871f"/>
      <polygon points="34.10714 68.12682 0 34.06341 34.10714 0 68.21427 34.06341 34.10714 68.12682" fill="#cc4097"/>
      <polygon points="96.63042 499.29503 62.52328 465.23162 96.63042 431.16821 130.73756 465.23162 96.63042 499.29503" fill="#cb4096"/>
      <polygon points="312.67715 499.57747 278.57001 465.51406 312.67715 431.45065 346.78428 465.51406 312.67715 499.57747" fill="#cb4096"/>
      <polygon points="465.82885 499.29503 431.72172 465.23162 465.82885 431.16821 499.93599 465.23162 465.82885 499.29503" fill="#cb4096"/>
    </g>
  </g>
</svg>