<?xml version="1.0" encoding="UTF-8"?>
<svg id="Layer_2" data-name="Layer 2" xmlns="http://www.w3.org/2000/svg" viewBox="0 0 499.93599 499.57747">
  <g id="Layer_2-2" data-name="Layer 2">
    <g id="Guiderator">
      <rect x="171.24799" y="0" width="32.28673" height="499.57747" rx="16.03145" ry="16.03145" fill="#d13f90"/>
      <rect x="234.04766" y="84.38029" width="31.84068" height="499.93599" rx="15.92032" ry="15.92032" transform="translate(-84.38029 584.31628) rotate(-90)" fill="#d13f90"/>
      <g>
        <path d="M235.07903,328.2155c3.02296,3.00965,2.89072,9.37132-.07939,12.4093-15.66477,16.02272-37.468,36.83626-38.92415,38.54677-4.33892,5.09685-11.83071,5.48056-16.68344.77058-.12521-.12152-27.21678-26.52892-39.67582-39.28949-2.79872-2.86645-3.56459-8.6433-.69218-11.57617,16.1988-16.53975,26.10402-26.7739,42.52254-42.00335,4.65703-3.35039,10.48717-1.28631,14.25664,2.38373.12622.12289,39.13289,38.61635,39.2758,38.75863ZM196.54374,346.51996c1.9842-.00686,3.36658-1.64688,3.36307-3.28429l-.03854-18.01092c-.00356-1.6654-1.46574-3.09289-3.10824-3.09429l-19.29241-.01647c-.92371.46289-2.54732,1.45772-2.55218,2.63223l-.07868,19.01472c-.00712,1.72102,1.96145,2.82728,3.59795,2.82162l18.10903-.0626Z" fill="#fdee05"/>
        <path d="M196.54374,346.51996l-18.10903.0626c-1.6365.00566-3.60507-1.1006-3.59795-2.82162l.07868-19.01472c.00486-1.17451,1.62847-2.16933,2.55218-2.63223l19.29241.01647c1.64251.0014,3.10468,1.42889,3.10824,3.09429l.03854,18.01092c.0035,1.63741-1.37887,3.27743-3.36307,3.28429Z" fill="#d1428e"/>
      </g>
      <rect x="212.4699" y="18.37085" width="210.00932" height="289.58471" rx="24.37908" ry="24.37908" fill="#fd860b"/>
      <path d="M380.9806,102.15058l-130.77996.09507c-6.82037.00496-12.96178-5.07352-12.98119-11.74883l-.10188-35.04442c-.02023-6.95793,5.86353-12.70497,13.13425-12.70108l130.33324.0699c7.54463.00405,12.70717,6.27114,12.71807,13.10541l.05196,32.60065c.0109,6.83617-4.45342,13.61754-12.37448,13.6233Z" fill="#31c8d5"/>
      <path d="M380.68414,191.29626l-44.88496.04047c-7.33603.00661-12.6608-5.52096-12.65938-12.61072l.00876-43.83181c.00137-6.87633,5.11601-12.74899,12.37251-12.75221l45.20863-.02007c6.73727-.00299,12.44338,5.23657,12.45013,11.87879l.04593,45.19621c.00669,6.58614-5.65178,12.09314-12.54162,12.09935Z" fill="#fdee04"/>
      <path d="M294.7969,191.26076l-45.80176-.03151c-6.48043-.00446-11.81957-5.24351-11.83541-11.53422l-.1129-44.81935c-.01704-6.76327,5.04059-12.69428,12.23289-12.69667l45.58544-.01515c7.56193-.00251,12.43631,6.22455,12.42368,13.24956l-.07787,43.29999c-.01229,6.83563-4.99978,12.55245-12.41406,12.54735Z" fill="#fdee05"/>
      <path d="M323.1098,261.72007l.10351-41.70207c.02482-9.9989,7.10928-13.86577,12.24056-13.85571l45.7002.08954c6.64719.01302,12.02051,5.42369,12.00678,11.92279l-.09709,45.95578c-.01279,6.05414-5.8992,10.8685-11.71027,10.89226l-43.89517.1795c-8.69841.03557-14.37167-4.14869-14.3485-13.48209Z" fill="#fdee05"/>
      <path d="M237.00643,261.72472l.19559-43.71395c.0286-6.39109,5.44965-11.76885,12.05245-11.76874l45.61834.00075c7.0895.00012,12.42416,5.95203,12.39664,12.70889l-.18046,44.30789c-.029,7.12002-6.15386,11.90498-13.05528,11.90703l-43.3841.01291c-7.78974.00232-13.68332-4.48494-13.64318-13.45478Z" fill="#fdee05"/>
      <path d="M375.05068,162.12071l-34.84583-.09274c-5.21541-.01388-4.48909-10.72312-.09196-10.70714l35.96371.13067c3.82041.01388,5.61869,10.6869-1.02592,10.66922Z" fill="#d0438c"/>
      <path d="M266.32832,173.53393l-.17783-11.36544-13.03325-.39451c-2.90508-.08794-4.03091-10.3454,1.18815-10.40656l11.80919-.13838.28693-11.60676c.10217-4.13269,10.45333-3.41851,10.55928-.85796l.51401,12.42227,12.75985.40902c3.47137.11127,4.54337,10.40526-.95863,10.44563l-11.91653.08743-.15053,11.42136c-.05407,4.1029-10.80902,4.5619-10.88065-.01609Z" fill="#d0438c"/>
      <path d="M373.55439,253.74928l-31.30472.07414c-4.29748.01018-6.12918-10.05251,1.46477-10.03156l29.20585.08055c6.14452.01695,5.58537,9.86515.6341,9.87688Z" fill="#d0438c"/>
      <path d="M373.21965,237.00255l-30.49568-.00664c-5.6895-.00124-5.1987-9.90367-.08404-9.91517l29.81235-.06704c6.73778-.01515,6.17735,9.99003.76737,9.98885Z" fill="#d13f90"/>
      <path d="M280.75112,257.0986l-8.70487-8.45061-8.76907,8.56327c-2.45979,2.40207-11.77699-4.71115-7.70949-8.63986l8.16475-7.88613-8.54708-8.18686c-3.3171-3.1773,5.45177-11.12472,8.37727-8.2376l8.4562,8.34529,8.23292-8.15918c3.46388-3.43286,11.27177,5.0901,8.99992,7.30819l-9.0858,8.87079,8.54665,8.32307c3.82427,3.72423-5.50706,10.57008-7.96142,8.14963Z" fill="#d1428e"/>
    </g>
  </g>
</svg>