<?xml version="1.0" encoding="UTF-8"?>
<svg id="Layer_2" data-name="Layer 2" xmlns="http://www.w3.org/2000/svg" viewBox="0 0 499.93599 499.57747">
  <g id="Layer_2-2" data-name="Layer 2">
    <g id="Iteratron">
      <g>
        <path d="M246.5842,267.1877H0V0h246.5842v267.1877ZM32.17652,230.99942h182.23115V36.18739H32.17652v194.81203Z" fill="#fff200"/>
        <polygon points="309.97688 325.33537 63.3919 325.33537 63.3919 277.47311 95.56842 277.47311 95.56842 289.14709 277.80036 289.14709 277.80036 94.33417 260.78572 94.33417 260.78572 58.14589 309.97688 58.14589 309.97688 325.33537" fill="#f6c41b"/>
        <polygon points="373.36878 383.28391 126.78379 383.28391 126.78379 335.62078 158.96031 335.62078 158.96031 347.09563 341.19225 347.09563 341.19225 152.28271 324.17762 152.28271 324.17762 116.09443 373.36878 116.09443 373.36878 383.28391" fill="#f6871f"/>
        <polygon points="436.5441 441.43158 189.9599 441.43158 189.9599 392.37809 222.13642 392.37809 222.13642 405.2433 404.36757 405.2433 404.36757 210.43038 387.35293 210.43038 387.35293 174.2421 436.5441 174.2421 436.5441 441.43158" fill="#e4688f"/>
        <polygon points="499.93599 499.57747 253.351 499.57747 253.351 453.70117 285.52753 453.70117 285.52753 463.38919 467.75947 463.38919 467.75947 268.57627 452.25928 268.57627 452.25928 232.38977 499.93599 232.38977 499.93599 499.57747" fill="#bd10e0"/>
      </g>
    </g>
  </g>
</svg>