<?xml version="1.0" encoding="UTF-8"?>
<svg id="Layer_2" data-name="Layer 2" xmlns="http://www.w3.org/2000/svg" viewBox="0 0 499.93599 499.57747">
  <g id="Layer_2-2" data-name="Layer 2">
    <g id="KeyBot">
      <path d="M108.11786,400.26809L6.60457,270.21618c-8.80609-11.28177-8.80609-29.57313,0-40.8549L108.11786,99.30938c8.80609-11.28177,23.0836-11.28177,31.88969,0l101.51329,130.05191c8.80609,11.28177,8.80609,29.57313,0,40.8549l-101.51329,130.05191c-8.80609,11.28177-23.0836,11.28177-31.88969,0Z" fill="#cf3c99"/>
      <path d="M161.63888,400.26809l-101.51329-130.05191c-8.80609-11.28177-8.80609-29.57313,0-40.8549l101.51329-130.05191c8.80609-11.28177,23.0836-11.28177,31.88969,0l101.51329,130.05191c8.80609,11.28177,8.80609,29.57313,0,40.8549l-101.51329,130.05191c-8.80609,11.28177-23.0836,11.28177-31.88969,0Z" fill="#ffec01"/>
      <path d="M224.08007,400.26809l-101.51329-130.05191c-8.80609-11.28177-8.80609-29.57313,0-40.8549l101.51329-130.05191c8.80609-11.28177,23.0836-11.28177,31.88969,0l101.51329,130.05191c8.80609,11.28177,8.80609,29.57313,0,40.8549l-101.51329,130.05191c-8.80609,11.28177-23.0836,11.28177-31.88969,0Z" fill="#f8881d"/>
      <rect x="206.95695" y="123.26844" width="253.04058" height="253.04058" rx="30.2444" ry="30.2444" transform="translate(274.1526 -162.62134) rotate(44.97945)" fill="#194edc"/>
      <g>
        <path d="M322.37687,190.11447v14.91838c0,1.99166-1.62022,3.61072-3.61331,3.61072h-24.57307v24.55545c0,1.99166-1.62022,3.61072-3.61331,3.61072h-14.929c-2.00596,0-3.61331-1.61905-3.61331-3.61072v-24.55545h-24.58602c-1.99309,0-3.61331-1.61905-3.61331-3.61072v-14.91838c0-2.00453,1.62022-3.61072,3.61331-3.61072h24.58602v-24.56831c0-1.99166,1.60735-3.61072,3.61331-3.61072h14.929c1.99309,0,3.61331,1.61905,3.61331,3.61072v24.56831h24.57307c1.99309,0,3.61331,1.60619,3.61331,3.61072Z" fill="#feed03"/>
        <path d="M316.14843,321.7418l-10.55645,10.54888c-1.40933,1.40832-3.70066,1.40832-5.10999,0l-17.37579-17.36333-17.37579,17.36333c-1.40933,1.40832-3.70066,1.40832-5.10999,0l-10.5564-10.54883c-1.41843-1.41741-1.40933-3.69801,0-5.10633l17.37579-17.36333-17.38494-17.37248c-1.40933-1.40832-1.40933-3.69801,0-5.10633l10.55645-10.54888c1.41843-1.41741,3.70066-1.40832,5.10999,0l17.38494,17.37248,17.38489-17.37242c1.40933-1.40832,3.69156-1.41741,5.10999,0l10.5564,10.54883c1.40933,1.40832,1.40933,3.69801,0,5.10633l-17.38489,17.37242,17.37579,17.36333c1.40933,1.40832,1.41843,3.68891,0,5.10633Z" fill="#feed03"/>
        <rect x="376.02902" y="165.80431" width="22.13787" height="63.52892" rx="3.61179" ry="3.61179" transform="translate(584.66672 -189.52919) rotate(90)" fill="#feed03"/>
        <g>
          <rect x="376.02902" y="263.24489" width="22.13787" height="72.042" rx="3.61179" ry="3.61179" transform="translate(686.36385 -87.83206) rotate(90)" fill="#feed03"/>
          <ellipse cx="387.09796" cy="269.14696" rx="11.87643" ry="11.86792" fill="#feed03"/>
          <ellipse cx="387.09796" cy="329.38483" rx="11.87643" ry="11.86792" fill="#feed03"/>
        </g>
      </g>
      <g>
        <path d="M228.13236,251.57801c-.76339,8.5185-1.74656,7.65539-49.96608,54.61334-17.03401,16.57342-42.37616-9.24547-25.21413-25.92157l12.69944-12.37375H59.3697c-5.55769,0-10.0593-4.51151-10.0593-10.06521v-16.04097c0-5.5537,4.50162-10.05201,10.0593-10.05201h106.2951l-12.71265-12.38695c-17.1755-16.65754,8.06538-42.60662,25.21413-25.92157,47.05198,45.84037,51.16669,46.76209,49.96608,58.14868Z" fill="none" stroke="#ca379e" stroke-miterlimit="10" stroke-width="9.99513"/>
        <path d="M228.13236,251.57801c-.76339,8.5185-1.74656,7.65539-49.96608,54.61334-17.03401,16.57342-42.37616-9.24547-25.21413-25.92157l12.69944-12.37375H59.3697c-5.55769,0-10.0593-4.51151-10.0593-10.06521v-16.04097c0-5.5537,4.50162-10.05201,10.0593-10.05201h106.2951l-12.71265-12.38695c-17.1755-16.65754,8.06538-42.60662,25.21413-25.92157,47.05198,45.84037,51.16669,46.76209,49.96608,58.14868Z" fill="#03d1ed"/>
      </g>
      <rect id="sizer" width="499.93599" height="499.57747" fill="none"/>
    </g>
  </g>
</svg>