<?xml version="1.0" encoding="UTF-8"?>
<svg id="Layer_2" data-name="Layer 2" xmlns="http://www.w3.org/2000/svg" viewBox="0 0 499.93599 499.57747">
  <g id="Layer_2-2" data-name="Layer 2">
    <g id="KeyCloneMatic">
      <path d="M241.60774,444.55807c-7.5709,0-14.68881-3.40237-20.04237-9.58062l-140.43459-162.05999c-11.05149-12.75332-11.05123-33.50441,0-46.25744L221.56537,64.59944c5.35356-6.17767,12.47147-9.58004,20.04237-9.58004s14.68931,3.40237,20.04262,9.58033l140.43434,162.06028c5.35382,6.17767,8.30216,14.39168,8.30216,23.12872s-2.94835,16.95105-8.30216,23.12872l-140.43484,162.05999c-5.3528,6.17826-12.47097,9.58062-20.04212,9.58062Z" fill="#f16a21"/>
      <path d="M271.44088,444.55807c-7.5709,0-14.68906-3.40237-20.04237-9.58062l-140.43484-162.05999c-5.35331-6.17767-8.30165-14.39197-8.30165-23.12872s2.94835-16.95105,8.30191-23.12901L251.39851,64.59944c5.35331-6.17767,12.47147-9.58004,20.04237-9.58004,7.5714,0,14.68906,3.40237,20.04237,9.58091l140.43434,162.0597c5.35382,6.17767,8.30216,14.39168,8.30216,23.12872s-2.94835,16.95105-8.30216,23.12872l-140.43484,162.05999c-5.3528,6.17767-12.47046,9.58062-20.04186,9.58062Z" fill="#f7951d"/>
      <path d="M301.27376,444.55807c-7.5709,0-14.68856-3.40295-20.04186-9.58062l-140.43535-162.05999c-11.05123-12.75332-11.05098-33.50441,0-46.25744l140.43535-162.06058c5.3528-6.17767,12.47046-9.58004,20.04186-9.58004,7.5709,0,14.68906,3.40237,20.04237,9.58004l140.43484,162.06058c11.05098,12.75303,11.05098,33.50354.00051,46.25685l-140.43535,162.06058c-5.35331,6.17826-12.47147,9.58062-20.04237,9.58062ZM303.22143,409.57542l.01165.01403c-.00354-.00468-.0076-.00935-.01165-.01403Z" fill="#ffc20d"/>
      <path d="M331.10664,444.55807c-7.5709,0-14.68856-3.40237-20.04186-9.58062l-140.4351-162.05999c-5.35356-6.17767-8.30191-14.39197-8.30191-23.12872s2.9486-16.95105,8.30216-23.12901l140.43484-162.06028c11.05149-12.75332,29.03376-12.75215,40.08423,0l140.43484,162.06058c5.35382,6.17767,8.30216,14.39168,8.30216,23.12872s-2.94835,16.95105-8.30216,23.12872l-140.43484,162.05999c-5.35331,6.17826-12.47097,9.58062-20.04237,9.58062Z" fill="#fff200"/>
      <path d="M355.02052,220.25056l-36.39314,156.78098-37.26436-43.00271-88.95005,102.64158c-5.74575,6.63054-13.38425,10.28091-21.51021,10.28091-8.1208,0-15.75931-3.65037-21.50505-10.28091L8.95898,274.61133C3.21842,267.98082.04997,259.16602.04997,249.78873s3.16845-18.19209,8.91419-24.8226L149.39771,62.90706c5.74575-6.63054,13.38425-10.28091,21.50505-10.28091,8.12596,0,15.76446,3.65037,21.51021,10.28091l15.8993,18.34765-24.93794,28.77221-12.47157-14.39208L37.31949,249.78873l133.58328,154.15389,85.52232-98.692-37.26433-43.00271,135.85977-41.99736Z" fill="#cc4097"/>
      <rect id="sizer" width="499.93599" height="499.57747" fill="none"/>
    </g>
  </g>
</svg>