<?xml version="1.0" encoding="UTF-8"?>
<svg id="Layer_2" data-name="Layer 2" xmlns="http://www.w3.org/2000/svg" viewBox="0 0 499.93599 499.57747">
  <g id="Layer_2-2" data-name="Layer 2">
    <g id="Limb-a-Tron">
      <path d="M210.52888,473.16342c-17.69188,0-34.9177-9.14122-44.44029-25.4679L9.87347,223.35861l-.16897-.29415c-20.08718-34.97991-7.98053-79.78526,26.98766-99.87929,16.93912-9.73383,36.6541-12.286,55.51281-7.1875,18.85845,5.09901,34.60335,17.23908,44.33398,34.184l.26386.50099,118.31631,245.7857c13.89939,24.52428,5.37262,55.81781-19.09618,69.8786h0c-8.04218,4.62111-16.82393,6.81645-25.49405,6.81645ZM23.0584,215.01203l156.20117,224.31636.16897.2944c4.75863,8.28694,12.45855,14.22424,21.68126,16.71803,9.2227,2.49329,18.86429,1.24411,27.14851-3.51507h0c17.10099-9.82697,23.02188-31.73919,13.19838-48.84604l-.26386-.50099-118.30768-245.76718c-7.66669-13.20982-19.99635-22.67234-34.74746-26.66074-14.83939-4.01327-30.35189-2.00448-43.68067,5.65533-27.41948,15.75615-36.97378,50.82412-21.39862,78.30589Z" fill="#f6871f"/>
      <ellipse cx="71.48501" cy="179.84474" rx="24.71969" ry="24.7278" fill="#2d429b"/>
      <ellipse cx="210.32425" cy="421.61853" rx="23.85123" ry="23.85905" fill="#2d429b"/>
      <path d="M450.835,479.96464c-1.06711,0-2.14083-.05127-3.22367-.15634l-242.59486-7.10831-.2976-.03147c-28.15829-2.99987-48.62705-28.35609-45.62842-56.52336s28.34578-48.64249,56.50407-45.64364l.56273.08121,238.47025,43.16913c18.04962,2.08823,31.12799,18.40171,29.20079,36.51258v.00051c-1.81252,17.02157-16.24978,29.69969-32.99329,29.69969ZM206.08663,457.13165l242.56035,7.1073.29786.03147c9.66188,1.03244,18.35357-5.99466,19.38262-15.65717,1.02855-9.662-5.9932-18.36009-15.65254-19.38898l-.56223-.08071-238.43803-43.16406c-19.50009-1.92732-37.00499,12.2893-39.08391,31.81685-2.07816,19.52298,12.0308,37.10697,31.49588,39.3353Z" fill="#f6871f"/>
      <rect x="439.43278" y="401.88715" width="15.59292" height="89.93256" transform="translate(-124.89402 715.86451) rotate(-70.15872)" fill="#cc4097"/>
      <polygon points="480.10125 474.97705 473.6326 460.78986 479.12344 458.2849 476.63706 452.98971 490.74551 446.35954 499.93599 465.92821 480.10125 474.97705" fill="#cc4097"/>
      <polygon points="403.71348 447.34783 394.52249 427.77916 414.35723 418.73032 420.82588 432.91751 415.33504 435.42247 417.82193 440.71665 403.71348 447.34783" fill="#cc4097"/>
      <rect x="402.25161" y="439.05894" width="89.95527" height="15.58898" transform="translate(-124.89381 715.86496) rotate(-70.15877)" fill="#cc4097"/>
      <polygon points="428.16122 499.57747 419.11485 479.73622 433.29738 473.26545 435.80203 478.7581 441.09498 476.2709 447.72297 490.38397 428.16122 499.57747" fill="#cc4097"/>
      <polygon points="461.1611 420.44142 458.65696 414.94928 453.3635 417.43647 446.73552 403.3234 466.29675 394.1299 475.34363 413.97064 461.1611 420.44142" fill="#cc4097"/>
      <path d="M464.51751,242.69713c-.0283,10.75473-8.79166,19.49629-19.53379,19.49629h-23.50441c-10.72109-.02831-19.45905-8.76986-19.48735-19.48649v-56.81865c.00653-10.75328,8.75683-19.50899,19.50622-19.52024h4.64762V32.55106c-.00218-.07549-.00363-.15098-.00363-.22647,0-2.48898,1.32644-4.82843,3.46123-6.10522,2.25234-1.35155,5.05324-1.35083,7.30631.00436,2.12753,1.27244,3.45397,3.60826,3.45397,6.09288,0,.07912-.00145.15896-.00435.23881v133.81263h4.64399c10.75012.01125,19.50259,8.76623,19.5142,19.51625v56.81284ZM450.28077,185.897c-.00508-2.91579-2.38367-5.29698-5.30286-5.30169h-23.74967c-2.80454.13501-5.04599,2.46212-5.04599,5.30169v7.17115h34.09852v-7.17115ZM450.28077,207.28669h-34.09852v14.02619h34.09852v-14.02619ZM444.98009,247.9952c2.91773-.0029,5.2956-2.38264,5.30068-5.3046v-7.15918h-34.09852v7.1697c.00363,2.92232,2.38077,5.30133,5.29923,5.30315h20.87838l2.62023-.00907ZM380.60565,160.79633c-.00363,10.75872-8.7561,19.51334-19.5113,19.51697h-4.63746v76.31504c0,3.92219-3.18984,7.11308-7.11039,7.11308-3.92091,0-7.11111-3.19089-7.11111-7.11308v-76.31504h-4.63565c-10.75665-.00363-19.50949-8.75825-19.51311-19.51588v-56.81357c.01016-10.75292,8.76227-19.50608,19.50949-19.51697h4.63928v-51.9855c0-3.92256,3.19021-7.11345,7.11111-7.11345,3.92055,0,7.11039,3.19089,7.11039,7.11345v51.9855h4.63601c10.75084.01089,19.50259,8.76478,19.51275,19.51334v56.81611ZM366.39213,104.01579c-.0029-2.91796-2.38222-5.29807-5.30358-5.30169h-24.03375c-2.66449.27946-4.75175,2.53906-4.75465,5.27411v7.17079h34.09199v-7.14321ZM366.39213,125.4142h-34.09199v14.01857h34.09199v-14.01857ZM361.08854,166.09512c2.92136-.00363,5.30068-2.38228,5.30358-5.30242v-7.14175h-34.09199v7.17043c.00327,2.92196,2.38186,5.30097,5.30213,5.30278h20.28191l3.20435-.02903ZM296.72426,101.69666c-.01088,10.75437-8.76155,19.50899-19.50695,19.51988h-4.64762v135.36463c.00254.07622.00363.15207.00363.22792,0,2.48499-1.32499,4.82335-3.45796,6.10196-2.25306,1.35301-5.05506,1.35301-7.3103-.00109-2.12934-1.27352-3.45578-3.61225-3.45578-6.10087,0-.07585.00109-.15171.00363-.22756V121.21654h-4.64399c-10.75955.00363-19.52255-8.75099-19.53343-19.51625v-56.8132c.0283-10.75437,8.79093-19.49592,19.53343-19.49592h23.50477c10.73125.01452,19.48155,8.75535,19.51057,19.48576v56.81974ZM282.50421,80.336l-.02467-14.0643h-34.06768v14.0643h34.09235ZM282.473,44.88709c-.00181-2.90635-2.36916-5.28427-5.27674-5.29807h-23.48736c-1.42948-.00436-2.76426.54512-3.76998,1.54609-1.00644,1.00242-1.56227,2.33728-1.56481,3.75851v7.16571h34.09888v-7.17224ZM277.19627,106.99545c2.90757-.01379,5.27492-2.39171,5.27674-5.30097v-7.17805h-34.06115v7.202c.00544,2.92159,2.38367,5.30242,5.30213,5.30605h21.1679l2.31438-.02903Z" fill="#fff200"/>
      <path d="M470.50647,289.13224h-242.31978c-16.22767,0-29.42977-13.20668-29.42977-29.43967V29.43942c0-16.23299,13.2021-29.43942,29.42977-29.43942h242.31978c16.22767,0,29.42952,13.20643,29.42952,29.43942v230.25314c0,16.23299-13.20185,29.43967-29.42952,29.43967ZM232.21488,19.79093c-7.42838,0-13.47168,6.04528-13.47168,13.4761v222.59794c0,7.43082,6.0433,13.47634,13.47168,13.47634h234.2634c7.42838,0,13.47144-6.04553,13.47144-13.47634V33.26703c0-7.43082-6.04306-13.4761-13.47144-13.4761h-234.2634Z" fill="#cc4097"/>
    </g>
  </g>
</svg>