<?xml version="1.0" encoding="UTF-8"?>
<svg id="Layer_2" data-name="Layer 2" xmlns="http://www.w3.org/2000/svg" viewBox="0 0 499.93599 499.57747">
  <g id="Layer_2-2" data-name="Layer 2">
    <g id="Linearizer">
      <path d="M255.56614,307.90463v179.72987c0,6.59251-5.2224,11.94298-11.67022,11.94298s-11.67022-5.35047-11.67022-11.94298v-213.54641l23.34044,33.81655Z" fill="#fff200"/>
      <path d="M275.11977,60.59714l-19.55249-20.0083v184.51604l-23.34201-33.81707V40.96273l-19.18755,19.63441c-10.91506,11.17661-27.41804-5.71432-16.50289-16.89085L235.82979,3.49766c4.55444-4.66354,11.94348-4.66354,16.50289,0l39.29499,40.20863c11.05968,11.33698-5.74803,27.90839-16.5079,16.89085Z" fill="#fff200"/>
      <path d="M162.88127,237.65602l50.59625,23.88596H11.67022c-6.44779,0-11.67022-5.35047-11.67022-11.94298,0-6.59849,5.22243-11.94298,11.67022-11.94298h151.21105Z" fill="#fff200"/>
      <path d="M484.74793,258.22975l-39.29496,40.21366c-10.75716,11.01477-27.56837-5.57266-16.50289-16.89085l19.55249-20.0083h-123.59917l-50.58852-23.88873h173.82275l-19.18755-19.63441c-10.92009-11.16949,5.5828-28.06034,16.50289-16.89085l39.28995,40.21366c4.55717,4.65833,4.55693,12.22226.005,16.88582Z" fill="#fff200"/>
      <path d="M359.64604,429.23953c-3.6629,0-7.26881-1.75937-9.54246-5.05419L118.62351,88.78972c-3.71846-5.38746-2.46511-12.83987,2.7996-16.64494,5.26385-3.80478,12.54663-2.52272,16.2648,2.86503l231.48007,335.39562c3.71874,5.38775,2.46511,12.83987-2.7996,16.64494-2.04514,1.47829-4.39571,2.18916-6.72234,2.18916Z" fill="#cc4097"/>
      <path d="M426.05575,347.55143c-1.63657,0-3.2982-.35397-4.88121-1.10158L56.83887,174.43423c-5.85249-2.76327-8.40792-9.8585-5.70804-15.84777,2.70016-5.98928,9.63335-8.60501,15.48584-5.84145l364.3351,172.01621c5.85278,2.76298,8.40848,9.85821,5.70804,15.84719-1.96935,4.36898-6.1924,6.94302-10.60406,6.94302Z" fill="#cc4097"/>
      <polygon points="416.14176 359.9965 443.15251 359.9965 457.19951 384.97995 470.86757 359.9965 497.60822 359.9965 472.90872 399.32727 499.93599 441.20642 472.38333 441.20642 456.7123 415.11498 441.04184 441.20642 413.65158 441.20642 441.02474 398.88407 416.14176 359.9965" fill="#f6871f"/>
      <polygon points="310.50746 .68985 337.74557 .68985 353.73343 28.08668 369.75434 .68985 396.84601 .68985 365.99115 47.88706 365.99115 81.90006 341.41588 81.90006 341.41588 47.88706 310.50746 .68985" fill="#f6871f"/>
    </g>
  </g>
</svg>