<?xml version="1.0" encoding="UTF-8"?>
<svg id="Layer_2" data-name="Layer 2" xmlns="http://www.w3.org/2000/svg" viewBox="0 0 500 500">
  <g id="Layer_2-2" data-name="Layer 2">
    <g id="Opac-a-bot">
      <path d="M356.04707,500c-3.31086,0-6.62962-.12563-9.96302-.37804-29.90934-2.26708-56.93549-17.30816-76.09917-42.3536-18.72701-24.47386-27.7068-55.70314-25.28563-87.93353,2.42173-32.23096,15.96551-61.75284,38.13692-83.12772,22.68923-21.87289,51.65028-32.67124,81.56582-30.40416,21.59612,1.63665,41.08379,12.46273,54.87324,30.48282,13.35164,17.44964,19.75644,39.67736,18.03565,62.58984-1.72136,22.91248-11.37504,43.92347-27.18278,59.16318-16.325,15.73772-37.20102,23.50161-58.80672,21.86723-13.28403-1.00678-25.23379-7.61674-33.64787-18.61204-7.97628-10.42485-11.80721-23.65214-10.78567-37.24672,1.02154-13.59345,6.78457-26.0941,16.22865-35.19808,9.96189-9.60313,22.76642-14.3365,36.04763-13.33029,9.53254.72268,16.67716,9.07003,15.95762,18.6443-.71953,9.57427-9.03726,16.74337-18.56304,16.02748-4.49694-.33559-7.86753,2.19861-9.47,3.74357-3.28382,3.16577-5.30155,7.68692-5.68019,12.72985-.37921,5.04293.93984,9.81648,3.7143,13.44178,1.35342,1.76907,4.29635,4.78713,8.80343,5.12839,11.64888.88171,23.09829-3.47759,32.22909-12.28051,9.64805-9.30093,15.55588-22.33241,16.6349-36.69382,2.1693-28.88296-16.22019-53.90803-40.99308-55.78519-19.96436-1.5178-39.49372,5.87993-54.98819,20.81744-16.01228,15.43665-25.81021,36.97847-27.58904,60.65891-3.614,48.1028,27.54959,89.82201,69.46843,92.99909,59.08225,4.47192,111.23231-46.65461,116.29045-113.97782,2.4792-32.99778-6.56426-64.77317-25.46368-89.47396-5.825-7.61278-4.40284-18.52772,3.17733-24.37822,7.57904-5.8505,18.44641-4.42325,24.27197,3.19123,24.10181,31.49978,35.65659,71.72891,32.53505,113.27721-3.12154,41.54943-20.55598,79.58165-49.09162,107.09168-26.51847,25.56553-59.70656,39.318-94.36077,39.31969Z" fill="#f6871f"/>
      <g>
        <path d="M294.20941,111.56397v66.92639h-1.22013v-71.27001c.43005,1.44122.84008,2.88243,1.22013,4.34363Z" fill="#2d429b"/>
        <path d="M288.61869,94.59967v83.89069h-1.45021v-87.41362c.50007,1.16095.98011,2.33192,1.45021,3.52293Z" fill="#2d429b"/>
        <path d="M282.94789,82.03909v96.45126h-1.67021v-99.64396c.57008,1.06089,1.13016,2.12178,1.67021,3.19269Z" fill="#2d429b"/>
        <path d="M277.19712,71.75046v106.7399h-1.90022v-109.76247c.65005.99083,1.28014,2.00169,1.90022,3.02257Z" fill="#2d429b"/>
        <path d="M271.35637,62.92301v115.56734h-2.12028V60.00057c.72007.96077,1.43018,1.93162,2.12028,2.92245Z" fill="#2d429b"/>
        <path d="M265.43553,55.15646v123.3339h-2.35029V52.33407c.8001.93078,1.58023,1.87157,2.35029,2.82239Z" fill="#2d429b"/>
        <path d="M259.42478,48.22062v130.26974h-2.57035V45.4983c.87011.89077,1.73021,1.80157,2.57035,2.72233Z" fill="#2d429b"/>
        <path d="M253.33394,41.97537v136.51499h-2.80036V39.34315c.95014.87073,1.88026,1.74146,2.80036,2.63222Z" fill="#2d429b"/>
        <path d="M247.15312,36.32058v142.16978h-3.03044V33.77846c1.02016.83066,2.0303,1.68141,3.03044,2.54212Z" fill="#2d429b"/>
        <path d="M240.88226,31.19627v147.29409h-3.25044V28.74419c1.09017.80066,2.18028,1.62136,3.25044,2.45208Z" fill="#2d429b"/>
        <path d="M234.51141,26.52235v151.96801h-3.47044V24.19037c1.17014.76065,2.32032,1.53132,3.47044,2.33198Z" fill="#2d429b"/>
        <path d="M228.06053,22.29876v156.1916h-3.70045V20.0669c1.25017.7306,2.48031,1.46125,3.70045,2.23186Z" fill="#2d429b"/>
        <path d="M221.50966,18.45555v160.0348h-3.92051V16.36376c1.32018.68057,2.63036,1.38117,3.92051,2.09179Z" fill="#2d429b"/>
        <path d="M214.86876,15.00263v163.48773h-4.15052V13.06099c1.3902.63054,2.78034,1.28105,4.15052,1.94164Z" fill="#2d429b"/>
        <path d="M208.13788,11.94005v166.5503h-4.38059V10.13855c1.47023.58045,2.93039,1.17097,4.38059,1.80151Z" fill="#2d429b"/>
        <path d="M201.29699,9.20777v169.28259h-4.60065V7.59637c1.54025.51044,3.08043,1.05093,4.60065,1.6114Z" fill="#2d429b"/>
        <path d="M194.36601,6.83572v171.65464h-4.8306V5.41454c1.62021.44037,3.23041.92076,4.8306,1.42118Z" fill="#2d429b"/>
        <path d="M187.3351,4.82407v173.66629h-5.05066V3.59299c1.70024.38033,3.38046.79071,5.05066,1.23108Z" fill="#2d429b"/>
        <path d="M180.19413,3.14266v175.34769h-5.00067l-.27006-176.34854c1.77026.30024,3.52049.63048,5.27073,1.00084Z" fill="#2d429b"/>
        <path d="M172.95317,1.82154v296.89011c-1.82025.29028-3.66046.54049-5.50074.76065V1.06089c1.84027.22016,3.68049.47037,5.50074.76065Z" fill="#2d429b"/>
        <path d="M165.61216.85069v298.83181c-1.90022.20018-3.8005.37031-5.72074.50042V.35027c1.92024.13011,3.82052.30024,5.72074.50042Z" fill="#2d429b"/>
        <path d="M158.17116.25021v300.03277c-1.97023.1201-3.96049.19016-5.95075.23024V.01998c1.99026.04007,3.98051.11014,5.95075.23024Z" fill="#2d429b"/>
        <path d="M150.61015,0v300.53319h-1.00013c-1.73021,0-3.46042-.02999-5.17068-.09004V0h6.17081Z" fill="#2d429b"/>
        <path d="M142.94915.15009v300.23301c-2.15031-.0901-4.2806-.23024-6.40088-.41038V.56047c2.12028-.18014,4.25057-.32028,6.40088-.41038Z" fill="#2d429b"/>
        <path d="M135.16808.69058v299.15202c-2.22027-.21014-4.43059-.48039-6.62088-.79064V1.48123c2.1903-.31026,4.40061-.58051,6.62088-.79064Z" fill="#2d429b"/>
        <path d="M127.28708,1.66137v297.21044c-2.30036-.35033-4.59064-.74061-6.85095-1.20102V2.8624c2.26031-.46041,4.5506-.85069,6.85095-1.20102Z" fill="#2d429b"/>
        <path d="M119.286,3.09257v294.34805c-2.38032-.4904-4.74069-1.0309-7.08097-1.6414V4.73397c2.34028-.6105,4.70064-1.15099,7.08097-1.6414Z" fill="#2d429b"/>
        <path d="M111.16486,5.01423v290.50472c-2.46029-.65051-4.89061-1.36113-7.30097-2.14176V7.15599c2.41036-.78063,4.84068-1.49125,7.30097-2.14176Z" fill="#2d429b"/>
        <path d="M102.93378,7.45629v285.6206c-2.54032-.83066-5.05066-1.74146-7.52103-2.70223V10.15852c2.47036-.96077,4.98071-1.87157,7.52103-2.70223Z" fill="#2d429b"/>
        <path d="M94.58268,10.48882v279.55555c-2.62035-1.04086-5.21072-2.15184-7.75104-3.33283V13.82164c2.54032-1.18099,5.13069-2.29197,7.75104-3.33283Z" fill="#2d429b"/>
        <path d="M86.11152,14.1619v272.2094c-2.70037-1.27109-5.3607-2.63222-7.97104-4.05346V18.21536c2.61034-1.42124,5.27066-2.78237,7.97104-4.05346Z" fill="#2d429b"/>
        <path d="M77.5204,18.56563v263.40193c-2.79041-1.54128-5.52076-3.17266-8.20111-4.88412V23.44975c2.68035-1.71146,5.4107-3.34284,8.20111-4.88412Z" fill="#2d429b"/>
        <path d="M68.80921,23.77003v252.99313c-2.88039-1.86155-5.69077-3.82323-8.43112-5.87495V29.64497c2.74036-2.05172,5.55073-4.01339,8.43112-5.87495Z" fill="#2d429b"/>
        <path d="M59.96806,29.94521v240.64276c-2.97043-2.24188-5.86083-4.58388-8.65118-7.02594V36.97115c2.79035-2.44206,5.68075-4.78406,8.65118-7.02594Z" fill="#2d429b"/>
        <path d="M50.99682,37.26138v226.01044c-3.07042-2.70229-6.03078-5.53469-8.87118-8.48713V45.74851c2.84041-2.95244,5.80077-5.78484,8.87118-8.48713Z" fill="#2d429b"/>
        <path d="M41.89563,45.98876v208.55567c-3.19043-3.31279-6.23088-6.78569-9.10126-10.3887V56.37746c2.87038-3.60301,5.91083-7.07591,9.10126-10.3887Z" fill="#2d429b"/>
        <path d="M32.67436,56.52761v187.47797c-3.34041-4.18352-6.45088-8.5572-9.33127-13.10107V69.62867c2.88039-4.54387,5.99085-8.91755,9.33127-13.10107Z" fill="#2d429b"/>
        <path d="M23.31312,69.6787v161.17578c-3.5305-5.5747-6.71092-11.39962-9.50127-17.43467-.02002-.04001-.03003-.07007-.04999-.11008v-126.08628c.01996-.04001.02997-.07007.04999-.11008,2.79035-6.03505,5.97077-11.85997,9.50127-17.43467Z" fill="#2d429b"/>
        <path d="M13.81185,87.11338v126.30643c-.02002-.04001-.03003-.07007-.04999-.11008-4.05053-8.78743-7.27099-18.0252-9.5813-27.63333-.04999-.20012-.09999-.39028-.14003-.59046v-69.63869c.04004-.20018.09004-.39034.14003-.59046,2.31031-9.60813,5.53077-18.8459,9.5813-27.63333.01996-.04001.02997-.07007.04999-.11008Z" fill="#2d429b"/>
        <path d="M4.18055,114.85679v70.81962c-.04999-.20012-.09999-.39028-.14003-.59046-2.64037-11.1794-4.04052-22.82923-4.04052-34.81932s1.40015-23.63997,4.04052-34.81938c.04004-.20018.09004-.39034.14003-.59046Z" fill="#2d429b"/>
        <path d="M299.22009,150.26663c0,4.18352-.17001,8.31701-.50007,12.42044v-24.84094c.33006,4.10343.50007,8.23692.50007,12.4205Z" fill="#2d429b"/>
      </g>
      <polygon points="304.43 186.49303 264.17356 227.5783 291.84163 255.36748 251.41543 295.97063 223.74736 268.18146 182.19137 309.91935 182.19137 186.49303 304.43 186.49303" fill="#fcec0a"/>
    </g>
  </g>
</svg>