<?xml version="1.0" encoding="UTF-8"?>
<svg id="Layer_2" data-name="Layer 2" xmlns="http://www.w3.org/2000/svg" viewBox="0 0 499.93599 499.47685">
  <g id="Layer_2-2" data-name="Layer 2">
    <g id="Originator">
      <g>
        <path d="M67.33296,67.69928h202.45214c94.46047,0,173.82198,64.57891,196.1687,151.90573" fill="none" stroke="#cc4097" stroke-width="55.34126"/>
        <path d="M269.78519,499.47685h-18.79398v-55.28523h18.79398c12.0326,0,24.04601-1.22458,35.70778-3.63889l11.25455,54.13182c-15.35624,3.17998-31.15658,4.7923-46.96234,4.7923ZM219.26363,499.47685h-60.43347v-55.28523h60.43347v55.28523ZM127.10259,499.47685h-59.76953v-55.28523h59.76953v55.28523ZM351.36152,484.62091l-19.64186-51.69346c16.25871-6.15284,31.49347-14.70232,45.28182-25.41089l34.02235,43.63038c-18.15562,14.10058-38.22879,25.36279-59.66232,33.47397ZM437.62529,426.94394l-40.39324-37.83485c11.95981-12.71649,21.90812-27.07131,29.56902-42.66445l49.74056,24.33846c-10.08897,20.53515-23.18239,39.43048-38.91634,56.16084ZM489.82047,337.31551l-52.95503-16.23611c5.0917-16.53894,7.6732-33.79447,7.6732-51.28756h55.39735c0,23.00099-3.40332,45.71928-10.11552,67.52367Z" fill="#cc4097"/>
        <polygon points="0 67.69928 117.49274 135.39856 117.49274 0 0 67.69928" fill="#cc4097"/>
      </g>
      <polygon points="312.99502 384.53391 227.4313 339.09952 142.92515 386.54428 159.84653 291.25266 88.48467 225.76479 184.52353 212.34555 224.91324 124.39177 267.36776 211.39063 363.6584 222.54819 293.85776 289.69463 312.99502 384.53391" fill="#fff200" stroke="#fff200" stroke-linejoin="round" stroke-width="27.06691"/>
    </g>
  </g>
</svg>