<?xml version="1.0" encoding="UTF-8"?>
<svg id="Layer_2" data-name="Layer 2" xmlns="http://www.w3.org/2000/svg" viewBox="0 0 499.93599 499.57747">
  <g id="Layer_2-2" data-name="Layer 2">
    <g id="Parent-o-bot">
      <g id="c">
        <g>
          <path d="M80.52969,351.08307l15.90796,27.53671-96.43765-1.45876,44.5243-88.40524,15.89797,27.52671.68991-.39966,95.03783-54.82363,20.11742,34.79055-95.73774,55.23328v.00003Z" fill="#f0f"/>
          <path d="M499.93599,372.94458l-98.87732,5.67522,15.90797-27.53671-95.73774-55.23328,20.11742-34.79058,95.72773,55.22328,15.89796-27.52674,46.96399,84.1888Z" fill="#ff8917"/>
          <g>
            <path d="M301.88634,82.73003h-31.80593v110.46657h-40.21485v-110.46657h-31.80593L247.53331,0l54.35303,82.73003Z" fill="#10181e"/>
            <path d="M301.88634,82.73003h-31.80593v110.46657h-40.21485v-110.46657h-31.80593L247.53331,0l54.35303,82.73003Z" fill="red"/>
          </g>
          <path d="M499.93599,122.91604l-44.5243,88.40523-15.89796-27.52672-95.72773,55.23328-20.11742-34.81055,95.73774-55.23328-15.90797-27.52672,96.43763,1.44877v.00999Z" fill="#a303b3"/>
          <path d="M178.70712,204.21728l-20.11743,34.80057-95.72775-55.23328-15.89797,27.52672L0,127.13247l98.87734-5.66521-15.90796,27.52672,95.73775,55.23328-.00002-.00999Z" fill="#ff0"/>
          <path d="M301.88634,416.84745l-54.35304,82.73002-49.48367-82.73002h31.80593v-109.95699h40.21485v109.95699h31.81593Z" fill="#194edc"/>
        </g>
      </g>
      <rect x="162.58626" y="162.407" width="174.76347" height="174.76347" rx="11.79799" ry="11.79799" transform="translate(249.71448 -103.59257) rotate(44.97945)" fill="#03d1ed"/>
      <rect x="203.12373" y="202.91085" width="93.68853" height="93.75577" rx="6.32702" ry="6.32702" transform="translate(499.75673 -.17926) rotate(90)" fill="#fcec0b"/>
    </g>
  </g>
</svg>