<?xml version="1.0" encoding="UTF-8"?>
<svg id="Layer_2" data-name="Layer 2" xmlns="http://www.w3.org/2000/svg" viewBox="0 0 499.93599 499.71331">
  <g id="Layer_2-2" data-name="Layer 2">
    <g id="PathMaster">
      <g>
        <polyline points="24.52516 24.26651 41.28579 243.1389 121.98377 451.10875 475.41083 475.44679" fill="none" stroke="#cc4097" stroke-miterlimit="10" stroke-width="20.88967"/>
        <rect width="49.05032" height="48.53303" fill="#fff200"/>
        <rect x="19.0317" y="225.00041" width="49.05032" height="48.53303" fill="#fff200"/>
        <rect x="98.21413" y="426.91376" width="49.05032" height="48.53303" fill="#fff200"/>
        <rect x="450.88567" y="451.18028" width="49.05032" height="48.53303" fill="#fff200"/>
      </g>
      <g>
        <g>
          <path d="M396.8477,378.40062l-29.97144-1.83987,1.84352-29.91207,29.97144,1.83987-1.84352,29.91207ZM346.89513,375.33449l-29.97144-1.83987,1.84352-29.91207,29.97144,1.83987-1.84352,29.91207ZM296.94256,372.26787l-29.97144-1.83987,1.84352-29.91207,29.97144,1.83987-1.84352,29.91207ZM246.99,369.20126l-29.97144-1.83987,1.84352-29.91207,29.97144,1.83987-1.84352,29.91207ZM196.19997,340.02962l-11.88345-27.522,27.57662-11.85967,11.88345,27.522-27.57662,11.85967ZM176.39406,294.15962l-11.88369-27.522,27.57662-11.86015,11.88369,27.52248-27.57662,11.85967ZM156.58815,248.28987l-4.83216-11.19118,1.58669-24.9134,29.96753,1.90084-1.13021,17.74706,1.98477,4.59627-27.57662,11.8604Z" fill="#fff200"/>
          <polygon points="392.73487 423.02212 499.93599 369.71649 400.08877 303.70075 392.73487 423.02212" fill="#fff200"/>
        </g>
        <polygon points="247.26614 227.95356 175.8018 190.29779 105.2483 229.59918 119.35909 150.71307 59.78062 96.46516 139.9659 85.36664 173.69788 12.53819 209.14433 84.56504 289.5703 93.80249 231.29212 149.41606 247.26614 227.95356" fill="#f6871f" stroke="#f6871f" stroke-linejoin="round" stroke-width="22.51522"/>
      </g>
    </g>
  </g>
</svg>