<?xml version="1.0" encoding="UTF-8"?>
<svg id="Layer_2" data-name="Layer 2" xmlns="http://www.w3.org/2000/svg" viewBox="0 0 499.93599 499.57747">
  <g id="Layer_2-2" data-name="Layer 2">
    <g id="Rand-o-matic">
      <path d="M489.36867,343.68186l.00003-207.0844c0-20.78781-12.50999-39.53305-31.70651-47.50969L269.70952,10.98865c-12.63721-5.25108-26.84576-5.25108-39.48297,0L42.27382,89.08783c-19.19651,7.97664-31.7065,26.72187-31.7065,47.50967l-.00003,207.0844c0,19.21929,10.71249,36.83607,27.77663,45.67892l187.95267,97.39934c14.84356,7.69211,32.49916,7.69211,47.34273,0l187.95273-97.3994c17.06414-8.84284,27.77662-26.45962,27.77663-45.6789Z" fill="#194edc"/>
      <g>
        <path d="M217.45905,456.55885l-163.45094-82.64825c-15.42263-7.79838-25.14468-23.60232-25.14468-40.87459v-174.44777c0-10.00649,10.56238-16.4948,19.4973-11.97689l163.45094,82.64825c15.42263,7.79838,25.14468,23.60232,25.14468,40.87459v174.44777c0,10.00649-10.56238,16.4948-19.4973,11.97689Z" fill="#fcec0b"/>
        <path d="M278.28405,458.34952l168.33054-85.1156c14.60181-7.38334,23.80645-22.34617,23.80645-38.69918v-179.91257c0-8.18898-8.6439-13.4988-15.95594-9.80149l-168.33054,85.1156c-14.60181,7.38334-23.80645,22.34617-23.80645,38.69918v179.91257c0,8.18898,8.6439,13.4988,15.95594,9.80149Z" fill="#fcec0b"/>
        <path d="M50.09479,119.60732l170.6028,84.61495c18.56748,9.20903,40.33287,9.41377,59.07055.55566l169.32888-80.04913c8.31981-3.93314,8.14085-15.82384-.29356-19.50519L276.33592,29.94714c-16.79079-7.32863-35.83668-7.546-52.79059-.60249L50.79555,100.09472c-8.53514,3.49559-8.96319,15.41463-.70076,19.5126Z" fill="#fcec0b"/>
      </g>
      <g>
        <path d="M335.88046,268.17304c0,17.57726-14.25243,40.04434-31.84231,50.19198-6.09292,3.51303-11.79388,5.09156-16.63973,4.9017-9.13344-.32047-15.21447-6.87191-15.21447-18.34874,0-17.57726,14.26432-40.05622,31.8542-50.20378,2.221-1.28182,4.38263-2.30249,6.47299-3.07398,14.48999-5.36459,25.36931,1.17497,25.36931,16.53283Z" fill="#f0f"/>
        <path d="M398.11612,294.44994c0,17.57726-14.25243,40.05622-31.84231,50.20378-6.09292,3.51311-11.78206,5.09164-16.62784,4.9017-9.13344-.30859-15.22636-6.85996-15.22636-18.34867,0-17.57733,14.26432-40.05622,31.8542-50.20386,2.221-1.28175,4.39444-2.30249,6.48481-3.0739,14.4781-5.36459,25.3575,1.16309,25.3575,16.52095Z" fill="#f0f"/>
        <path d="M460.56548,320.82181c0,17.57726-14.26425,40.05622-31.85412,50.20378-6.09292,3.51303-11.79395,5.09156-16.62784,4.9017-9.12162-.32047-15.21454-6.87191-15.21454-18.34874,0-17.57726,14.25243-40.05622,31.84238-50.20378,2.221-1.28182,4.39444-2.30249,6.48481-3.07398,14.4781-5.36452,25.36931,1.17497,25.36931,16.52102Z" fill="#f0f"/>
        <path d="M325.73751,269.98896c0,17.57726-14.26432,40.05622-31.8542,50.20378-2.221,1.28182-4.38263,2.30249-6.48488,3.07398-9.13344-.32047-15.21447-6.87191-15.21447-18.34874,0-17.57726,14.26432-40.05622,31.8542-50.20378,2.221-1.28182,4.38263-2.30249,6.47299-3.07398,9.13344.30859,15.22636,6.86003,15.22636,18.34874Z" fill="#194edc"/>
        <path d="M387.97309,296.27767c0,17.57726-14.26432,40.05622-31.8542,50.20386-2.221,1.28175-4.38263,2.30249-6.47292,3.0739-9.13344-.30859-15.22636-6.85996-15.22636-18.34867,0-17.57733,14.26432-40.05622,31.8542-50.20386,2.221-1.28175,4.39444-2.30249,6.48481-3.0739,9.13344.3204,15.21447,6.87184,15.21447,18.34867Z" fill="#194edc"/>
        <path d="M450.42252,322.64953c0,17.57726-14.26432,40.05622-31.8542,50.20378-2.221,1.28182-4.39451,2.30249-6.48481,3.07398-9.12162-.32047-15.21454-6.87191-15.21454-18.34874,0-17.57726,14.25243-40.05622,31.84238-50.20378,2.221-1.28182,4.39444-2.30249,6.48481-3.07398,9.13344.30859,15.22636,6.86003,15.22636,18.34874Z" fill="#194edc"/>
        <path d="M97.23536,226.25346c0,13.10288-8.14762,19.59492-19.66835,17.44672-3.49185-.64087-7.29251-2.07699-11.27129-4.37948-17.10295-9.86273-30.95153-31.70074-30.95153-48.77955s13.84858-22.94185,30.95153-13.07912c.21378.11873.42756.24926.62944.3798,16.80602,10.01703,30.3102,31.53464,30.3102,48.41163Z" fill="#f0f"/>
        <path d="M215.43556,294.43806c0,13.11469-8.1477,19.6068-19.66835,17.4586-3.49185-.64095-7.29251-2.07699-11.27136-4.37948-17.10288-9.86273-30.95153-31.70082-30.95153-48.79143,0-17.0788,13.84865-22.92997,30.95153-13.06724.20196.11866.40385.23738.60574.36792,16.81791,10.01703,30.33397,31.53464,30.33397,48.41163Z" fill="#f0f"/>
        <path d="M215.43556,410.67825c0,13.10288-8.1477,19.59492-19.66835,17.44672-3.49185-.64087-7.29251-2.07699-11.27136-4.37948-17.10288-9.86273-30.95153-31.70082-30.95153-48.77955s13.84865-22.92997,30.95153-13.07912c.21385.11866.42763.24926.62952.3798,16.80602,10.01703,30.3102,31.54652,30.3102,48.41163Z" fill="#f0f"/>
        <path d="M97.23536,342.48184c0,13.11469-8.15951,19.60673-19.69213,17.44665-3.47996-.64087-7.28062-2.08887-11.24751-4.37948-17.10295-9.86273-30.95153-31.70074-30.95153-48.77955s13.84858-22.92997,30.95153-13.06724c.20189.11873.40378.23738.60574.36792,16.81784,10.01703,30.3339,31.53464,30.3339,48.4117Z" fill="#f0f"/>
        <path d="M97.23536,226.25346c0,13.10288-8.14762,19.59492-19.66835,17.44672-16.81791-10.01703-30.3339-31.53464-30.3339-48.41163,0-13.11469,8.15951-19.6068,19.69206-17.44672,16.80602,10.01703,30.3102,31.53464,30.3102,48.41163Z" fill="#194edc"/>
        <path d="M215.43556,294.43806c0,13.11469-8.1477,19.6068-19.66835,17.4586-16.81791-10.01703-30.33397-31.53464-30.33397-48.4117,0-13.10281,8.15951-19.59485,19.66835-17.45853,16.81791,10.01703,30.33397,31.53464,30.33397,48.41163Z" fill="#194edc"/>
        <path d="M215.43556,410.67825c0,13.10288-8.1477,19.59492-19.66835,17.44672-16.81791-10.01703-30.33397-31.53464-30.33397-48.41163,0-13.11476,8.15951-19.6068,19.69213-17.44672,16.80602,10.01703,30.3102,31.54652,30.3102,48.41163Z" fill="#194edc"/>
        <path d="M97.23536,342.48184c0,13.11469-8.15951,19.60673-19.69213,17.44665-16.80595-10.01703-30.31012-31.54645-30.31012-48.41163,0-13.10281,8.14762-19.59492,19.66835-17.44672,16.81784,10.01703,30.3339,31.53464,30.3339,48.4117Z" fill="#194edc"/>
        <path d="M298.46783,117.49049c-.89078,3.54867-2.70792,6.75319-5.28529,9.5185-.14252-15.95128-19.22891-30.92933-44.80011-34.34747-19.83465-2.64665-38.1253,2.38558-47.73378,11.89227-.53448-2.91968-.47511-5.87493.24937-8.77085,4.22829-16.86511,29.49068-25.6834,56.42777-19.68982,26.94898,5.99358,45.37026,24.52031,41.14204,41.39737Z" fill="#f0f"/>
        <path d="M293.18254,127.00898c-9.64414,10.40871-29.87068,14.90685-51.14248,10.17132-22.30502-4.97291-38.77845-18.52673-41.39141-32.62652,9.60847-9.50669,27.89913-14.53892,47.73378-11.89227,25.5712,3.41814,44.65759,18.39619,44.80011,34.34747Z" fill="#194edc"/>
      </g>
      <path d="M184.55712,199.44905c6.77408,3.31842,23.55468,11.55728,30.0709,14.75043,17.75893,7.47731,31.21463,22.49139,35.09509,41.58346,1.57708,6.45012,1.23235,15.81797,1.38895,22.47401-.00003-.00011.07264,11.15706.07264,11.15706l-.05783,11.15717c-.27077,14.87622-.4853,29.75244-1.33617,44.62868h-.29693c-.99469-18.4458-1.30021-37.30017-1.39407-55.78583.00007-.00002.07274-11.15719.07274-11.15719-.00961-6.50382.59106-15.69633-.77932-22.01277-3.42508-18.68288-16.21074-33.20616-33.30281-40.98589-6.38452-3.35155-23.09921-12.09879-29.66758-15.54456.00002.00002.13438-.26456.13438-.26456h0Z" fill="#fff200"/>
      <path d="M352.13435,431.69993c-12.93075,6.91065-45.49109,24.29781-58.00319,30.88087,0,.00003-9.67854,5.12488-9.67854,5.12488-3.27935,1.72925-6.62022,3.70947-10.35849,4.36164-7.624,1.52116-15.89297-1.49427-20.92384-7.49225-3.16681-3.73703-4.97711-8.58838-5.02648-13.49332-.06574-1.90889.02595-6.28773.01373-8.23939.19891-14.59326.51872-29.18652,1.33623-43.77978,0,0,.29693,0,.29693,0,.81749,14.59326,1.1373,29.18653,1.33615,43.7798.11741,3.12818-.15965,7.65963.29584,10.70194.93106,6.75905,5.78494,12.69167,12.15568,15.13572,7.01582,2.8608,13.61365.68724,19.8856-2.88564.00008.00033,9.78091-4.92683,9.78091-4.92683,12.4888-6.33143,45.82442-22.98152,58.75315-29.43119-.00003-.00002.13633.26355.13633.26355h0Z" fill="#fff200"/>
      <path d="M72.16622,143.75482s-17.73315-8.79957-17.73315-8.79957c0,0-8.86438-4.41494-8.86438-4.41494-3.01953-1.54974-5.66956-3.83579-7.63871-6.6304-6.15936-8.53709-4.34573-21.35092,3.73594-28.0574.80561-.47306,2.3799-1.86308,3.23748-2.18354.58136-.2917,1.73864-.89261,2.32183-1.17938,25.40613-10.90194,50.88113-21.60154,77.09815-30.46183-.00006-.00014.11243.27444.11243.27444-11.90445,5.75254-23.99745,11.04484-36.13628,16.22528-12.13416,5.19178-24.49047,9.84136-36.75498,14.71499-3.12765,1.23289-6.04687,2.33143-8.51464,4.27412-7.49081,5.95514-9.32797,17.65365-3.8699,25.56233,1.74655,2.64106,4.14815,4.85688,6.96259,6.41151l8.71856,4.67359s17.46108,9.32704,17.46108,9.32704l-.13603.26375h0Z" fill="#fff200"/>
      <path d="M195.32618,36.09572c13.32697-5.46613,31.00277-15.39499,45.44114-16.7512,12.16671-1.52895,24.72852.10474,36.09347,4.72593,33.14973,14.4446,67.71625,28.54678,99.11946,45.44657-33.93742-13.04132-66.89048-28.3951-99.94307-43.45935-18.45046-8.0002-39.96645-7.27931-58.19922,1.07181-.00003-.0002-22.39511,9.23908-22.39511,9.23908,0,0-.11668-.27284-.11668-.27284h0Z" fill="#fff200"/>
      <path d="M153.48598,47.36233c16.97283-7.59959,51.09918-22.74585,68.11863-30.21359,17.16962-8.44429,37.95827-8.76089,54.98786.18492,5.5929,2.70346,11.1429,5.5034,16.65052,8.3983,0,0-.12092.271-.12092.271-5.8359-2.15917-11.62943-4.41331-17.38008-6.76354-16.81164-7.21983-36.36387-7.52131-53.20422.09214-17.13234,7.1146-51.74709,21.31956-68.93517,28.30359.00006.00003-.11662-.27282-.11662-.27282h0Z" fill="#fff200"/>
      <path d="M423.70696,81.76268c8.9977,4.19168,20.67008,8.409,29.02527,13.61284,15.22896,9.68862,25.76332,26.22367,28.08231,44.12894.66597,4.66265.60725,9.63695.64672,14.32233.15585,42.43446,1.48171,86.17682-1.22416,128.0101-1.85503-42.60592-1.37492-85.37294-.92834-128.0101.03123-4.63335.17417-9.47592-.40866-14.07864-2.00318-17.49465-12.05519-33.78955-26.69778-43.5663-8.10893-5.33849-19.84161-9.8012-28.61779-14.14923,0,.00036.12244-.26995.12244-.26995h0Z" fill="#fff200"/>
      <rect id="sizer" width="499.93599" height="499.57747" fill="none"/>
    </g>
  </g>
</svg>