<?xml version="1.0" encoding="UTF-8"?>
<svg id="Layer_2" data-name="Layer 2" xmlns="http://www.w3.org/2000/svg" viewBox="0 0 499.93599 499.57747">
  <g id="Layer_2-2" data-name="Layer 2">
    <g id="Rectangulator">
      <path d="M430.39968,54.26824H74.08137c-9.64304,0-17.46146,7.78253-17.46146,17.39498v360.68248c0,9.61245,7.81842,17.39498,17.46146,17.39498h356.31831c9.64304,0,17.46146-7.78253,17.46146-17.39498V71.66321c0-9.61245-7.81842-17.39498-17.46146-17.39498ZM403.62685,400.79669c0,2.67868-2.18958,4.85033-4.8768,4.85033H105.731c-2.68723,0-4.8768-2.17165-4.8768-4.85033V103.21221c0-2.67868,2.18958-4.85033,4.8768-4.85033h293.01905c2.68723,0,4.8768,2.17165,4.8768,4.85033v297.58448Z" fill="#cb299d"/>
      <path d="M155.26239,77.38436c0,7.26439-1.00637,14.30837-2.88634,20.97752-7.08852,25.1444-26.60692,45.10785-51.52185,52.87934-7.33184,2.29289-15.13919,3.52751-23.223,3.52751-7.27656,0-14.33194-1.00317-21.01129-2.86613v-80.23939c0-9.61245,7.81842-17.39498,17.46146-17.39498h77.65334c2.28907,7.29749,3.52769,15.06905,3.52769,23.11613Z" fill="#fbf104"/>
      <path d="M151.73471,54.26824h-77.65334c-9.64304,0-17.46146,7.78253-17.46146,17.39498v80.23939C23.95284,142.76422,0,112.86873,0,77.38436,0,34.64658,34.75709,0,77.6312,0c34.79023,0,64.23921,22.81848,74.10351,54.26824Z" fill="#00aceb"/>
      <path d="M447.86114,71.66321v78.80636c-8.0064,2.78896-16.59893,4.29916-25.55635,4.29916-6.4361,0-12.69522-.78269-18.67795-2.25985-27.08243-6.66915-48.55816-27.49232-56.06698-54.14699-1.8799-6.66915-2.88627-13.71313-2.88627-20.97752,0-8.04708,1.23855-15.81864,3.52769-23.11613h82.19839c9.64304,0,17.46146,7.78253,17.46146,17.39498Z" fill="#fbf104"/>
      <path d="M499.93599,77.38436c0,33.80879-21.75226,62.55786-52.07485,73.08521v-78.80636c0-9.61245-7.81842-17.39498-17.46146-17.39498h-82.19839C358.06551,22.81848,387.5145,0,422.3048,0c42.87411,0,77.6312,34.64658,77.6312,77.38436Z" fill="#00aceb"/>
      <path d="M155.26239,422.20421c0,9.70059-1.79155,18.98228-5.06485,27.53646h-76.11618c-9.64304,0-17.46146-7.78253-17.46146-17.39498v-84.65979c6.67935-1.86296,13.73473-2.86606,21.01129-2.86606,8.08381,0,15.89116,1.23462,23.223,3.52751,26.3636,8.22342,46.67819,30.0939,52.61664,57.29967,1.17227,5.33529,1.79155,10.86907,1.79155,16.55719Z" fill="#fbf104"/>
      <path d="M150.19755,449.74067c-11.12492,29.13487-39.42384,49.8368-72.56635,49.8368-42.87411,0-77.6312-34.63554-77.6312-77.37326,0-35.48437,23.95284-65.37992,56.61991-74.5183v84.65979c0,9.61245,7.81842,17.39498,17.46146,17.39498h76.11618Z" fill="#00aceb"/>
      <path d="M447.86114,349.11893v83.22676c0,9.61245-7.81842,17.39498-17.46146,17.39498h-80.66123c-3.27336-8.55418-5.06485-17.83587-5.06485-27.53646,0-5.68812.61928-11.22189,1.79148-16.55719,6.28126-28.74908,28.59745-51.53445,57.16177-58.56739,5.98273-1.47717,12.24185-2.25979,18.67795-2.25979,8.95742,0,17.54995,1.5102,25.55635,4.29909Z" fill="#fbf104"/>
      <path d="M499.93599,422.20421c0,42.73772-34.75709,77.37326-77.6312,77.37326-33.14258,0-61.44143-20.70193-72.56635-49.8368h80.66123c9.64304,0,17.46146-7.78253,17.46146-17.39498v-83.22676c30.32259,10.52741,52.07485,39.27642,52.07485,73.08527Z" fill="#00aceb"/>
    </g>
  </g>
</svg>