<?xml version="1.0" encoding="UTF-8"?>
<svg id="Layer_2" data-name="Layer 2" xmlns="http://www.w3.org/2000/svg" viewBox="0 0 499.93599 499.57747">
  <g id="Layer_2-2" data-name="Layer 2">
    <g id="Reseterator">
      <g>
        <g>
          <g>
            <path d="M340.3992,384.07305h-86.4764c-10.60681,0-10.60681-16.00526,0-16.00526h78.45947v-205.77437H126.24008v75.81136c0,10.58788-16.03387,10.58788-16.03387,0v-83.81399c0-4.41968,3.58935-8.00263,8.01693-8.00263h222.17605c4.42758,0,8.01693,3.58295,8.01693,8.00263v221.77963c0,4.41968-3.58935,8.00263-8.01693,8.00263Z" fill="#fff200"/>
            <path d="M319.40531,169.6504c.16568.12804.32066.27743.47033.43214-.14967-.14937-.31-.29876-.47033-.43214Z" fill="#f6871f"/>
            <path d="M322.22729,193.34353c0,9.61938-14.01016,10.99996-15.87888,1.56318-38.43842,38.3698-36.21322,37.32958-40.72068,37.32958-7.11808,0-10.6996-8.63462-5.67064-13.66315l35.17296-35.10486c-9.00195-2.41878-7.23798-15.73316,2.08438-15.73316,28.17705,0,25.01286-2.30514,25.01286,25.60841Z" fill="#f6871f"/>
          </g>
          <g>
            <path d="M252.26617,415.33645H85.24672c-4.42758,0-8.01693-3.58295-8.01693-8.00263v-166.72144c0-4.41968,3.58935-8.00263,8.01693-8.00263h167.01944c4.42758,0,8.01693,3.58295,8.01693,8.00263v166.72144c0,4.41968-3.58935,8.00263-8.01693,8.00263ZM93.26366,399.33119h150.98558v-150.71618H93.26366v150.71618Z" fill="#f6871f"/>
            <g>
              <path d="M226.45175,395.1694h-126.66924v-15.57803h126.66924c10.32406,0,10.32406,15.57803,0,15.57803Z" fill="#fff200"/>
              <path d="M99.78394,393.37805v-132.11228c0-4.19418,3.229-7.80303,7.42603-8.00025,4.4811-.21057,8.18037,3.35337,8.18037,7.78014v132.57689l-15.6064-.24449Z" fill="#fff200"/>
              <path d="M97.54014,273.10326c-7.15788,0-10.73569-8.7389-5.59306-13.7368l10.10128-9.81651c3.14231-3.05439,8.15968-3.02052,11.26129.07529l9.83405,9.81677c7.49928,7.48715-3.83842,18.80409-11.33801,11.31726l-4.24047-4.23316c-4.20857,4.09003-5.95371,6.57716-10.02508,6.57716Z" fill="#cc4097"/>
              <path d="M215.88124,391.6297l4.21019-4.1795-4.30127-4.41082c-7.39891-7.58603,4.09028-18.75044,11.48885-11.16408l9.83405,10.08352c3.06507,3.1427,3.02462,8.1631-.09108,11.2563l-9.83405,9.7631c-7.43153,7.37742-18.85598-3.85404-11.30669-11.34852Z" fill="#cc4097"/>
              <path d="M149.79974,395.17045c-3.82709,0-7.168-2.81238-7.71708-6.70429-2.13707-15.15081-20.99382-35.09278-36.03001-38.10314-4.22533-.84559-6.96367-4.95058-6.1163-9.16864s4.95943-6.95541,9.18529-6.10513c10.31423,2.06474,21.6726,9.00244,31.1627,19.03438,9.4961,10.03819,15.78438,21.76392,17.25233,32.17099.60075,4.25973-2.37168,8.19905-6.63902,8.79872-.36875.0521-.73567.07711-1.09789.07711Z" fill="#f6871f"/>
            </g>
          </g>
        </g>
        <path d="M271.13268,499.57747h-60.44768v-55.27148h60.44768v55.27148h0ZM184.38947,499.57747h-60.44768v-55.27148h60.44768v55.27148h0ZM97.64625,499.57747h-55.47718v-55.27148h55.47718v55.27148h0ZM305.23136,498.56379h0l-14.91151-53.19081h0l57.29436-16.80552h0l16.24766,52.81735h0l-58.68395,17.17898h.05343ZM397.15886,463.19218h0l-35.75554-42.20052h0l45.10862-39.05284h0l36.77099,41.29358h0l-46.17755,39.95981h0l.05347-.00003ZM466.10449,392.92909h0l-50.02565-23.63442h0l24.85249-54.25783h0l50.61358,22.35402h0l-25.44039,55.53823h-.00003Z" fill="#cc4097"/>
        <path d="M499.88251,297.43105h-55.37027c0-35.99487,3.98683-95.92336-51.19081-150.99362-33.00839-32.9548-76.89843-51.09944-123.57834-51.09944H117.52826v40.11985L0,67.70225,117.52826,0v40.06648h152.21483c95.48945,0,177.15615,57.97004,212.04254,140.30211,20.0731,47.36901,18.09688,82.46977,18.09688,117.06245Z" fill="#cc4097"/>
      </g>
    </g>
  </g>
</svg>