<?xml version="1.0" encoding="UTF-8"?>
<svg id="Layer_2" data-name="Layer 2" xmlns="http://www.w3.org/2000/svg" viewBox="0 0 499.93599 499.57747">
  <g id="Layer_2-2" data-name="Layer 2">
    <g id="sfxMaster">
      <path d="M24.39829,290.96083l-.79871-.00049c-12.94713,0-23.48467-10.25336-23.48467-22.85711l-.11491-35.636c0-12.58936,10.45393-22.81004,23.30376-22.81004l.82194.00341c12.89212-.00024,23.40766,10.26555,23.40766,22.88394l.21734,35.55624c.00024,12.62766-10.47569,22.86004-23.35241,22.86004ZM23.27075,226.00315c-3.84761,0-6.88722,2.82775-6.88722,6.43774l.11491,35.636c0,3.61682,3.18776,6.53799,7.10628,6.53799l.79578.00049c3.90702-.00146,6.96692-2.84067,6.96692-6.46482l-.21734-35.55624c-.00024-3.65487-3.16601-6.58799-7.05738-6.58799l-.82194-.00317Z" fill="#cc4097"/>
      <path d="M82.01103,380.23889l-2.4245-.00098c-12.41343,0-22.51531-9.9509-22.51531-22.18243l-.35694-215.21122c0-12.22519,10.06081-22.16024,22.42705-22.16024l.80238.00171c13.27742,0,24.09391,10.68021,24.09391,23.80766l.44006,213.56111c0,12.23983-10.07865,22.18438-22.46666,22.18438ZM79.12349,137.02998c-3.37112,0-6.02568,2.54797-6.02568,5.80063l.35694,215.21122c0,3.23192,2.7521,5.85063,6.13521,5.85063l2.4223.00098c3.35352-.00098,6.08191-2.61237,6.08191-5.82233l-.44006-213.56087c0-4.13125-3.46696-7.47854-7.72823-7.47854l-.80238-.00171Z" fill="#fff200"/>
      <path d="M137.57358,332.90993l-.79407-.00049c-12.88797,0-23.37734-10.29336-23.37734-22.94541l-.25352-119.36419c0-12.64254,10.43413-22.91395,23.25926-22.91395l.80605.00195c12.8464,0,23.31427,10.30531,23.31427,22.97224l.35303,119.30248c0,12.66425-10.45589,22.94736-23.30767,22.94736ZM136.38761,184.03185c-3.83539,0-6.85544,2.87751-6.85544,6.55067l.25352,119.36443c0,3.65634,3.1396,6.61702,6.99895,6.61702l.79113.00049c3.81705-.00146,6.92194-2.95141,6.92194-6.57799l-.35303-119.30223c0-3.67805-3.11809-6.65044-6.95103-6.65044l-.80605-.00195Z" fill="#f6871f"/>
      <path d="M194.40937,443.70648h-.78551c-12.85105,0-23.3062-10.32165-23.3062-23.00834l-.45693-339.80038c0-12.68108,10.41995-22.98883,23.22772-22.98883l.79896.00146c12.81609,0,23.25535,10.33044,23.25535,23.0281l.52979,339.75867c0,12.69303-10.43584,23.00932-23.26317,23.00932ZM193.07304,74.25488c-3.75862,0-6.82879,2.97507-6.82879,6.6319l.45693,339.80014c0,3.68512,3.10562,6.6741,6.92267,6.6741h.78551c3.79358,0,6.87964-2.98361,6.87964-6.65117l-.52979-339.75867c0-3.69732-3.08948-6.69483-6.88722-6.69483l-.79896-.00146Z" fill="#fff200"/>
      <path d="M251.06742,499.57747l-.78967-.00049c-12.83687,0-23.28444-10.32751-23.28444-23.022l-.53296-453.55005c0-12.68913,10.41677-23.00493,23.22063-23.00493l.79578.00122c12.81169,0,23.24508,10.33556,23.24508,23.03981l.59751,453.51298c0,12.69986-10.43046,23.02346-23.25193,23.02346ZM249.66826,16.34595c-3.7574,0-6.82439,2.98288-6.82439,6.64946l.53296,453.54981c0,3.69097,3.0978,6.68629,6.9058,6.68629l.78625.00049c3.78698-.00098,6.86742-2.99142,6.86742-6.66727l-.59751-453.51298c0-3.70171-3.08435-6.70459-6.87475-6.70459l-.79578-.00122Z" fill="#cc4097"/>
      <path d="M307.45557,443.70648h-.78527c-12.85129,0-23.3062-10.32165-23.3062-23.00834l-.45669-339.80038c0-12.68108,10.4197-22.98883,23.22748-22.98883l.79847.00146c12.81658,0,23.25535,10.33044,23.25535,23.0281l.53003,339.75867c0,12.69303-10.43584,23.00932-23.26317,23.00932ZM306.11973,74.25488c-3.75862,0-6.82928,2.97507-6.82928,6.6319l.45669,339.80014c0,3.68512,3.10586,6.6741,6.92316,6.6741h.78527c3.79383,0,6.88013-2.98361,6.88013-6.65117l-.53003-339.75867c0-3.69732-3.08973-6.69483-6.88747-6.69483l-.79847-.00146Z" fill="#fff200"/>
      <path d="M363.66622,332.90993l-.79358-.00049c-12.88845,0-23.37759-10.29336-23.37759-22.94541l-.25377-119.36419c0-12.64254,10.43388-22.91395,23.25926-22.91395l.80629.00195c12.84591,0,23.31354,10.30531,23.31354,22.97224l.35352,119.30199c0,12.66473-10.45589,22.94785-23.30767,22.94785ZM362.48001,184.03185c-3.83539,0-6.85569,2.87751-6.85569,6.55067l.25377,119.36443c0,3.65634,3.14009,6.61702,6.99944,6.61702l.79113.00049c3.81681-.00146,6.92218-2.95141,6.92218-6.57799l-.35352-119.30223c0-3.67805-3.11809-6.65044-6.95103-6.65044l-.80629-.00195Z" fill="#f6871f"/>
      <path d="M420.33308,380.23889l-.79211-.00049c-12.86303,0-23.33163-10.30995-23.33163-22.98297l-.35449-213.61136c0-12.66522,10.42557-22.95834,23.24019-22.95834l.80238.00171c12.82733,0,23.27735,10.32043,23.27735,23.0059l.44006,213.56111c0,12.68132-10.44415,22.98444-23.28175,22.98444ZM419.07694,137.03169c-3.82708,0-6.83906,2.89848-6.83906,6.59897l.35449,213.61111c0,3.67341,3.11955,6.65117,6.95348,6.65117l.78967.00049c3.80263-.00146,6.89627-2.97141,6.89627-6.62239l-.44006-213.56087c0-3.68927-3.10097-6.67678-6.9124-6.67678l-.80238-.00171Z" fill="#fff200"/>
      <path d="M476.58383,290.96083l-.79896-.00049c-12.94713,0-23.48418-10.25336-23.48418-22.85711l-.11491-35.636c0-12.58936,10.45393-22.81004,23.30327-22.81004l.82145.00341c12.89237-.00024,23.4079,10.26555,23.4079,22.88394l.21759,35.55624c0,12.62766-10.47544,22.86004-23.35216,22.86004ZM475.4558,226.00315c-3.84712,0-6.88698,2.82775-6.88698,6.43774l.11491,35.636c0,3.61682,3.18801,6.53799,7.10603,6.53799l.79651.00049c3.90678-.00146,6.96668-2.84067,6.96668-6.46482l-.21759-35.55624c0-3.65487-3.16601-6.58799-7.05763-6.58799l-.82194-.00317Z" fill="#cc4097"/>
      <path d="M376.13054,225.57849c-.06387-4.46078-3.45972-8.20464-7.89882-8.71445l-24.21805-2.76144-9.43705-18.88393,12.35385-20.96029c2.26745-3.84475,1.31471-8.80472-2.21954-11.53958l-34.81543-26.92394c-1.55424-1.20016-3.49698-1.86397-5.46104-1.86397-2.37391,0-4.60943.9187-6.2967,2.59681l-17.26135,17.16335-20.67848-4.41298-8.72383-22.70745c-1.30938-3.41461-4.65732-5.70872-8.32463-5.70872-.70259,0-1.41581.08495-2.10245.24958l-42.80473,10.37131c-4.34859,1.05146-7.24944,5.18828-6.75977,9.62252l2.68793,24.16782-16.35116,13.38228-23.22805-7.35495c-.87822-.27615-1.78307-.4142-2.69859-.4142-3.45439,0-6.62667,2.01796-8.0851,5.14579l-18.56007,39.85488c-1.88421,4.04655-.45241,8.89499,3.32666,11.27406l20.61464,12.9734.29274,21.09309-20.24738,13.53631c-3.7152,2.48528-5.0086,7.36558-3.01793,11.35904l19.66187,39.32912c1.51697,3.03756,4.5775,4.92807,7.97864,4.92807.99533,0,1.98004-.16994,2.92746-.49387l23.02045-7.99221,16.71313,12.92559-2.01727,24.23154c-.37259,4.44484,2.64534,8.50202,7.02057,9.43666l43.07619,9.18706c.61209.12745,1.24015.19648,1.86822.19648,3.77377,0,7.15364-2.3897,8.40448-5.94238l8.09043-22.94111,20.55074-4.97588,17.72974,16.68011c1.66066,1.56127,3.83764,2.42156,6.12105,2.42156,2.05453,0,4.06118-.71161,5.65265-2.01796l34.05429-27.87453c3.45972-2.82513,4.2741-7.81164,1.90552-11.59267l-12.93403-20.61514,8.91011-19.13353,24.1329-3.42521c4.42842-.63194,7.71784-4.47141,7.65394-8.93217l-.60676-43.9439ZM323.2926,252.77855l-23.51546,50.48636,11.37983,18.14045-2.74118,2.24102-15.60068-14.67807-54.22715,13.13803-7.12171,20.18499-3.46502-.73816,1.77775-21.32672-44.10346-34.10895-20.258,7.03102-1.58084-3.15972,17.81492-11.91131-.76646-55.66936-18.14492-11.41745,1.49566-3.20749,20.44431,6.47343,43.14539-35.30912-2.36859-21.26834,3.44374-.83371,7.67528,19.97788,54.56777,11.64048,15.19619-15.1029,2.79969,2.16135-10.87417,18.44847,24.90469,49.82256,21.30655,2.43219.04792,3.53142-21.23205,3.02164Z" fill="#fff" stroke="#2d429b" stroke-miterlimit="10" stroke-width="1.59496"/>
      <ellipse cx="249.37521" cy="249.86312" rx="32.1413" ry="32.06758" fill="#fff"/>
      <polygon points="316.97474 302.08024 331.21122 324.77159 306.74893 344.79249 287.2277 326.42637 249.83888 335.48432 240.93359 360.73716 209.99265 354.13846 212.21358 327.46006 181.80396 303.94289 156.46275 312.74131 142.34232 284.49197 164.63301 269.59068 164.10165 231.20729 141.40697 216.9259 154.74003 188.29824 180.31512 196.39503 210.06215 172.0489 207.10356 145.44188 237.85004 137.99312 247.45098 162.99094 285.07628 171.0152 304.08165 152.11818 329.08883 171.45739 315.4859 194.53237 332.65685 228.88459 359.31475 231.92741 359.75171 263.49176 333.18821 267.26798 316.97474 302.08024" fill="none" stroke="#2d429b" stroke-linecap="round" stroke-linejoin="round" stroke-width="15.94962"/>
      <path d="M274.2708,229.09119c-11.18632-13.60525-31.30922-15.58698-44.94574-4.42631-13.63653,11.16067-15.62281,31.23741-4.43649,44.84266,11.18632,13.60525,31.30922,15.58698,44.94574,4.42631s15.62281-31.23741,4.43649-44.84266Z" fill="#fff200" stroke="#2d429b" stroke-linecap="round" stroke-linejoin="round" stroke-width="15.94962"/>
    </g>
  </g>
</svg>