<?xml version="1.0" encoding="UTF-8"?>
<svg id="Layer_2" data-name="Layer 2" xmlns="http://www.w3.org/2000/svg" viewBox="0 0 499.93599 499.57747">
  <g id="Layer_2-2" data-name="Layer 2">
    <g id="Slideotron_9x16" data-name="Slideotron 9x16">
      <g>
        <g>
          <rect x="35.60599" y="124.18293" width="211.43971" height="119.94674" transform="translate(325.48215 42.83046) rotate(90)" fill="#01c4fe"/>
          <path d="M219.79538,268.12184V79.61596c0-16.23426-13.17112-29.39594-29.41711-29.39594h-102.21402c-16.24598,0-29.41711,13.16168-29.41711,29.39594v188.50588c0,16.23426,13.17112,29.38454,29.41711,29.38454h102.21402c16.24598,0,29.41711-13.15027,29.41711-29.38454ZM102.32204,263.11168c-5.05962,0-9.15553-4.09298-9.15553-9.14903V93.76367c0-5.05606,4.09591-9.14896,9.15553-9.14896h73.89843c5.05962,0,9.15553,4.09291,9.15553,9.14896v160.19897c0,5.05606-4.09591,9.14903-9.15553,9.14903h-73.89843Z" fill="#a52683"/>
          <polygon points="138.48592 133.4607 93.16651 173.91686 138.48592 214.26569 138.48592 191.37094 191.31317 191.37094 191.31317 158.60003 138.48592 158.60003 138.48592 133.4607" fill="#fef002"/>
          <polygon points="186.73873 297.50637 147.26188 297.50637 170.16638 50.22002 209.64324 50.22002 186.73873 297.50637" fill="#fef002"/>
        </g>
        <g>
          <rect x="258.63161" y="118.51374" width="211.43971" height="119.94674" transform="translate(185.86435 542.83858) rotate(-90)" fill="#01c4fe"/>
          <path d="M280.14061,79.60455v188.50588c0,16.23426,13.17112,29.39594,29.41711,29.39594h102.21402c16.24598,0,29.41711-13.16168,29.41711-29.39594V79.60455c0-16.23426-13.17112-29.38454-29.41711-29.38454h-102.21402c-16.24598,0-29.41711,13.15027-29.41711,29.38454ZM397.61395,84.61471c5.05962,0,9.15553,4.09298,9.15553,9.14903v160.19897c0,5.05606-4.09591,9.14896-9.15553,9.14896h-73.89843c-5.05962,0-9.15553-4.09291-9.15553-9.14896V93.76374c0-5.05606,4.09591-9.14903,9.15553-9.14903h73.89843Z" fill="#f5851c"/>
          <polygon points="361.45008 133.4607 406.76948 173.91686 361.45008 214.26569 361.45008 191.37094 309.40089 191.37094 309.40089 158.60003 361.45008 158.60003 361.45008 133.4607" fill="#fef002"/>
          <polygon points="311.70354 297.50635 351.18039 297.50636 328.27586 50.22004 288.799 50.22003 311.70354 297.50635" fill="#fef002"/>
        </g>
      </g>
      <g>
        <rect x="0" y="347.00854" width="499.93599" height="56.04472" rx="28.02233" ry="28.02233" fill="#01c4fe"/>
        <rect x="43.64226" y="363.33946" width="412.65148" height="23.75405" rx="11.87702" ry="11.87702" fill="#fef002"/>
        <g>
          <rect x="195.01703" y="320.26552" width="109.90193" height="109.90193" rx="8.55797" ry="8.55797" transform="translate(338.37347 -66.88744) rotate(44.97945)" fill="#a52683"/>
          <rect x="225.36094" y="350.6086" width="49.2148" height="49.21567" transform="translate(692.00815 463.94269) rotate(135.02106)" fill="#fef002"/>
        </g>
      </g>
      <rect id="sizer" width="499.93599" height="499.57747" fill="none"/>
    </g>
  </g>
</svg>