<?xml version="1.0" encoding="UTF-8"?>
<svg id="Layer_2" data-name="Layer 2" xmlns="http://www.w3.org/2000/svg" viewBox="0 0 499.93599 499.57747">
  <g id="Layer_2-2" data-name="Layer 2">
    <g id="Slideotron_16x9" data-name="Slideotron 16x9">
      <g>
        <g>
          <rect x="19.99077" y="108.53174" width="211.59145" height="119.86073" fill="#01c4fe"/>
          <path d="M218.0582,89.4238H29.41704c-16.24591,0-29.41704,13.16168-29.41704,29.39601v102.14072c0,16.23433,13.17112,29.39601,29.41704,29.39601h188.64116c16.24591,0,29.40562-13.16168,29.40562-29.39601v-102.14072c0-16.23433-13.15971-29.39601-29.40562-29.39601ZM213.04445,206.81289c0,5.05599-4.09591,9.14896-9.1556,9.14896H43.5749c-5.05969,0-9.15553-4.09298-9.15553-9.14896v-73.84544c0-5.05599,4.09584-9.14896,9.15553-9.14896h160.31394c5.05969,0,9.1556,4.09298,9.1556,9.14896v73.84544Z" fill="#a52683"/>
          <polygon points="127.6396 129.48768 82.3202 169.94384 127.6396 210.29266 127.6396 187.39792 196.82237 187.39792 196.82237 154.62701 127.6396 154.62701 127.6396 129.48768" fill="#fef002"/>
          <polygon points="216.81349 250.35654 177.33664 250.35654 200.24114 89.4238 239.718 89.4238 216.81349 250.35654" fill="#fef002"/>
        </g>
        <g>
          <rect x="264.60126" y="108.53174" width="211.59145" height="119.86073" fill="#01c4fe"/>
          <path d="M470.53037,89.4238h-188.64116c-16.24591,0-29.41704,13.16168-29.41704,29.39601v102.14072c0,16.23433,13.17112,29.39601,29.41704,29.39601h188.64116c16.24591,0,29.40562-13.16168,29.40562-29.39601v-102.14072c0-16.23433-13.15971-29.39601-29.40562-29.39601ZM465.51662,206.81289c0,5.05599-4.09591,9.14896-9.1556,9.14896h-160.31394c-5.05969,0-9.15553-4.09298-9.15553-9.14896v-73.84544c0-5.05599,4.09584-9.14896,9.15553-9.14896h160.31394c5.05969,0,9.1556,4.09298,9.1556,9.14896v73.84544Z" fill="#f5851c"/>
          <polygon points="376.26394 129.48768 421.58335 169.94384 376.26394 210.29266 376.26394 187.39792 307.08118 187.39792 307.08118 154.62701 376.26394 154.62701 376.26394 129.48768" fill="#fef002"/>
          <polygon points="282.49042 250.35654 321.96728 250.35654 299.06277 89.4238 259.58592 89.4238 282.49042 250.35654" fill="#fef002"/>
        </g>
      </g>
      <g>
        <rect x="0" y="307.80476" width="499.93599" height="56.04472" rx="28.02233" ry="28.02233" fill="#01c4fe"/>
        <rect x="43.64226" y="324.13568" width="412.65148" height="23.75405" rx="11.87702" ry="11.87702" fill="#fef002"/>
        <g>
          <rect x="195.01703" y="281.06174" width="109.90193" height="109.90193" rx="8.55797" ry="8.55797" transform="translate(310.66216 -78.36002) rotate(44.97945)" fill="#a52683"/>
          <rect x="225.36094" y="311.40482" width="49.2148" height="49.21567" transform="translate(664.29709 397.00747) rotate(135.02106)" fill="#fef002"/>
        </g>
      </g>
      <rect id="sizer" width="499.93599" height="499.57747" fill="none"/>
    </g>
  </g>
</svg>