<?xml version="1.0" encoding="UTF-8"?>
<svg id="Layer_2" data-name="Layer 2" xmlns="http://www.w3.org/2000/svg" viewBox="0 0 499.93599 499.57747">
  <g id="Layer_2-2" data-name="Layer 2">
    <g id="SubtitleForge">
      <rect x="18.09103" y="326.99556" width="366.7545" height="172.58191" fill="#a52683"/>
      <polygon points="488.02092 413.28651 399.09906 499.57747 399.09906 326.99556 488.02092 240.7046 488.02092 413.28651" fill="#a52683"/>
      <path d="M128.25196,0v55.56543h-54.43515v205.1774l-58.87356,56.62984h80.51879V77.46684h319.27501v219.06884l68.38001-64.65354h4.90029V0H128.25196ZM436.38228,231.88213V55.56543H149.89727V21.9014h316.47476v209.98073h-29.98976Z" fill="#a52683"/>
      <rect y="308.56189" width="41.11597" height="40.0732" fill="#f3ee07"/>
      <rect x="368.8103" y="308.56189" width="41.11597" height="40.0732" fill="#f3ee07"/>
      <rect x="458.82002" y="220.83498" width="41.11597" height="40.0732" fill="#f3ee07"/>
      <rect x="402.44402" y="48.11949" width="41.11597" height="40.0732" fill="#f3ee07"/>
      <rect x="65.29302" y="48.11949" width="41.11597" height="40.0732" fill="#f3ee07"/>
      <g>
        <path d="M215.88252,211.0707l32.56287,9.59333c-2.18763,8.90038-5.63315,16.33492-10.33518,22.30293-4.7034,5.96935-10.53959,10.47218-17.51129,13.51049-6.9717,3.03698-15.84391,4.55613-26.61594,4.55613-13.06972,0-23.74536-1.85097-32.02895-5.55158-8.28428-3.70127-15.43441-10.21165-21.44903-19.5318-6.0153-9.32082-9.02192-21.25085-9.02192-35.79143,0-19.38522,5.28996-34.28427,15.87125-44.69714,10.58061-10.41221,25.54947-15.61798,44.90657-15.61798,15.14524,0,27.05278,2.98501,35.71989,8.95302,8.66575,5.96935,15.1049,15.13625,19.31609,27.50004l-32.8083,7.11471c-1.14851-3.57001-2.3517-6.1819-3.60891-7.83431-2.07893-2.77046-4.62137-4.90261-7.62799-6.39511-3.00799-1.49184-6.37079-2.23875-10.08908-2.23875-8.42101,0-14.87383,3.3015-19.35642,9.90183-3.39151,4.89728-5.08556,12.589-5.08556,23.07383,0,12.98944,2.02219,21.89249,6.06931,26.70915,4.04643,4.81799,9.73222,7.22598,17.06078,7.22598,7.10775,0,12.47974-1.94492,16.11668-5.83542,3.63625-3.88984,6.27508-9.53936,7.91512-16.94791Z" fill="#f37c1e"/>
        <path d="M346.5435,211.0707l32.5615,9.59333c-2.18763,8.90038-5.63178,16.33492-10.33382,22.30293-4.7034,5.96935-10.54027,10.47218-17.51198,13.51049-6.9717,3.03698-15.84391,4.55613-26.61525,4.55613-13.06972,0-23.74536-1.85097-32.02964-5.55158-8.28428-3.70127-15.43373-10.21165-21.44834-19.5318-6.01598-9.32082-9.02261-21.25085-9.02261-35.79143,0-19.38522,5.28996-34.28427,15.87125-44.69714,10.57993-10.41221,25.54878-15.61798,44.90657-15.61798,15.14524,0,27.05278,2.98501,35.71989,8.95302,8.66575,5.96935,15.10422,15.13625,19.3154,27.50004l-32.80761,7.11471c-1.14851-3.57001-2.3517-6.1819-3.60959-7.83431-2.07825-2.77046-4.62137-4.90261-7.62799-6.39511-3.00799-1.49184-6.3701-2.23875-10.08771-2.23875-8.42238,0-14.87452,3.3015-19.35779,9.90183-3.39083,4.89728-5.08487,12.589-5.08487,23.07383,0,12.98944,2.02219,21.89249,6.06931,26.70915,4.04575,4.81799,9.73222,7.22598,17.06078,7.22598,7.10706,0,12.48043-1.94492,16.11736-5.83542,3.63557-3.88984,6.2744-9.53936,7.91512-16.94791Z" fill="#f37c1e"/>
      </g>
    </g>
  </g>
</svg>