<?xml version="1.0" encoding="UTF-8"?>
<svg id="Layer_2" data-name="Layer 2" xmlns="http://www.w3.org/2000/svg" viewBox="0 0 499.93599 499.57747">
  <g id="Layer_2-2" data-name="Layer 2">
    <g id="Sync-o-Tron">
      <rect x="0" y="144.31937" width="52.38501" height="210.93873" rx="26.18141" ry="26.18141" fill="#09c2f0"/>
      <rect x="60.29007" y="32.0782" width="52.38501" height="435.42106" rx="25.79756" ry="25.79756" fill="#cc3e98"/>
      <rect x="120.48553" y="102.71618" width="52.38501" height="294.1451" rx="26.18141" ry="26.18141" fill="#f58323"/>
      <rect x="250.23568" y="229.72221" width="172.55502" height="40.13304" fill="#cc3e98"/>
      <path d="M495.84107,240.81074l-63.83804-55.52996c-7.70117-6.69892-19.70892-1.22902-19.70892,8.97801v111.05989c.00001,10.20703,12.00776,15.67692,19.70893,8.97801l63.83803-55.52994c5.45301-4.74333,5.45301-13.21268,0-17.95602Z" fill="#cc3e98"/>
      <path d="M379.52339,377.35159c-69.93675,0-126.63988-56.6624-126.63988-126.549s56.70313-126.54906,126.63988-126.54906v-46.52424c-95.65717,0-173.19745,77.48467-173.19745,173.07331s77.54028,173.07324,173.19745,173.07324v-46.52424Z" fill="#cc3e98"/>
      <rect x="309.47061" y="365.18608" width="95.13199" height="95.13199" rx="13.6714" ry="13.6714" transform="translate(396.23814 -131.58482) rotate(44.97945)" fill="#fee603"/>
      <rect x="309.47061" y="39.2594" width="95.13199" height="95.13199" rx="13.6714" ry="13.6714" transform="translate(165.85586 -226.96388) rotate(44.97945)" fill="#fee603"/>
      <ellipse cx="212.10473" cy="249.78874" rx="71.14119" ry="71.09018" fill="#334bae"/>
      <ellipse cx="212.10473" cy="249.78874" rx="39.03855" ry="39.01056" fill="#fee603"/>
      <rect id="sizer" x="0" width="499.93599" height="499.57747" fill="none"/>
    </g>
  </g>
</svg>