<?xml version="1.0" encoding="UTF-8"?>
<svg id="Layer_2" data-name="Layer 2" xmlns="http://www.w3.org/2000/svg" viewBox="0 0 499.93599 499.57747">
  <g id="Layer_2-2" data-name="Layer 2">
    <g id="TextMate">
      <rect x=".00053" y="36.30491" width="101.76247" height="36.28664" fill="#03d1ed"/>
      <rect x="118.11388" y="36.30491" width="167.20887" height="36.28664" fill="#03d1ed"/>
      <rect x="408.12807" y="36.30491" width="73.41246" height="36.28664" fill="#03d1ed"/>
      <rect x="301.67362" y="36.30491" width="90.10358" height="36.28664" fill="#03d1ed"/>
      <rect x=".00053" y="108.98682" width="153.20091" height="36.28664" fill="#03d1ed"/>
      <rect x="169.55231" y="108.98682" width="79.21453" height="36.28664" fill="#03d1ed"/>
      <path d="M481.5435,108.98295v36.29208h-30.85382c-25.57818-17.80199-56.24314-27.61303-88.01882-27.61303-12.87237,0-25.57818,1.60923-37.86194,4.72791v-13.40695h156.73459Z" fill="#03d1ed"/>
      <path d="M308.4491,108.98295v18.55668c-11.87283,4.47273-23.19033,10.42152-33.68596,17.7354h-9.64041v-36.29208h43.32637Z" fill="#03d1ed"/>
      <rect x=".00053" y="180.0391" width="71.3343" height="36.28664" fill="#03d1ed"/>
      <rect x="87.68564" y="180.03557" width="131.57839" height="36.29215" fill="#03d1ed"/>
      <path d="M418.82519,216.32772h-69.22662v-22.41901c4.2982-.73247,8.67416-1.09874,13.08339-1.09874,21.19118,0,41.40498,8.52365,56.14322,23.51775Z" fill="#03d1ed"/>
      <path d="M235.6128,180.03557h3.37634c-1.16617,1.56493-2.28793,3.15201-3.37634,4.7613v-4.7613Z" fill="#03d1ed"/>
      <path d="M333.23869,198.53684v17.79088h-26.62219c1.37719-1.39842,2.8099-2.75241,4.30932-4.06203,6.675-5.83783,14.22739-10.45485,22.31287-13.72885Z" fill="#03d1ed"/>
      <path d="M209.70138,287.38041H0v-36.29215h210.22342c-1.62157,12.10845-1.77708,24.29466-.52204,36.29215Z" fill="#03d1ed"/>
      <rect x="298.82109" y="235.12091" width="50.07741" height="68.22757" fill="#cc3e98"/>
      <path d="M439.70542,287.38041h-10.20685v-36.29215h9.19613c3.17644,11.88653,3.48745,24.35014,1.01073,36.29215Z" fill="#03d1ed"/>
      <rect x="365.24937" y="235.12091" width="47.903" height="68.22757" fill="#cc3e98"/>
      <rect x=".00053" y="325.077" width="71.3343" height="36.28664" fill="#03d1ed"/>
      <path d="M211.08969,325.08202v11.97534c-.44422-.02222-.8885-.03333-1.33279-.03333-6.75269,0-13.2833,2.4528-18.37009,6.91435l-19.83615,17.42468h-83.86501v-36.28104h123.40404Z" fill="#03d1ed"/>
      <path d="M420.2135,325.08202c-1.77701,1.90898-3.67624,3.7513-5.68651,5.50489-14.33843,12.5413-32.71964,19.44461-51.75615,19.44461-16.71523,0-32.83074-5.30512-46.13628-14.92751v-10.02199h103.57894Z" fill="#03d1ed"/>
      <path d="M122.21564,396.77844v7.92429l-6.46391,5.6825c-7.17481,6.27062-12.58366,14.03958-15.90448,22.68536H0v-36.29215h122.21564Z" fill="#03d1ed"/>
      <path d="M481.5435,396.77844v36.29215h-126.19178v-8.07975c2.47672.13318,4.95351.18866,7.44135.18866h.01112c32.01992,0,63.09589-9.98866,89.01837-28.40105h29.72094Z" fill="#03d1ed"/>
      <path d="M338.99191,423.32606v9.74453h-73.44713l2.3101-2.03105c9.10732-8.01316,11.70627-20.7209,7.37472-31.37551l1.12176-.97667c18.76997,12.71892,40.21658,21.13161,62.64055,24.63871Z" fill="#03d1ed"/>
      <path d="M219.08636,216.32772h.17767v-.46612c-.06664.1554-.12215.31072-.17767.46612Z" fill="#feed03"/>
      <path d="M453.07564,374.61385c57.0307-49.86449,62.8109-136.48484,12.91067-193.47459-49.90028-56.9898-136.58279-62.76585-193.61349-12.90136-51.30498,44.85824-61.1253,119.48235-26.22534,175.504l-22.66013,19.81276-5.32427-6.08071c-4.06632-4.64404-11.13551-5.09935-15.77557-1.02758l-75.66719,66.46893c-17.16853,15.01121-18.90964,41.10225-3.88761,58.25851,15.02198,17.15621,41.1318,18.89603,58.30032,3.88482l75.70897-66.50547c4.616-4.0655,5.08528-11.09726,1.02628-15.73295l-5.0098-5.72156,22.66013-19.81276c50.93172,42.00445,126.25205,42.18619,177.55703-2.67205ZM299.95218,199.73556c39.61974-34.64131,99.8477-30.62804,134.51387,8.96328,34.66613,39.59127,30.64998,99.77605-8.96976,134.41736-39.61969,34.64127-99.83928,30.62068-134.50541-8.97059-34.66617-39.59133-30.65839-99.76878,8.9613-134.41005Z" fill="#feed03"/>
      <rect id="sizer" width="499.93599" height="499.57747" fill="none"/>
    </g>
  </g>
</svg>