<?xml version="1.0" encoding="UTF-8"?>
<svg id="Layer_2" data-name="Layer 2" xmlns="http://www.w3.org/2000/svg" viewBox="0 0 499.93599 499.57747">
  <g id="Layer_2-2" data-name="Layer 2">
    <g id="Time-Warp-a-tron">
      <path d="M248.17062,413.48385c-3.87592,0-7.80905-.1409-11.69007-.41871l-.20485-.01506,2.54996-36.20724c.10553.00753.21083.01506.31636.02304,6.74069.47852,13.56296.41871,20.22318-.17767l3.24121,36.1523c-4.77003.42668-9.62696.64335-14.43578.64335ZM180.22056,398.61689c-7.97177-3.68329-15.70189-8.05821-22.97576-13.00249l20.4298-30.01128c5.63376,3.8295,11.61913,7.21726,17.79028,10.06845l-15.24431,32.94532ZM318.37732,397.39356l-15.84068-32.66353c6.12637-2.96639,12.05986-6.46491,17.63598-10.39721l20.94369,29.65504c-7.18741,5.06923-14.83816,9.57929-22.73899,13.40569ZM116.00965,345.11951c-5.07619-7.1796-9.5937-14.8222-13.42706-22.71648l32.6781-15.8466c2.97251,6.12109,6.47621,12.04855,10.41443,17.61845l-29.66546,20.94462ZM381.66331,342.80356l-30.02306-20.43021c3.83668-5.62972,7.22953-11.60902,10.08543-17.7722l32.96098,15.24977c-3.68859,7.96207-8.07065,15.68443-13.02335,22.95264ZM87.0953,266.68053c-.43253-4.79585-.65179-9.6781-.65179-14.51072,0-3.87314.141-7.80322.41879-11.68146l.0153-.20448,36.22214,2.69877-.00842.11188c-.21549,3.01469-.32501,6.06814-.32501,9.07529,0,3.74975.16982,7.53627.50525,11.25323l-36.17625,3.25749ZM409.15504,263.91618l-36.2217-2.71074.01596-.21755c.21815-3.04526.32811-6.10292.32811-9.11495,0-3.79361-.17381-7.62422-.517-11.38571l36.17293-3.29427c.44251,4.85212.66686,9.79108.66686,14.67998,0,3.87292-.141,7.80345-.41901,11.68169l-.02616.36155ZM134.26239,199.56212l-32.97739-15.21521c3.68127-7.96761,8.05513-15.69484,12.99963-22.96682l30.0439,20.3992c-3.82959,5.63215-7.21645,11.615-10.06614,17.78284ZM360.72494,197.36668c-2.97872-6.1171-6.48906-12.04124-10.43349-17.60782l29.6444-20.97475c5.08351,7.1745,9.60922,14.81246,13.45034,22.70142l-32.66125,15.88116ZM175.7618,149.78613l-20.97473-29.63333c7.18164-5.07609,14.8273-9.59414,22.7248-13.42918l15.8757,32.64625c-6.12393,2.9737-12.0541,6.47843-17.62578,10.41626ZM318.25982,148.36519c-5.63775-3.82352-11.62711-7.20485-17.80092-10.0494l15.20928-32.96172c7.97532,3.67487,15.70987,8.04116,22.98951,12.97812l-20.39787,30.03299ZM236.54528,127.36629l-3.27668-36.14876c4.82856-.43709,9.74224-.65863,14.60449-.65863,3.87592,0,7.80927.1409,11.69029.41848l.31791.0257c-.09001-.0082-.18135-.01551-.27269-.02193l-2.53843,36.20791c-.05853-.00399-.11661-.00842-.17425-.01285-6.78037-.48052-13.64056-.4176-20.35065.19008Z" fill="#fff200"/>
      <path d="M337.70423,346.63677c-7.23407,7.22882-18.94917,7.22202-26.17644,0-3.53437-3.53184-77.00971-76.96452-77.20466-77.18429-2.13859-2.24335-3.9358-5.67023-4.54853-9.34021-.3825-2.08173-.25989-.11836-.25989-76.89458,0-10.21432,8.28726-18.49567,18.50891-18.49567s18.50394,8.28135,18.50394,18.49567v66.14081l71.17667,71.12562c7.22761,7.22243,7.22761,18.93018,0,26.15264Z" fill="#f6871f"/>
      <path d="M495.9773,298.04261l-2.18428,10.15936-13.50058-2.90196c-25.20054,104.91638-119.57327,181.25543-230.32445,181.25543-98.83377,0-182.76088-60.31614-218.37338-144.87847l-31.59462,6.35834,33.09913-98.17232,68.54252,77.7237-29.88021,6.01373c31.50356,66.85646,99.46987,112.99681,178.20656,112.99681,92.71509,0,170.12259-63.93897,191.21227-149.69344l-13.45558-2.89196,2.18428-10.15939,66.06833,14.19018Z" fill="#c84498"/>
      <path d="M499.93599,151.69067l-33.09913,98.17232-68.54252-77.7237,29.88021-6.01373C373.2503,49.56598,223.51595,16.86481,125.02399,97.82199c-33.26411,27.32643-56.78139,64.99702-66.63815,106.54856l13.47556,2.78209-2.09932,10.17436L3.57881,203.66631l2.10432-10.17436,13.52556,2.79206C57.2646,32.25108,250.50706-40.72279,387.58786,57.1995c35.1726,25.14021,63.50771,59.89915,80.75351,100.84951l31.59462-6.35834Z" fill="#c84498"/>
      <rect id="sizer" width="499.93599" height="499.57747" fill="none"/>
    </g>
  </g>
</svg>