<?xml version="1.0" encoding="UTF-8"?>
<svg id="Layer_2" data-name="Layer 2" xmlns="http://www.w3.org/2000/svg" viewBox="0 0 500 500">
  <g id="Layer_2-2" data-name="Layer 2">
    <g id="Trace-o-matic">
      <g>
        <rect x="275.56316" y=".00124" width="109.19444" height="25.57312" rx="12.78386" ry="12.78386" fill="#fff200"/>
        <rect x="275.56316" y="43.50542" width="159.4147" height="25.57312" rx="12.78386" ry="12.78386" fill="#fbd33c"/>
        <rect x="275.56316" y="387.23888" width="147.27029" height="25.57312" rx="12.78386" ry="12.78386" fill="#ab3187"/>
        <rect x="275.56316" y="84.54717" width="176.98733" height="25.57312" rx="12.78386" ry="12.78386" fill="#fda763"/>
        <rect x="275.56316" y="126.75031" width="205.31117" height="25.57312" rx="12.78386" ry="12.78386" fill="#fe7196"/>
        <rect x="275.56316" y="303.45619" width="205.31117" height="25.57312" rx="12.78386" ry="12.78386" fill="#d10ecf"/>
        <rect x="274.5779" y="344.5851" width="181.5838" height="25.57312" rx="12.78386" ry="12.78386" fill="#d147a8"/>
        <rect x="275.56316" y="171.82752" width="218.31631" height="25.57312" rx="12.78386" ry="12.78386" fill="#fe3bc7"/>
        <rect x="275.51614" y="217.62721" width="224.48386" height="25.57312" rx="12.78386" ry="12.78386" fill="#ff00fe"/>
        <rect x="275.51614" y="262.39529" width="218.36333" height="25.57312" rx="12.78386" ry="12.78386" fill="#e806e8"/>
        <rect x="115.2424" y=".00124" width="109.19444" height="25.57312" rx="12.78386" ry="12.78386" transform="translate(339.67923 25.57561) rotate(-180)" fill="#fff200"/>
        <rect x="65.02214" y="43.50542" width="159.4147" height="25.57312" rx="12.78386" ry="12.78386" transform="translate(289.45898 112.58396) rotate(-180)" fill="#fbd33c"/>
        <rect x="77.16654" y="387.23888" width="147.27029" height="25.57312" rx="12.78386" ry="12.78386" transform="translate(301.60338 800.05088) rotate(-180)" fill="#ab3187"/>
        <rect x="47.44951" y="84.54717" width="176.98733" height="25.57312" rx="12.78386" ry="12.78386" transform="translate(271.88634 194.66745) rotate(-180)" fill="#fda763"/>
        <rect x="19.12566" y="126.75031" width="205.31117" height="25.57312" rx="12.78386" ry="12.78386" transform="translate(243.5625 279.07374) rotate(-180)" fill="#fe7196"/>
        <rect x="19.12566" y="303.45619" width="205.31117" height="25.57312" rx="12.78386" ry="12.78386" transform="translate(243.5625 632.48549) rotate(-180)" fill="#d10ecf"/>
        <rect x="43.8383" y="344.5851" width="181.5838" height="25.57312" rx="12.78386" ry="12.78386" transform="translate(269.2604 714.74332) rotate(-180)" fill="#d147a8"/>
        <rect x="6.12053" y="171.82752" width="218.31631" height="25.57312" rx="12.78386" ry="12.78386" transform="translate(230.55736 369.22816) rotate(-180)" fill="#fe3bc7"/>
        <rect x="0" y="217.62721" width="224.48386" height="25.57312" rx="12.78386" ry="12.78386" transform="translate(224.48386 460.82755) rotate(-180)" fill="#ff00fe"/>
        <rect x="6.12053" y="262.39529" width="218.36333" height="25.57312" rx="12.78386" ry="12.78386" transform="translate(230.60439 550.36369) rotate(-180)" fill="#e806e8"/>
      </g>
      <path d="M291.51677,456.64047v3.72048c0,2.26945-1.84313,4.1092-4.11675,4.1092h-9.66884c-2.76401,0-5.00468,2.23656-5.00468,4.9955h0c0,2.97861-2.41907,5.39324-5.40313,5.39324h-.87234c-2.76401,0-5.00468,2.23656-5.00468,4.9955v20.14562h-24.07429v-20.14562c0-2.75894-2.24067-4.9955-5.00468-4.9955h-.87234c-2.98407,0-5.40313-2.41463-5.40313-5.39322h0c0-2.75895-2.24067-4.99551-5.00468-4.99551h-9.66884c-2.27362,0-4.11675-1.83975-4.11675-4.1092v-3.69116c0-2.89548,1.20563-5.66072,3.32842-7.63407l16.19897-15.05857c6.7241-6.25073,10.54302-15.00981,10.54302-24.18147V12.01009c0-6.63299,5.38698-12.01009,12.03216-12.01009h.00998c6.64518,0,12.03216,5.3771,12.03216,12.01009v397.6458c0,9.1413,3.79436,17.87505,10.47987,24.12253,6.41611,5.99575,12.65035,11.83974,16.30333,15.26648,2.10185,1.97167,3.28721,4.71649,3.28721,7.59557Z" fill="#ff1d25"/>
    </g>
  </g>
</svg>