<?xml version="1.0" encoding="UTF-8"?>
<svg id="Layer_2" data-name="Layer 2" xmlns="http://www.w3.org/2000/svg" viewBox="0 0 499.93599 499.57747">
  <g id="Layer_2-2" data-name="Layer 2">
    <g id="Triminator-start-end-offset">
      <path d="M499.88602,334.99589h-39.98688v-59.93731h39.98688v59.93731ZM442.40487,334.99589h-39.98688v-59.93731h39.98688v59.93731ZM384.92373,334.99589h-39.98688v-59.93731h39.98688v59.93731ZM327.44258,334.99589h-39.98688v-59.93731h39.98688v59.93731ZM269.96144,334.99589h-39.98688v-59.93731h39.98688v59.93731ZM212.48029,334.99589h-39.98688v-59.93731h39.98688v59.93731ZM154.99915,334.99589h-39.98688v-59.93731h39.98688v59.93731ZM97.518,334.99589h-39.98688v-59.93731h39.98688v59.93731ZM40.03686,334.99589H.04997v-59.93731h39.98688v59.93731Z" fill="#f6871f"/>
      <rect x="131.52174" y="252.58208" width="306.16984" height="104.8903" fill="#cc4097"/>
      <polygon points="131.52171 240.61034 73.62044 140.39431 189.42298 140.39431 131.52171 240.61034" fill="#fff200"/>
      <polygon points="437.69158 240.61034 379.79028 140.39427 495.59287 140.39427 437.69158 240.61034" fill="#fff200"/>
      <path d="M412.69534,201.48441l-71.07843-41.01114v27.30192h-99.76498l-58.40204-34.76656v96.49917l57.66119-34.31417h100.50582v27.30878l71.07843-41.018ZM235.35592,209.0382l-43.67461,25.99267v-67.5453l43.67461,25.99953,13.06744,7.77996-13.06744,7.77315Z" fill="#f6871f"/>
      <path d="M337.16487,133.27684l9.97776,19.73179-66.39574-3.71279,36.41161-55.60956,8.4217,16.66002c3.35983-6.7973,5.13816-14.3181,5.13816-22.09277,0-27.53188-22.41983-49.92932-49.97147-49.92932-12.9057,0-24.94129,4.89965-33.99179,13.28994,2.81359,5.07103,3.88059,11.13844,2.59767,17.25661-2.84538,13.54382-16.1385,22.21971-29.68564,19.38277-13.55354-2.83698-22.23566-16.12057-19.39668-29.66435,2.71199-12.9028,14.91267-21.3883,27.77391-19.7001,13.38204-14.29272,32.28331-22.77822,52.70253-22.77822,39.8095,0,72.20077,32.36173,72.20077,72.14268,0,16.52037-5.56368,32.27282-15.78279,45.02331Z" fill="#f6871f"/>
      <path d="M248.24906,151.79186c-2.93,0-5.762-1.15808-7.85872-3.25298l-24.66808-24.65038c-4.34042-4.33762-4.34042-11.36978,0-15.7074,4.34042-4.33731,11.37763-4.33731,15.71867,0l14.70738,14.69683,23.95418-38.98649c3.21159-5.22764,10.05653-6.86234,15.28699-3.65399,5.23108,3.2096,6.86851,10.049,3.6563,15.27633l-31.32446,50.98258c-1.78008,2.89784-4.79071,4.82075-8.16976,5.21896-.43479.05144-.87019.07654-1.3025.07654Z" fill="#19b14b"/>
      <rect id="sizer" width="499.93599" height="499.57747" fill="none"/>
    </g>
  </g>
</svg>