<?xml version="1.0" encoding="UTF-8"?>
<svg id="Layer_2" data-name="Layer 2" xmlns="http://www.w3.org/2000/svg" viewBox="0 0 499.93599 499.57747">
  <g id="Layer_2-2" data-name="Layer 2">
    <g id="Triminator-start-end">
      <path d="M499.88602,335.85134h-39.98688v-59.93731h39.98688v59.93731ZM442.40487,335.85134h-39.98688v-59.93731h39.98688v59.93731ZM384.92373,335.85134h-39.98688v-59.93731h39.98688v59.93731ZM327.44258,335.85134h-39.98688v-59.93731h39.98688v59.93731ZM269.96144,335.85134h-39.98688v-59.93731h39.98688v59.93731ZM212.48029,335.85134h-39.98688v-59.93731h39.98688v59.93731ZM154.99915,335.85134h-39.98688v-59.93731h39.98688v59.93731ZM97.518,335.85134h-39.98688v-59.93731h39.98688v59.93731ZM40.03686,335.85134H.04997v-59.93731h39.98688v59.93731Z" fill="#f6871f"/>
      <rect x="131.52174" y="253.43754" width="306.16984" height="104.8903" fill="#cc4097"/>
      <polygon points="131.52171 241.4657 73.62044 141.24967 189.42298 141.24967 131.52171 241.4657" fill="#fff200"/>
      <polygon points="437.69158 241.4657 379.79028 141.24963 495.59287 141.24963 437.69158 241.4657" fill="#fff200"/>
      <path d="M412.69534,201.48007l-71.07843-40.22399v26.7779h-99.76498l-58.40204-34.09927v94.64701l57.66119-33.65556h100.50582v26.78463l71.07843-40.23072ZM235.35592,208.88887l-43.67461,26.14199v-67.5453l43.67461,26.14872,13.06744,7.63064-13.06744,7.62395Z" fill="#f6871f"/>
      <rect id="sizer" width="499.93599" height="499.57747" fill="none"/>
    </g>
  </g>
</svg>