<?xml version="1.0" encoding="UTF-8"?>
<svg id="Layer_2" data-name="Layer 2" xmlns="http://www.w3.org/2000/svg" viewBox="0 0 499.93599 499.57747">
  <g id="Layer_2-2" data-name="Layer 2">
    <g id="Triminator-end">
      <path d="M499.88602,334.85151h-39.98688v-59.93731h39.98688v59.93731ZM442.40487,334.85151h-39.98688v-59.93731h39.98688v59.93731ZM384.92373,334.85151h-39.98688v-59.93731h39.98688v59.93731ZM327.44258,334.85151h-39.98688v-59.93731h39.98688v59.93731ZM269.96144,334.85151h-39.98688v-59.93731h39.98688v59.93731ZM212.48029,334.85151h-39.98688v-59.93731h39.98688v59.93731ZM154.99915,334.85151h-39.98688v-59.93731h39.98688v59.93731ZM97.518,334.85151h-39.98688v-59.93731h39.98688v59.93731ZM40.03686,334.85151H.04997v-59.93731h39.98688v59.93731Z" fill="#f6871f"/>
      <rect x="131.52174" y="252.4377" width="306.16984" height="104.8903" fill="#cc4097"/>
      <polygon points="131.52171 240.46562 73.62044 140.2496 189.42298 140.2496 131.52171 240.46562" fill="#fff200"/>
      <polygon points="437.69158 240.46562 379.79028 140.24956 495.59287 140.24956 437.69158 240.46562" fill="#fff200"/>
      <rect id="sizer" width="499.93599" height="499.57747" fill="none"/>
    </g>
  </g>
</svg>