<?xml version="1.0" encoding="UTF-8"?>
<svg id="Layer_2" data-name="Layer 2" xmlns="http://www.w3.org/2000/svg" viewBox="0 0 499.93599 499.57747">
  <g id="Layer_2-2" data-name="Layer 2">
    <g id="Valu-a-tron">
      <path d="M499.93596,484.93985c-4.84948,12.35954-8.27909,14.63761-22.08758,14.63761h-163.0922v-37.49828h145.4741v-148.87409h39.70565v171.72475l.00003.01Z" fill="#93278f"/>
      <path d="M183.05058,0c.13998,11.69011.37996,23.38023.23998,35.06035-.00999.95919-2.54972,2.64776-3.96957,2.69772-7.55917.25978-15.13835.10991-22.71752.09991-36.90597-.02997-73.81194-.05995-110.71791-.08992h-6.45929v148.29458H.11056v-5.76513C.11056,127.12248.24055,73.94745.00058,20.77242-.04942,10.89079,3.15023,3.74683,12.96916,0h170.08142Z" fill="#93278f"/>
      <path d="M499.93596,186.36238h-39.3057V37.46831h-145.96404V0h172.1112c7.04922,2.65775,11.45874,7.51365,13.15857,14.63762v171.72475l-.00003.00002Z" fill="#93278f"/>
      <path d="M342.62316,208.71347c-9.77893,39.38669-50.18452,72.54864-93.05984,72.41875-48.12475.4696-95.61956-43.60312-94.74966-94.1004.8699-49.95775,41.05551-86.88651,96.34948-86.14714,50.98444.67943,94.34969,33.26188,93.69977,90.64334-.07,5.80509-.8399,11.56023-2.23975,17.18546M249.69331,235.58075c26.64708.03996,47.94477-20.33281,47.93477-45.83123-.01001-25.23865-21.26767-45.67136-47.5848-45.75131-26.35712-.07993-47.82478,20.25287-47.93477,45.41159-.10999,25.58836,21.0577,46.13098,47.5848,46.17096Z" fill="red"/>
      <path d="M39.37627,313.41491v148.6443h143.56432v37.24849c-1.57983.08992-3.04967.24979-4.51951.24979-53.31418.01-106.62835.01997-159.95253,0-11.35876,0-18.328-6.55445-18.338-17.58513-.05999-55.12336-.03-110.24675-.02-165.37014,0-.94921.10999-1.89839.19998-3.19731h39.05574l.01.01Z" fill="#93278f"/>
      <path d="M158.73323,368.16862v29.4451h-23.8074v-73.72765c.79992-.18984,1.73982-.5995,2.66971-.5895,15.33832.1399,30.68665.08992,46.00497.60947,11.70873.38969,19.29789,6.80424,20.61774,16.41611,1.54983,11.33041-3.62961,19.63339-14.74839,23.65998-.59994.21982-1.17986.48958-2.21976.90923,13.37854,7.28385,15.75827,21.22204,23.7274,32.87219-9.29899,0-17.4881.1299-25.66719-.1399-1.15988-.03997-2.58971-1.81847-3.33963-3.09739-4.21954-7.2039-8.2191-14.51772-12.39864-21.74162-2.25975-3.9167-5.62939-5.82506-10.85881-4.62609l.02.01006ZM159.0132,353.79077c5.40941-.38969,10.55884-.50958,15.61829-1.199,4.13955-.55952,5.73938-3.45707,5.66938-7.37377-.07999-4.02659-2.75969-6.04488-6.28931-6.37461-4.91946-.4596-9.91891-.11989-14.99836-.11989v15.06727Z" fill="#f0f"/>
      <path d="M216.79689,323.2566h58.93355c1.31986,0,2.62972.1299,4.22955.21982v15.66674h-39.09574v11.85996h36.16606v15.31703h-36.24604v14.4178h40.26559v16.71587h-64.25299v-74.19726l.00002.00003Z" fill="#f0f"/>
      <path d="M364.01081,345.34793c-6.99924,1.48873-13.54851,2.88757-20.36777,4.33633-2.89968-6.00493-6.88926-10.44118-14.44843-10.22137-6.42929.17984-11.42874,3.22728-13.54851,9.07231-3.04965,8.42287-2.75971,16.99564.14,25.33859,1.7698,5.0957,6.05934,7.49366,11.67872,7.8034,6.3393.35968,11.24877-1.69858,14.13847-7.31382,1.03989-2.00831,1.7398-4.18646,2.82968-6.86419,6.72928,1.93836,13.40854,3.85672,20.00782,5.75514-1.38986,13.56851-12.50864,24.00969-27.82695,25.39853-6.61927.5995-13.53853.18984-20.07779-.98915-12.58862-2.2581-20.23778-10.43118-24.22736-21.76159-6.3293-17.97479-1.31986-37.61818,11.70871-47.09018,20.39777-14.82746,52.94423-6.07485,60.00345,16.536h-.01004Z" fill="#f0f"/>
    </g>
  </g>
</svg>