<?xml version="1.0" encoding="UTF-8"?>
<svg id="Layer_2" data-name="Layer 2" xmlns="http://www.w3.org/2000/svg" viewBox="0 0 499.93599 499.57747">
  <g id="Layer_2-2" data-name="Layer 2">
    <g id="VertexMaster">
      <path d="M409.30624,376.68959l-27.94643,28.58581-126.42248-123.43376c14.70814-1.12905,28.44637-7.19393,39.38497-17.41526l114.98394,112.26321Z" fill="#fff200"/>
      <path d="M246.96838,281.96154l-129.05618,123.31386-28.07642-28.46591,116.67776-111.53385c11.20859,10.18139,25.3568,16.02642,40.45484,16.6859Z" fill="#fff200"/>
      <path d="M434.84862,499.57747l-65.08737-66.19792,65.08737-66.19792,65.08737,66.19792-65.08737,66.19792ZM425.83025,433.37955l9.01838,9.17193,9.01838-9.17193-9.01838-9.17193-9.01838,9.17193Z" fill="#f6871f"/>
      <path d="M282.79381,183.0552l-.11003-.11989c-8.78885-8.79261-20.41737-13.62849-32.77577-13.62849h-.18998c-12.33845.04995-23.90691,4.92583-32.57585,13.74838l-.10997.10989c-17.60773,18.19463-17.57777,47.6097.05999,65.60449,1.08989,1.12905,2.22969,2.18815,3.41955,3.17731,5.15937,4.36636,11.13859,7.48372,17.55775,9.19224,3.75953,1.00916,7.66906,1.53874,11.65854,1.54868h.17997c3.40954,0,6.74914-.36968,9.99872-1.09905,7.61902-1.67857,14.67811-5.29551,20.62736-10.62102.76992-.67942,1.52977-1.39878,2.25972-2.14815l.10997-.10995c17.62775-18.21457,17.57777-47.66964-.10997-65.65443ZM245.72855,211.00153c1.42981-1.41878,3.0496-1.72852,4.14943-1.72852,1.1799-.02,2.87964.30974,4.43943,1.84841,2.50969,2.60778,2.45971,7.03409-.10997,9.74176-1.54979,1.54868-3.20955,1.87842-4.31945,1.85841-1.07982,0-2.66964-.31968-4.10946-1.79847l-.10997-.10989c-2.55967-2.60778-2.5197-7.07403.05999-9.81171ZM282.79381,183.0552l-.11003-.11989c-8.78885-8.79261-20.41737-13.62849-32.77577-13.62849h-.18998c-12.33845.04995-23.90691,4.92583-32.57585,13.74838l-.10997.10989c-17.60773,18.19463-17.57777,47.6097.05999,65.60449,1.08989,1.12905,2.22969,2.18815,3.41955,3.17731,5.15937,4.36636,11.13859,7.48372,17.55775,9.19224,3.75953,1.00916,7.66906,1.53874,11.65854,1.54868h.17997c3.40954,0,6.74914-.36968,9.99872-1.09905,7.61902-1.67857,14.67811-5.29551,20.62736-10.62102.76992-.67942,1.52977-1.39878,2.25972-2.14815l.10997-.10995c17.62775-18.21457,17.57777-47.66964-.10997-65.65443ZM245.72855,211.00153c1.42981-1.41878,3.0496-1.72852,4.14943-1.72852,1.1799-.02,2.87964.30974,4.43943,1.84841,2.50969,2.60778,2.45971,7.03409-.10997,9.74176-1.54979,1.54868-3.20955,1.87842-4.31945,1.85841-1.07982,0-2.66964-.31968-4.10946-1.79847l-.10997-.10989c-2.55967-2.60778-2.5197-7.07403.05999-9.81171Z" fill="#bd10e0"/>
      <path d="M65.08737,499.57747L0,433.37955l65.08737-66.19792,65.08737,66.19792-65.08737,66.19792ZM56.06899,433.37955l9.01838,9.17193,9.01838-9.17193-9.01838-9.17193-9.01838,9.17193Z" fill="#f6871f"/>
      <polygon points="459.04767 235.98041 314.86435 235.98041 314.86435 196.01421 419.05279 196.01421 419.05279 39.9662 270.14022 39.9662 270.14022 151.38338 230.14534 151.38338 230.14534 0 459.04767 0 459.04767 235.98041" fill="#bd10e0"/>
    </g>
  </g>
</svg>