<?xml version="1.0" encoding="UTF-8"?><svg id="Layer_2" xmlns="http://www.w3.org/2000/svg" viewBox="0 0 963.99 789.45"><defs><style>.cls-1{stroke:#cc4097;}.cls-1,.cls-2{fill:none;stroke-miterlimit:10;stroke-width:30px;}.cls-2{stroke:#f6871f;}.cls-3{fill:#2d429b;}</style></defs><g id="Layer_1-2"><g><g><rect class="cls-2" x="504.91" y="-14.62" width="115.84" height="561.82" rx="57.92" ry="57.92" transform="translate(-57.85 315.74) rotate(-29.87)"/><rect class="cls-2" x="724.42" y="57.73" width="115.84" height="494.13" rx="57.92" ry="57.92" transform="translate(1247.33 1003.89) rotate(-144.91)"/><circle class="cls-3" cx="452.23" cy="73.75" r="24.94"/><circle class="cls-3" cx="673.75" cy="459.38" r="24.94"/><circle class="cls-3" cx="892.25" cy="148.33" r="24.94"/><g><g><line class="cls-1" x1="946.27" y1="101.11" x2="838.24" y2="195.54"/><polyline class="cls-1" points="944.52 123.23 946.26 101.1 924.4 99.63"/><polyline class="cls-1" points="839.98 173.42 838.25 195.55 860.1 197.02"/></g><g><line class="cls-1" x1="939.47" y1="202.34" x2="845.03" y2="94.31"/><polyline class="cls-1" points="917.34 200.59 939.48 202.33 940.95 180.47"/><polyline class="cls-1" points="867.16 96.06 845.02 94.32 843.55 116.18"/></g></g></g><g><path class="cls-2" d="M394.7,82.97l11.98,437.25c.89,31.98,27.53,57.18,59.5,56.29h0c31.98-.89,57.18-27.53,56.29-59.5l-5.97-215.09"/><path class="cls-2" d="M151.63,749.69h0c19,25.74,55.26,31.2,81,12.2l266.53-197.11c25.74-19,31.2-55.26,12.2-81h0c-19-25.74-55.26-31.2-81-12.2l-266.53,197.11c-25.74,19-31.2,55.26-12.2,81Z"/><rect class="cls-2" x="83.95" y="352.02" width="115.84" height="432.17" rx="57.92" ry="57.92" transform="translate(-187.68 84.1) rotate(-20.23)"/><circle class="cls-3" cx="452.23" cy="73.75" r="24.94"/><circle class="cls-3" cx="464.57" cy="518.31" r="24.94"/><circle class="cls-3" cx="196.56" cy="716.51" r="24.94"/><circle class="cls-3" cx="87.17" cy="419.66" r="24.94"/><g><g><line class="cls-1" x1="19.95" y1="444.73" x2="154.39" y2="394.59"/><polyline class="cls-1" points="40.25 453.71 19.95 444.72 29.05 424.79"/><polyline class="cls-1" points="134.09 385.61 154.4 394.6 145.3 414.53"/></g><g><line class="cls-1" x1="112.24" y1="486.88" x2="62.1" y2="352.44"/><polyline class="cls-1" points="121.22 466.58 112.23 486.89 92.3 477.78"/><polyline class="cls-1" points="53.12 372.74 62.12 352.43 82.04 361.54"/></g></g></g></g></g></svg>