<?xml version="1.0" encoding="UTF-8"?><svg id="Layer_2" xmlns="http://www.w3.org/2000/svg" viewBox="0 0 964.46 941.76"><g id="Layer_1-2"><path d="M493.03,70.24v354.11l-45.03-63.75V70.24c0-12.43,10.07-22.51,22.51-22.51s22.51,10.09,22.51,22.51Z" fill="#fff200" stroke-width="0"/><path d="M493.03,580.43v338.81c0,12.43-10.07,22.51-22.51,22.51s-22.51-10.09-22.51-22.51v-402.56l45.03,63.75Z" fill="#fff200" stroke-width="0"/><path d="M546.67,120.83c-5.76,0-11.52-2.2-15.92-6.59l-59.88-59.88-59.88,59.88c-8.79,8.79-23.05,8.79-31.84,0s-8.79-23.05,0-31.84L454.95,6.59c8.79-8.79,23.05-8.79,31.84,0l75.8,75.8c8.79,8.79,8.79,23.05,0,31.84-4.4,4.4-10.16,6.59-15.92,6.59Z" fill="#fff200" stroke-width="0"/><path d="M314.22,448.01l97.61,45.03H22.51c-12.44,0-22.51-10.09-22.51-22.51s10.07-22.51,22.51-22.51h291.71Z" fill="#fff200" stroke-width="0"/><path d="M894.02,470.52c0,12.43-10.09,22.51-22.51,22.51h-244.71l-97.6-45.03h342.31c12.43,0,22.51,10.07,22.51,22.51Z" fill="#fff200" stroke-width="0"/><path d="M843.43,569.19c-5.76,0-11.52-2.2-15.92-6.59-8.79-8.79-8.79-23.05,0-31.84l59.88-59.88-59.88-59.88c-8.79-8.79-8.79-23.05,0-31.84,8.79-8.79,23.05-8.79,31.84,0l75.8,75.8c4.22,4.22,6.59,9.95,6.59,15.92s-2.37,11.7-6.59,15.92l-75.8,75.8c-4.4,4.4-10.16,6.59-15.92,6.59Z" fill="#fff200" stroke-width="0"/><path d="M693.82,809.16c-7.07,0-14.02-3.32-18.41-9.53L228.84,167.38c-7.17-10.16-4.76-24.2,5.4-31.38,10.15-7.17,24.2-4.76,31.38,5.4l446.56,632.25c7.17,10.16,4.76,24.2-5.4,31.38-3.95,2.79-8.48,4.13-12.97,4.13Z" fill="#cc4097" stroke-width="0"/><path d="M821.93,655.17c-3.16,0-6.36-.67-9.42-2.08L109.65,328.83c-11.29-5.21-16.22-18.58-11.01-29.87,5.21-11.29,18.58-16.22,29.87-11.01l702.86,324.27c11.29,5.21,16.22,18.58,11.01,29.87-3.8,8.24-11.95,13.09-20.46,13.09Z" fill="#cc4097" stroke-width="0"/><path d="M802.8,678.63h52.11l27.1,47.1,26.37-47.1h51.59l-47.65,74.14,52.14,78.95h-53.15l-30.23-49.19-30.23,49.19h-52.84l52.81-79.78-48-73.31Z" fill="#f6871f" stroke-width="0"/><path d="M599.02,1.3h52.55l30.84,51.65,30.91-51.65h52.26l-59.52,88.97v64.12h-47.41v-64.12L599.02,1.3Z" fill="#f6871f" stroke-width="0"/></g></svg>