<?xml version="1.0" encoding="UTF-8"?><svg id="b" data-name="Layer 2" xmlns="http://www.w3.org/2000/svg" width="404.16" height="500" xmlns:xlink="http://www.w3.org/1999/xlink" viewBox="0 0 404.16 500">  <defs>    <linearGradient id="d" x1="202.08" y1="49.93" x2="202.08" y2="413.75" gradientUnits="userSpaceOnUse">      <stop offset=".07" stop-color="#fcee21"/>      <stop offset=".57" stop-color="#f0f"/>      <stop offset="1" stop-color="#93278f"/>    </linearGradient>  </defs>  <g id="c" data-name="Layer 1">    <g>      <g>        <g>          <g>            <path d="m12.16,241.26c4.54-.64,152.44-.68,156.97,0,15,2.25,15.98,20.04,2.26,22.56-4.7.86-156.04.87-160.73,0-13.77-2.54-15.16-20.21,1.5-22.56Z" fill="#8e370e" stroke-width="0"/>            <path d="m13.67,201.4c4.58-.87,153.9-.88,158.48,0,11.57,2.23,12.42,19.43.75,21.81-4.57.93-153.91.94-158.48,0-11.5-2.37-13.35-19.42-.75-21.81Z" fill="#8e370e" stroke-width="0"/>            <path d="m13.67,281.12c4.54-.87,153.19-.93,157.72,0,11.25,2.31,13.46,19.34,0,21.81-4.51.83-152.46.83-156.97,0-12.48-2.3-12.7-19.51-.75-21.81Z" fill="#8e370e" stroke-width="0"/>            <path d="m76.09,160.79c8.6.04,94.47-1.56,100.57,3.01,7.73,5.8,5.79,17.74-3.76,20.31-3.96,1.06-143.17.76-147.2,0-9.64-1.82-14.96-16.15-5.26-21.06,3.6-1.82,47.69-2.29,55.65-2.26" fill="#8e370e" stroke-width="0"/>            <path d="m24.95,317.22c3.98-.79,142.45-.75,146.44,0,11.86,2.23,14.52,19.38,1.5,21.81-3.99.75-142.45.76-146.44,0-12.28-2.36-13.62-19.41-1.5-21.81Z" fill="#8e370e" stroke-width="0"/>            <path d="m47.51,353.32c2.82-.45,119.57-.51,122.38,0,12.57,2.3,14.84,19.29,3.01,21.81-3.16.67-126.74.69-129.9,0-10.22-2.24-11.5-19.26,4.51-21.81Z" fill="#8e370e" stroke-width="0"/>            <path d="m45.26,124.69c3.05-.68,124.59-.66,127.64,0,10.07,2.17,11.9,19.34-1.5,21.81-2.85.52-120.29.57-123.13,0-11.93-2.4-13.42-19.49-3.01-21.81Z" fill="#8e370e" stroke-width="0"/>            <path d="m59.55,88.59c2.39-.53,111.72-.52,114.1,0,9.87,2.17,10.42,19.42-2.26,21.81-2.11.4-105.98.38-108.09,0-13.51-2.44-13.93-19.54-3.76-21.81Z" fill="#9c4612" stroke-width="0"/>            <path d="m100.02,50.32c2.39-.53,71.24-.52,73.63,0,9.87,2.17,10.42,19.42-2.26,21.81-2.11.4-65.5.38-67.61,0-13.51-2.44-13.93-19.54-3.76-21.81Z" fill="#9c4612" stroke-width="0"/>            <path d="m73.84,390.17c3.44-.57,97.04-.18,99.81.75,10.08,3.37,10.78,20.29-3.76,22.56-3.61.56-96.82.17-99.81-.75-12.99-3.98-8.44-20.55,3.76-22.56Z" fill="#8e370e" stroke-width="0"/>          </g>          <g>            <path d="m391.99,241.26c-4.54-.64-152.44-.68-156.97,0-15,2.25-15.98,20.04-2.26,22.56,4.7.86,156.04.87,160.73,0,13.77-2.54,15.16-20.21-1.5-22.56Z" fill="#8e370e" stroke-width="0"/>            <path d="m390.49,201.4c-4.58-.87-153.9-.88-158.48,0-11.57,2.23-12.42,19.43-.75,21.81,4.57.93,153.91.94,158.48,0,11.5-2.37,13.35-19.42.75-21.81Z" fill="#8e370e" stroke-width="0"/>            <path d="m390.49,281.12c-4.54-.87-153.19-.93-157.72,0-11.25,2.31-13.46,19.34,0,21.81,4.51.83,152.46.83,156.97,0,12.48-2.3,12.7-19.51.75-21.81Z" fill="#8e370e" stroke-width="0"/>            <path d="m328.06,160.79c-8.6.04-94.47-1.56-100.57,3.01-7.73,5.8-5.79,17.74,3.76,20.31,3.96,1.06,143.17.76,147.2,0,9.64-1.82,14.96-16.15,5.26-21.06-3.6-1.82-47.69-2.29-55.65-2.26Z" fill="#8e370e" stroke-width="0"/>            <path d="m379.21,317.22c-3.98-.79-142.45-.75-146.44,0-11.86,2.23-14.52,19.38-1.5,21.81,3.99.75,142.45.76,146.44,0,12.28-2.36,13.62-19.41,1.5-21.81Z" fill="#8e370e" stroke-width="0"/>            <path d="m356.64,353.32c-2.82-.45-119.57-.51-122.38,0-12.57,2.3-14.84,19.29-3.01,21.81,3.16.67,126.74.69,129.9,0,10.22-2.24,11.5-19.26-4.51-21.81Z" fill="#8e370e" stroke-width="0"/>            <path d="m358.9,124.69c-3.05-.68-124.59-.66-127.64,0-10.07,2.17-11.9,19.34,1.5,21.81,2.85.52,120.29.57,123.13,0,11.93-2.4,13.42-19.49,3.01-21.81Z" fill="#8e370e" stroke-width="0"/>            <path d="m344.61,88.59c-2.39-.53-111.72-.52-114.1,0-9.87,2.17-10.42,19.42,2.26,21.81,2.11.4,105.98.38,108.09,0,13.51-2.44,13.93-19.54,3.76-21.81Z" fill="#9c4612" stroke-width="0"/>            <path d="m304.13,50.32c-2.39-.53-71.24-.52-73.63,0-9.87,2.17-10.42,19.42,2.26,21.81,2.11.4,65.5.38,67.61,0,13.51-2.44,13.93-19.54,3.76-21.81Z" fill="#9c4612" stroke-width="0"/>            <path d="m330.32,390.17c-3.44-.57-97.04-.18-99.81.75-10.08,3.37-10.78,20.29,3.76,22.56,3.61.56,96.82.17,99.81-.75,12.99-3.98,8.44-20.55-3.76-22.56Z" fill="#8e370e" stroke-width="0"/>          </g>        </g>        <g>          <g>            <path d="m12.16,241.26c4.54-.64,152.44-.68,156.97,0,15,2.25,15.98,20.04,2.26,22.56-4.7.86-156.04.87-160.73,0-13.77-2.54-15.16-20.21,1.5-22.56Z" fill="url(#d)" stroke-width="0"/>            <path d="m13.67,201.4c4.58-.87,153.9-.88,158.48,0,11.57,2.23,12.42,19.43.75,21.81-4.57.93-153.91.94-158.48,0-11.5-2.37-13.35-19.42-.75-21.81Z" fill="url(#d)" stroke-width="0"/>            <path d="m13.67,281.12c4.54-.87,153.19-.93,157.72,0,11.25,2.31,13.46,19.34,0,21.81-4.51.83-152.46.83-156.97,0-12.48-2.3-12.7-19.51-.75-21.81Z" fill="url(#d)" stroke-width="0"/>            <path d="m76.09,160.79c8.6.04,94.47-1.56,100.57,3.01,7.73,5.8,5.79,17.74-3.76,20.31-3.96,1.06-143.17.76-147.2,0-9.64-1.82-14.96-16.15-5.26-21.06,3.6-1.82,47.69-2.29,55.65-2.26" fill="url(#d)" stroke-width="0"/>            <path d="m24.95,317.22c3.98-.79,142.45-.75,146.44,0,11.86,2.23,14.52,19.38,1.5,21.81-3.99.75-142.45.76-146.44,0-12.28-2.36-13.62-19.41-1.5-21.81Z" fill="url(#d)" stroke-width="0"/>            <path d="m47.51,353.32c2.82-.45,119.57-.51,122.38,0,12.57,2.3,14.84,19.29,3.01,21.81-3.16.67-126.74.69-129.9,0-10.22-2.24-11.5-19.26,4.51-21.81Z" fill="url(#d)" stroke-width="0"/>            <path d="m45.26,124.69c3.05-.68,124.59-.66,127.64,0,10.07,2.17,11.9,19.34-1.5,21.81-2.85.52-120.29.57-123.13,0-11.93-2.4-13.42-19.49-3.01-21.81Z" fill="url(#d)" stroke-width="0"/>            <path d="m59.55,88.59c2.39-.53,111.72-.52,114.1,0,9.87,2.17,10.42,19.42-2.26,21.81-2.11.4-105.98.38-108.09,0-13.51-2.44-13.93-19.54-3.76-21.81Z" fill="url(#d)" stroke-width="0"/>            <path d="m100.02,50.32c2.39-.53,71.24-.52,73.63,0,9.87,2.17,10.42,19.42-2.26,21.81-2.11.4-65.5.38-67.61,0-13.51-2.44-13.93-19.54-3.76-21.81Z" fill="url(#d)" stroke-width="0"/>            <path d="m73.84,390.17c3.44-.57,97.04-.18,99.81.75,10.08,3.37,10.78,20.29-3.76,22.56-3.61.56-96.82.17-99.81-.75-12.99-3.98-8.44-20.55,3.76-22.56Z" fill="url(#d)" stroke-width="0"/>          </g>          <g>            <path d="m391.99,241.26c-4.54-.64-152.44-.68-156.97,0-15,2.25-15.98,20.04-2.26,22.56,4.7.86,156.04.87,160.73,0,13.77-2.54,15.16-20.21-1.5-22.56Z" fill="url(#d)" stroke-width="0"/>            <path d="m390.49,201.4c-4.58-.87-153.9-.88-158.48,0-11.57,2.23-12.42,19.43-.75,21.81,4.57.93,153.91.94,158.48,0,11.5-2.37,13.35-19.42.75-21.81Z" fill="url(#d)" stroke-width="0"/>            <path d="m390.49,281.12c-4.54-.87-153.19-.93-157.72,0-11.25,2.31-13.46,19.34,0,21.81,4.51.83,152.46.83,156.97,0,12.48-2.3,12.7-19.51.75-21.81Z" fill="url(#d)" stroke-width="0"/>            <path d="m328.06,160.79c-8.6.04-94.47-1.56-100.57,3.01-7.73,5.8-5.79,17.74,3.76,20.31,3.96,1.06,143.17.76,147.2,0,9.64-1.82,14.96-16.15,5.26-21.06-3.6-1.82-47.69-2.29-55.65-2.26Z" fill="url(#d)" stroke-width="0"/>            <path d="m379.21,317.22c-3.98-.79-142.45-.75-146.44,0-11.86,2.23-14.52,19.38-1.5,21.81,3.99.75,142.45.76,146.44,0,12.28-2.36,13.62-19.41,1.5-21.81Z" fill="url(#d)" stroke-width="0"/>            <path d="m356.64,353.32c-2.82-.45-119.57-.51-122.38,0-12.57,2.3-14.84,19.29-3.01,21.81,3.16.67,126.74.69,129.9,0,10.22-2.24,11.5-19.26-4.51-21.81Z" fill="url(#d)" stroke-width="0"/>            <path d="m358.9,124.69c-3.05-.68-124.59-.66-127.64,0-10.07,2.17-11.9,19.34,1.5,21.81,2.85.52,120.29.57,123.13,0,11.93-2.4,13.42-19.49,3.01-21.81Z" fill="url(#d)" stroke-width="0"/>            <path d="m344.61,88.59c-2.39-.53-111.72-.52-114.1,0-9.87,2.17-10.42,19.42,2.26,21.81,2.11.4,105.98.38,108.09,0,13.51-2.44,13.93-19.54,3.76-21.81Z" fill="url(#d)" stroke-width="0"/>            <path d="m304.13,50.32c-2.39-.53-71.24-.52-73.63,0-9.87,2.17-10.42,19.42,2.26,21.81,2.11.4,65.5.38,67.61,0,13.51-2.44,13.93-19.54,3.76-21.81Z" fill="url(#d)" stroke-width="0"/>            <path d="m330.32,390.17c-3.44-.57-97.04-.18-99.81.75-10.08,3.37-10.78,20.29,3.76,22.56,3.61.56,96.82.17,99.81-.75,12.99-3.98,8.44-20.55-3.76-22.56Z" fill="url(#d)" stroke-width="0"/>          </g>        </g>      </g>      <path d="m203.41,0c-7.77,0-10.01,5.88-10.01,22.05,0,0,1.2,377.12,1.2,383.37,0,15.83-12.51,31.08-24.3,39.46-5.32,3.77-6.69,7.55-6.69,12.24,0,4.41.67,6.8,3.32,6.8h11.85c1.85,0,3.02,1.14,3.02,3.02v3.68c0,1.61,1.05,3.08,3.08,3.08h3.94c1.44,0,2.6,1.16,2.6,2.6v18.61c0,2.81,2.28,5.08,5.08,5.08h6.9s6.9,0,6.9,0c2.81,0,5.08-2.28,5.08-5.08v-18.61c0-1.44,1.16-2.6,2.6-2.6h3.94c2.03,0,3.08-1.47,3.08-3.08v-3.68c0-1.89,1.17-3.02,3.02-3.02h11.85c2.65,0,3.32-2.39,3.32-6.8,0-4.69-1.38-8.46-6.69-12.24-11.79-8.37-24.3-23.63-24.3-39.46,0-6.25,1.2-383.37,1.2-383.37C213.42,5.88,211.18,0,203.41,0Z" fill="#ff1d25" stroke-width="0"/>    </g>  </g></svg>