<?xml version="1.0" encoding="UTF-8"?><svg id="Layer_2" xmlns="http://www.w3.org/2000/svg" viewBox="0 0 987.48 967.63"><defs><style>.cls-1{stroke-dasharray:0 0 12 70;}.cls-1,.cls-2{fill:none;stroke:#cc4097;stroke-linecap:round;stroke-linejoin:round;stroke-width:50px;}.cls-3{fill:#f6871f;}</style></defs><g id="Layer_1-2"><g><path class="cls-1" d="M218.83,63.19c83.8,0,74.48,613.26,189.67,613.26,133.55,0,100.17-464.75,211.24-464.75,62.34,0,90.45,231.5,152.92,231.5s78.53-137.06,156.42-137.06"/><path class="cls-2" d="M58.41,908.71S67.72,42.77,218.83,63.19"/><rect class="cls-3" x="17.11" y="867.91" width="82.6" height="82.6" transform="translate(660.02 225) rotate(45)"/><rect class="cls-3" x="182.31" y="17.11" width="82.6" height="82.6" transform="translate(106.79 -141.01) rotate(45)"/><rect class="cls-3" x="372.26" y="633.3" width="82.6" height="82.6" transform="translate(598.14 -94.85) rotate(45)"/><rect class="cls-3" x="576.44" y="157.62" width="82.6" height="82.6" transform="translate(321.59 -378.55) rotate(45)"/><rect class="cls-3" x="739.43" y="414.45" width="82.6" height="82.6" transform="translate(550.93 -418.57) rotate(45)"/><rect class="cls-3" x="887.77" y="264.84" width="82.6" height="82.6" transform="translate(488.6 -567.29) rotate(45)"/></g></g></svg>