<?xml version="1.0" encoding="UTF-8"?><svg id="Layer_2" xmlns="http://www.w3.org/2000/svg" viewBox="0 0 800 813.16"><defs><style>.cls-1{fill:#f6871f;fill-rule:evenodd;}</style></defs><g id="Layer_1-2"><g><path class="cls-1" d="M252.63,252.63h378.95v56.14H308.77v449.12h-56.14V252.63Z"/><path class="cls-1" d="M701.75,238.6c-23.25,0-42.11,18.85-42.11,42.11s18.85,42.11,42.11,42.11,42.11-18.85,42.11-42.11-18.85-42.11-42.11-42.11Zm-98.25,42.11c0-54.26,43.99-98.25,98.25-98.25s98.25,43.99,98.25,98.25-43.99,98.25-98.25,98.25-98.25-43.99-98.25-98.25Z"/><path class="cls-1" d="M0,0H729.82V207.02h-56.14V56.14H56.14V813.16H0V0ZM673.68,505.26v-144.74h56.14v200.88h-168.42v251.75h-56.14V505.26h168.42Z"/></g></g></svg>