<?xml version="1.0" encoding="UTF-8"?><svg id="Layer_2" xmlns="http://www.w3.org/2000/svg" viewBox="0 0 800 800"><defs><style>.cls-1{fill:#f6871f;fill-rule:evenodd;}</style></defs><g id="Layer_1-2"><g><path class="cls-1" d="M248.01,248.01h206.67v55.11h-151.56v440.9h-55.11V248.01Z"/><path class="cls-1" d="M417.21,55.11c-41.09,0-77.27,0-141.65,0-99.14,0-220.45,74.16-220.45,220.45V800s0,0-27.56,0-27.56,0-27.56,0V275.57C0,91.17,154.26,0,275.57,0c64.31,0,100.48,0,141.51,0,29.3,0,61.08,0,107.36,0,63.96,0,132.39,31.29,184.44,79.72,52.32,48.69,91.13,117.58,91.13,195.84,0,143.7-108.85,260.47-248.01,274.21v250.22h-55.11V496.02h27.56c121.77,0,220.45-97.95,220.45-220.45,0-59.52-29.65-114.63-73.56-155.5-44.19-41.13-99.76-64.95-146.89-64.95s-77.96,0-107.22,0Z"/><path class="cls-1" d="M523.57,234.23c-22.83,0-41.33,18.51-41.33,41.33s18.51,41.33,41.33,41.33,41.33-18.51,41.33-41.33-18.51-41.33-41.33-41.33Zm-96.45,41.33c0-53.27,43.18-96.45,96.45-96.45s96.45,43.18,96.45,96.45-43.18,96.45-96.45,96.45-96.45-43.18-96.45-96.45Z"/></g></g></svg>