<?xml version="1.0" encoding="UTF-8"?><svg id="Layer_2" xmlns="http://www.w3.org/2000/svg" viewBox="0 0 992.74 993.8"><defs><style>.cls-1{fill:#fff200;stroke:#fff200;stroke-width:53.82px;}.cls-1,.cls-2,.cls-3,.cls-4,.cls-5{stroke-linejoin:round;}.cls-6{fill:#cc4097;}.cls-2{stroke-linecap:round;}.cls-2,.cls-3,.cls-4,.cls-5{fill:none;stroke:#cc4097;stroke-width:110px;}.cls-3,.cls-4,.cls-5{stroke-linecap:square;}.cls-4{stroke-dasharray:0 0 0 0 10.13 162.14 .01 0;}.cls-5{stroke-dasharray:0 0 .01 0;}</style></defs><g id="Layer_1-2"><g><g><path class="cls-3" d="M937.74,536.76c0,1.67-.01,3.34-.03,5"/><path class="cls-5" d="M903.6,699.16s0,0,0,.01"/><path class="cls-4" d="M903.59,699.17c-62.4,141.14-203.64,239.63-367.89,239.63H138.68"/><line class="cls-3" x1="138.66" y1="938.8" x2="133.66" y2="938.8"/></g><path class="cls-2" d="M133.66,134.72h402.04c222.04,0,402.04,180,402.04,402.04h0"/><polygon class="cls-6" points="0 134.72 233.34 269.43 233.34 0 0 134.72"/></g><polygon class="cls-1" points="621.51 765.14 451.58 674.66 283.83 769.1 317.38 579.53 175.72 449.17 366.38 422.5 446.58 247.49 530.86 420.57 722.09 442.77 583.52 576.41 621.51 765.14"/></g></svg>