<?xml version="1.0" encoding="UTF-8"?><svg id="Layer_2" xmlns="http://www.w3.org/2000/svg" viewBox="0 0 992.1 994.28"><defs><style>.cls-1{fill:#f6871f;stroke:#f6871f;}.cls-1,.cls-2{stroke-width:39.5px;}.cls-1,.cls-2,.cls-3,.cls-4{stroke-miterlimit:10;}.cls-2{fill:#fff200;stroke:#fff200;}.cls-3{stroke-dasharray:0 0 11.68 29.19;stroke-linecap:round;stroke-width:21.4px;}.cls-3,.cls-4{fill:none;stroke:#cc4097;}.cls-4{stroke-width:21.26px;}</style></defs><g id="Layer_1-2"><g><rect class="cls-4" x="10.63" y="137.07" width="846.59" height="846.59" rx="52.91" ry="52.91"/><path class="cls-3" d="M932.96,10.7H206.45c-26.7,0-48.43,21.74-48.43,48.43s21.74,48.43,48.43,48.43H884.53V785.64c0,26.7,21.74,48.43,48.43,48.43s48.43-21.74,48.43-48.43V59.14c0-26.7-21.74-48.43-48.43-48.43Z"/><g><rect class="cls-1" x="254.71" y="257.03" width="109.27" height="109.27" transform="translate(310.98 -127.45) rotate(45)"/><rect class="cls-1" x="83.86" y="754.42" width="109.27" height="109.27" transform="translate(612.65 139.04) rotate(45)"/><polygon class="cls-1" points="265.98 649.89 210.13 649.89 138.5 560.36 210.13 470.83 265.98 470.83 194.35 560.36 265.98 649.89"/><rect class="cls-2" x="674.71" y="754.42" width="109.27" height="109.27" transform="translate(-358.47 752.69) rotate(-45)"/><rect class="cls-2" x="492.43" y="257.03" width="109.27" height="109.27" transform="translate(-60.15 478.12) rotate(-45)"/><polygon class="cls-2" points="601.86 470.83 657.71 470.83 729.35 560.36 657.71 649.89 601.86 649.89 673.5 560.36 601.86 470.83"/></g></g></g></svg>