<?xml version="1.0" encoding="UTF-8"?><svg id="Layer_2" xmlns="http://www.w3.org/2000/svg" viewBox="0 0 992.1 994.28"><defs><style>.cls-1{fill:#f6871f;stroke:#f6871f;}.cls-1,.cls-2{stroke-width:39.5px;}.cls-1,.cls-2,.cls-3,.cls-4{stroke-miterlimit:10;}.cls-2{fill:#fff200;stroke:#fff200;}.cls-3{stroke-dasharray:0 0 11.68 29.19;stroke-linecap:round;stroke-width:21.4px;}.cls-3,.cls-4{fill:none;stroke:#cc4097;}.cls-4{stroke-width:21.26px;}</style></defs><g id="Layer_1-2"><g><rect class="cls-4" x="10.63" y="137.07" width="846.59" height="846.59" rx="52.91" ry="52.91"/><path class="cls-3" d="M932.96,10.7H206.45c-26.7,0-48.43,21.74-48.43,48.43s21.74,48.43,48.43,48.43H884.53V785.64c0,26.7,21.74,48.43,48.43,48.43s48.43-21.74,48.43-48.43V59.14c0-26.7-21.74-48.43-48.43-48.43Z"/><g><rect class="cls-1" x="303.77" y="265.01" width="109.27" height="109.27" transform="translate(331 -159.81) rotate(45)"/><rect class="cls-1" x="121.48" y="746.44" width="109.27" height="109.27" transform="translate(618.03 110.09) rotate(45)"/><polygon class="cls-1" points="315.04 657.87 259.19 657.87 187.56 568.34 259.19 478.81 315.04 478.81 243.41 568.34 315.04 657.87"/><rect class="cls-2" x="637.09" y="265.01" width="109.27" height="109.27" transform="translate(428.62 -395.5) rotate(45)"/><rect class="cls-2" x="454.8" y="746.44" width="109.27" height="109.27" transform="translate(715.66 -125.6) rotate(45)"/><polygon class="cls-2" points="648.36 657.87 592.51 657.87 520.87 568.34 592.51 478.81 648.36 478.81 576.73 568.34 648.36 657.87"/></g></g></g></svg>