<?xml version="1.0" encoding="UTF-8"?><svg id="Layer_2" xmlns="http://www.w3.org/2000/svg" viewBox="0 0 455.76 455.76"><defs><style>.cls-1{fill:#e37326;}.cls-2{fill:#2d429b;}.cls-3{stroke:#e61577;stroke-linecap:round;stroke-width:8px;}.cls-3,.cls-4{fill:none;stroke-miterlimit:10;}.cls-4{stroke:#2d429b;stroke-width:10px;}</style></defs><g id="Layer_1-2"><path class="cls-1" d="M121.88,408.9c-14.47-.04-26.23-11.83-26.23-26.29v-31.63c.04-14.43,11.8-26.19,26.22-26.23h76.44c14.47,0,26.25,11.79,26.26,26.25v6.25h180.04c.1,0,.2,0,.3,0,3.35,0,6.5,1.79,8.21,4.66,1.82,3.03,1.82,6.8,0,9.83-1.71,2.86-4.85,4.65-8.2,4.65-.11,0-.21,0-.32,0H224.57v6.25c-.02,14.47-11.79,26.25-26.26,26.26H121.88Zm76.42-19.16c3.92,0,7.13-3.21,7.13-7.14v-31.96c-.18-3.77-3.31-6.79-7.13-6.79h-9.65v45.89h9.65Zm-28.78,0v-45.89h-18.87v45.89h18.87Zm-54.77-7.13c0,3.93,3.21,7.13,7.14,7.13h9.63v-45.89h-9.65c-3.93,0-7.13,3.2-7.13,7.13v31.62Zm117.33-86.64c-14.47,0-26.25-11.78-26.26-26.26v-6.24H103.14c-5.28,0-9.57-4.29-9.57-9.57s4.29-9.57,9.57-9.57h102.67v-6.24c0-14.48,11.78-26.26,26.26-26.26h76.44c14.47,.01,26.24,11.79,26.26,26.26v6.24h69.94c5.28,0,9.57,4.29,9.57,9.57s-4.29,9.57-9.57,9.57h-69.94v6.24c-.01,14.47-11.79,26.25-26.25,26.26h-76.44Zm76.39-19.13c3.93,0,7.13-3.21,7.13-7.14v-32.35c-.38-3.59-3.42-6.4-7.1-6.4h-9.65v45.88h9.61Zm-28.79,0v-45.88h-18.86v45.88h18.86Zm-54.73-7.14c0,3.93,3.21,7.13,7.13,7.14h9.61v-45.88h-9.65c-3.93,0-7.13,3.21-7.13,7.14v27.3l.04,4.31Zm86.64-86.62c-14.47-.01-26.25-11.79-26.26-26.25v-6.25H103.2c-.1,0-.2,0-.31,0-3.34,0-6.49-1.78-8.21-4.65-1.82-3.03-1.82-6.8,0-9.84,1.71-2.87,4.86-4.65,8.21-4.65,.1,0,.2,0,.31,0h182.12v-6.25c0-14.48,11.77-26.27,26.26-26.29h76.44c14.47,.04,26.23,11.83,26.23,26.29v31.63c-.02,14.44-11.78,26.22-26.22,26.26h-76.44Zm28.74-19.14l18.92-.03v-45.85h-18.92v45.88Zm47.69-.04c3.91,0,7.11-3.19,7.13-7.1v-31.61c0-1.92-.73-3.72-2.08-5.07-1.35-1.35-3.14-2.1-5.06-2.11h-9.64v45.89h9.65Zm-83.56-7.1c.02,3.91,3.22,7.1,7.13,7.1h9.66v-45.84h-9.69c-3.93,0-7.13,3.21-7.14,7.14v28.49l.04,3.11Z"/><rect class="cls-4" x="63.86" y="63.86" width="380.09" height="380.09"/><circle class="cls-3" cx="63.86" cy="63.86" r="27.79"/><rect class="cls-2" x="432.15" y="52.05" width="23.61" height="23.61"/><rect class="cls-2" x="432.15" y="432.15" width="23.61" height="23.61"/><rect class="cls-2" x="52.05" y="432.15" width="23.61" height="23.61"/><rect class="cls-2" x="52.05" y="52.05" width="23.61" height="23.61"/><line class="cls-3" x1="63.86" y1="4" x2="63.86" y2="20.63"/><line class="cls-3" x1="106.18" y1="21.53" x2="94.43" y2="33.29"/><line class="cls-3" x1="123.71" y1="63.86" x2="107.09" y2="63.86"/><line class="cls-3" x1="106.18" y1="106.18" x2="94.43" y2="94.43"/><line class="cls-3" x1="63.86" y1="123.71" x2="63.86" y2="107.09"/><line class="cls-3" x1="21.53" y1="106.18" x2="33.29" y2="94.43"/><line class="cls-3" x1="4" y1="63.86" x2="20.63" y2="63.86"/><line class="cls-3" x1="21.53" y1="21.53" x2="33.29" y2="33.29"/></g></svg>