<?xml version="1.0" encoding="UTF-8"?><svg id="Layer_2" xmlns="http://www.w3.org/2000/svg" viewBox="0 0 992.1 994.28"><defs><style>.cls-1,.cls-2,.cls-3{fill:#2d429b;}.cls-4{fill:#f6871f;stroke:#f6871f;stroke-width:32.45px;}.cls-4,.cls-2,.cls-5,.cls-6,.cls-3,.cls-7{stroke-miterlimit:10;}.cls-2{stroke-width:3.56px;}.cls-2,.cls-3{stroke:#2d429b;}.cls-5{stroke-dasharray:0 0 11.68 29.19;stroke-linecap:round;stroke-width:21.4px;}.cls-5,.cls-6,.cls-7{fill:none;stroke:#cc4097;}.cls-6{stroke-width:46.32px;}.cls-3{stroke-width:1.47px;}.cls-7{stroke-width:21.26px;}</style></defs><g id="Layer_1-2"><g><rect class="cls-7" x="10.63" y="137.07" width="846.59" height="846.59" rx="52.91" ry="52.91"/><path class="cls-5" d="M932.96,10.7H206.45c-26.7,0-48.43,21.74-48.43,48.43s21.74,48.43,48.43,48.43H884.53V785.64c0,26.7,21.74,48.43,48.43,48.43s48.43-21.74,48.43-48.43V59.14c0-26.7-21.74-48.43-48.43-48.43Z"/><path class="cls-4" d="M147.68,791.24h-38.95l-69.65-211.69c-4.69-14.26-4.6-33.05,.22-47.12l69.43-202.48h38.35c10.88,0,17.22,25.38,10.93,43.73l-54.44,158.75c-4.83,14.07-4.91,32.86-.22,47.12l55.41,168.41c6.05,18.39-.32,43.28-11.08,43.28Z"/><path class="cls-4" d="M722.64,791.24h38.95s69.65-211.69,69.65-211.69c4.69-14.26,4.6-33.05-.22-47.12l-69.43-202.48h-38.35c-10.88,0-17.22,25.38-10.93,43.73l54.44,158.75c4.83,14.07,4.91,32.86,.22,47.12l-55.41,168.41c-6.05,18.39,.32,43.28,11.08,43.28Z"/><path class="cls-6" d="M181.06,713.57c134.32,0,120.64-276.13,252.32-276.7s96.46,276.7,255.89,276.7"/><g><polygon class="cls-3" points="438.31 471.95 403.78 437.52 438.31 403.1 472.83 437.52 438.31 471.95"/><line class="cls-2" x1="185.57" y1="437.52" x2="684.76" y2="437.52"/><rect class="cls-1" x="678.47" y="431.25" width="12.58" height="12.54"/><rect class="cls-1" x="179.28" y="431.25" width="12.58" height="12.54"/></g></g></g></svg>