<?xml version="1.0" encoding="UTF-8"?><svg id="Layer_2" xmlns="http://www.w3.org/2000/svg" viewBox="0 0 280.83 232.79"><defs><style>.cls-1{fill:#f7931e;}</style></defs><g id="Layer_1-2"><polygon class="cls-1" points="59.24 222.68 45.02 208.46 20.69 232.79 0 212.1 24.33 187.77 10.11 173.55 77.23 155.56 59.24 222.68"/><polygon class="cls-1" points="59.24 10.11 45.02 24.33 20.69 0 0 20.69 24.33 45.02 10.11 59.24 77.23 77.23 59.24 10.11"/><polygon class="cls-1" points="270.71 59.24 256.49 45.02 280.83 20.69 260.14 0 235.8 24.33 221.58 10.11 203.6 77.23 270.71 59.24"/><polygon class="cls-1" points="270.71 173.55 256.49 187.77 280.83 212.1 260.14 232.79 235.8 208.46 221.58 222.68 203.6 155.56 270.71 173.55"/><polygon class="cls-1" points="140.15 59.84 160.01 95.04 199.62 103.04 172.28 132.8 176.91 172.95 140.15 156.15 103.4 172.95 108.03 132.8 80.68 103.04 120.3 95.04 140.15 59.84"/></g></svg>