<?xml version="1.0" encoding="UTF-8"?><svg id="Layer_2" xmlns="http://www.w3.org/2000/svg" viewBox="0 0 280.83 232.79"><defs><style>.cls-1{fill:#f7931e;}</style></defs><g id="Layer_1-2"><g><polygon class="cls-1" points="67.12 17.99 52.9 32.21 77.23 56.54 56.54 77.23 32.21 52.9 17.99 67.12 0 0 67.12 17.99"/><polygon class="cls-1" points="67.12 214.8 52.9 200.58 77.23 176.25 56.54 155.56 32.21 179.89 17.99 165.67 0 232.79 67.12 214.8"/></g><g><polygon class="cls-1" points="213.71 17.99 227.93 32.21 203.6 56.54 224.29 77.23 248.62 52.9 262.84 67.12 280.83 0 213.71 17.99"/><polygon class="cls-1" points="213.71 214.8 227.93 200.58 203.6 176.25 224.29 155.56 248.62 179.89 262.84 165.67 280.83 232.79 213.71 214.8"/></g><polygon class="cls-1" points="142.39 59.84 162.25 95.04 201.86 103.04 174.52 132.8 179.15 172.95 142.39 156.15 105.64 172.95 110.27 132.8 82.92 103.04 122.54 95.04 142.39 59.84"/></g></svg>