<?xml version="1.0" encoding="utf-8"?><!-- Generator: Adobe Illustrator 27.9.0, SVG Export Plug-In . SVG Version: 6.00 Build 0)  --><svg version="1.1" id="Layer_1" xmlns="http://www.w3.org/2000/svg" xmlns:xlink="http://www.w3.org/1999/xlink" x="0px" y="0px"	 viewBox="0 0 309 274.5" style="enable-background:new 0 0 309 274.5;" xml:space="preserve"><style type="text/css">	.st0{display:none;}	.st1{display:inline;fill:none;stroke:#FFF200;stroke-width:15;stroke-miterlimit:10;}	.st2{display:inline;fill:none;stroke:#FFF200;stroke-width:20;stroke-miterlimit:10;}	.st3{display:inline;fill:none;stroke:#F6871F;stroke-width:15;stroke-miterlimit:10;}	.st4{display:inline;fill:none;stroke:#BD10E0;stroke-width:20;stroke-miterlimit:10;}	.st5{display:inline;fill:none;stroke:#BD10E0;stroke-width:15;stroke-miterlimit:10;}	.st6{display:inline;}	.st7{fill:none;stroke:#F6871F;stroke-width:15;stroke-miterlimit:10;}	.st8{fill:none;stroke:#FF00FF;stroke-width:10;stroke-miterlimit:10;}	.st9{fill:none;stroke:#FFF200;stroke-width:15;stroke-miterlimit:10;}	.st10{fill:none;stroke:#F6C41B;stroke-width:15;stroke-miterlimit:10;}	.st11{fill:none;stroke:#E4688F;stroke-width:15;stroke-miterlimit:10;}	.st12{fill:none;stroke:#BD10E0;stroke-width:15;stroke-miterlimit:10;}</style><g class="st0">	<path class="st1" d="M292.9,217.9"/>	<line class="st2" x1="181.5" y1="144.3" x2="248.6" y2="214.1"/>	<line class="st2" x1="61.3" y1="214.1" x2="130.2" y2="144.3"/>			<rect x="256.6" y="223.1" transform="matrix(0.7071 0.7071 -0.7071 0.7071 248.8511 -122.7292)" class="st3" width="31.9" height="31.9"/>	<path class="st4" d="M143.6,130.6L143.6,130.6c-6.2-6.2-6.2-16.3,0-22.6l0,0c6.2-6.2,16.3-6.2,22.6,0l0,0c6.2,6.2,6.2,16.3,0,22.6		l0,0C159.9,136.9,149.8,136.9,143.6,130.6z"/>			<rect x="20.5" y="223.1" transform="matrix(0.7071 0.7071 -0.7071 0.7071 179.6978 44.2216)" class="st3" width="31.9" height="31.9"/>	<polyline class="st4" points="185.7,119.3 269.9,119.3 269.9,12.3 154.9,12.3 154.9,90.1 	"/>	<path class="st5" d="M194.3,80.7"/>	<path class="st5" d="M163.5,80.7"/>	<path class="st5" d="M163.5,51.5"/></g><g class="st0">	<path class="st3" d="M155.5,245.3c2.2,6.5,4,13.1,5.4,19.8"/>	<path class="st3" d="M121.6,181.9c4.6,6.2,9,12.6,13.1,19.2"/>	<path class="st3" d="M70.2,129.2c6.3,5.1,12.6,10.5,18.6,16.2"/>	<path class="st3" d="M10.6,92.9c5.8,2.5,11.7,5.3,17.7,8.5"/>	<circle class="st1" cx="50.5" cy="113.6" r="13.2"/>	<circle class="st1" cx="106.5" cy="162.4" r="13.2"/>	<circle class="st1" cx="145.7" cy="222.6" r="13.2"/>	<g class="st6">		<line class="st7" x1="165.8" y1="120.9" x2="256.9" y2="47"/>					<rect x="266.7" y="20.9" transform="matrix(0.9896 0.1436 -0.1436 0.9896 7.421 -39.512)" class="st8" width="21.6" height="21.6"/>					<rect x="133.9" y="125.8" transform="matrix(0.9896 0.1436 -0.1436 0.9896 21.1199 -19.3666)" class="st8" width="21.6" height="21.6"/>	</g>	<g class="st6">		<line class="st7" x1="213.3" y1="200.4" x2="260.4" y2="186.2"/>					<rect x="274" y="167.5" transform="matrix(0.8894 0.4572 -0.4572 0.8894 113.0324 -110.4932)" class="st8" width="21.6" height="21.6"/>					<rect x="177.5" y="197.7" transform="matrix(0.8894 0.4572 -0.4572 0.8894 116.1422 -63.0338)" class="st8" width="21.6" height="21.6"/>	</g>	<g class="st6">		<line class="st7" x1="90.9" y1="51.5" x2="94.7" y2="42"/>		<rect x="98" y="9.8" transform="matrix(0.9798 -0.2002 0.2002 0.9798 -1.9232 22.2062)" class="st8" width="21.6" height="21.6"/>					<rect x="65.6" y="62.6" transform="matrix(0.9798 -0.2002 0.2002 0.9798 -13.1554 16.7927)" class="st8" width="21.6" height="21.6"/>	</g></g><g>	<g>		<rect x="46.4" y="15.4" class="st9" width="99.1" height="116.4"/>		<polyline class="st10" points="159.5,44.7 174.8,44.7 174.8,161.1 75.7,161.1 75.7,146.1 		"/>		<polyline class="st7" points="188.8,73.9 204.1,73.9 204.1,190.3 105,190.3 105,175.4 		"/>		<polyline class="st11" points="218,103.2 233.3,103.2 233.3,219.6 134.2,219.6 134.2,204 		"/>		<polyline class="st12" points="248,132.5 262.6,132.5 262.6,248.9 163.5,248.9 163.5,234.9 		"/>	</g></g></svg>