<?xml version="1.0" encoding="UTF-8"?><svg id="b" data-name="Layer 2" xmlns="http://www.w3.org/2000/svg" width="963.87" height="658.94" viewBox="0 0 963.87 658.94">  <g id="c" data-name="Layer 1">    <g>      <g>        <rect x="249.66" y="113.32" width="432.3" height="432.3" rx="24.66" ry="24.66" transform="translate(-96.54 425.88) rotate(-45)" fill="#f6871f" stroke="#f26921" stroke-miterlimit="10" stroke-width="60"/>        <rect x="307.19" y="113.32" width="432.3" height="432.3" rx="24.66" ry="24.66" transform="translate(-79.69 466.56) rotate(-45)" fill="#fbaa19" stroke="#f8961d" stroke-miterlimit="10" stroke-width="60"/>        <rect x="364.72" y="113.32" width="432.3" height="432.3" rx="24.66" ry="24.66" transform="translate(-62.84 507.24) rotate(-45)" fill="#ffcd03" stroke="#ffc30d" stroke-miterlimit="10" stroke-width="60"/>        <rect x="422.25" y="113.32" width="432.3" height="432.3" rx="24.66" ry="24.66" transform="translate(-45.99 547.92) rotate(-45)" fill="#fff200" stroke="#fff200" stroke-miterlimit="10" stroke-width="60"/>      </g>      <g>        <path d="M546.49,418.13l-199.59,199.59c-9.63,9.63-25.24,9.63-34.87,0L41.22,346.91c-9.63-9.63-9.63-25.24,0-34.87L312.03,41.22c9.63-9.63,25.24-9.63,34.87,0l30.66,30.66" fill="none" stroke="#cc4097" stroke-miterlimit="10" stroke-width="68"/>        <polygon points="422.53 350.29 684.52 280.11 614.34 542.1 422.53 350.29" fill="#cc4097" stroke-width="0"/>      </g>    </g>  </g></svg>