<?xml version="1.0" encoding="UTF-8"?><svg id="b" data-name="Layer 2" xmlns="http://www.w3.org/2000/svg" width="962.2" height="915.07" viewBox="0 0 962.2 915.07">  <g id="c" data-name="Layer 1">    <g>      <g>        <path d="M446.81,838.14h0c-40.15,23.06-91.39,9.21-114.45-30.94L31.73,375.62c-34.59-60.22-13.82-137.09,46.4-171.68h0c60.22-34.59,137.09-13.82,171.68,46.4l227.93,473.34c23.06,40.15,9.21,91.39-30.94,114.45Z" fill="none" stroke="#f6871f" stroke-miterlimit="10" stroke-width="30"/>        <circle cx="137.62" cy="299.94" r="30.08" fill="#2d429b" stroke-width="0"/>        <circle cx="404.83" cy="765.09" r="30.08" fill="#2d429b" stroke-width="0"/>        <g>          <path d="M916.28,818.61h0c-2.86,26.86-26.95,46.31-53.81,43.45l-466.85-13.68c-46.04-4.9-79.39-46.2-74.49-92.24h0c4.9-46.04,46.2-79.39,92.24-74.49l459.45,83.15c26.86,2.86,46.31,26.95,43.45,53.81Z" fill="none" stroke="#f6871f" stroke-miterlimit="10" stroke-width="30"/>          <g>            <g>              <line x1="942.16" y1="843" x2="779.36" y2="784.28" fill="none" stroke="#cc4097" stroke-miterlimit="10" stroke-width="30"/>              <polyline points="917.8 854.1 942.17 842.98 930.93 819.07" fill="none" stroke="#cc4097" stroke-miterlimit="10" stroke-width="30"/>              <polyline points="803.72 773.18 779.35 784.29 790.59 808.21" fill="none" stroke="#cc4097" stroke-miterlimit="10" stroke-width="30"/>            </g>            <g>              <line x1="831.4" y1="895.04" x2="890.12" y2="732.24" fill="none" stroke="#cc4097" stroke-miterlimit="10" stroke-width="30"/>              <polyline points="820.3 870.68 831.42 895.05 855.33 883.81" fill="none" stroke="#cc4097" stroke-miterlimit="10" stroke-width="30"/>              <polyline points="901.22 756.6 890.11 732.23 866.19 743.47" fill="none" stroke="#cc4097" stroke-miterlimit="10" stroke-width="30"/>            </g>          </g>        </g>      </g>      <g>        <path d="M894.81,442.43c-.05,20.02-16.37,36.3-36.38,36.3h-43.78c-19.97-.05-36.24-16.33-36.29-36.28v-105.79c.01-20.02,16.31-36.32,36.33-36.34h8.66V51.18c0-.14,0-.28,0-.42,0-4.63,2.47-8.99,6.45-11.37,4.19-2.52,9.41-2.51,13.61,0,3.96,2.37,6.43,6.72,6.43,11.34,0,.15,0,.3,0,.44v249.13h8.65c20.02.02,36.32,16.32,36.34,36.34v105.77ZM868.29,336.68c0-5.43-4.44-9.86-9.88-9.87h-44.23c-5.22.25-9.4,4.58-9.4,9.87v13.35h63.51v-13.35ZM868.29,376.5h-63.51v26.11h63.51v-26.11ZM858.42,452.29c5.43,0,9.86-4.44,9.87-9.88v-13.33h-63.51v13.35c0,5.44,4.43,9.87,9.87,9.87h38.88l4.88-.02ZM738.53,289.94c0,20.03-16.31,36.33-36.34,36.34h-8.64v142.08c0,7.3-5.94,13.24-13.24,13.24s-13.24-5.94-13.24-13.24v-142.08h-8.63c-20.03,0-36.33-16.31-36.34-36.33v-105.78c.02-20.02,16.32-36.32,36.33-36.34h8.64V51.05c0-7.3,5.94-13.24,13.24-13.24s13.24,5.94,13.24,13.24v96.79h8.63c20.02.02,36.32,16.32,36.34,36.33v105.78ZM712.06,184.23c0-5.43-4.44-9.86-9.88-9.87h-44.76c-4.96.52-8.85,4.73-8.86,9.82v13.35h63.49v-13.3ZM712.06,224.07h-63.49v26.1h63.49v-26.1ZM702.18,299.81c5.44,0,9.87-4.44,9.88-9.87v-13.3h-63.49v13.35c0,5.44,4.44,9.87,9.87,9.87h37.77l5.97-.05ZM582.31,179.91c-.02,20.02-16.32,36.32-36.33,36.34h-8.66v252.02c0,.14,0,.28,0,.42,0,4.63-2.47,8.98-6.44,11.36-4.2,2.52-9.41,2.52-13.61,0-3.97-2.37-6.44-6.73-6.44-11.36,0-.14,0-.28,0-.42v-252.02h-8.65c-20.04,0-36.36-16.29-36.38-36.34v-105.78c.05-20.02,16.37-36.3,36.38-36.3h43.78c19.99.03,36.28,16.3,36.34,36.28v105.79ZM555.82,140.14l-.05-26.19h-63.45v26.19h63.49ZM555.76,74.14c0-5.41-4.41-9.84-9.83-9.86h-43.74c-2.66,0-5.15,1.01-7.02,2.88-1.87,1.87-2.91,4.35-2.91,7v13.34h63.51v-13.35ZM545.94,189.78c5.42-.03,9.82-4.45,9.83-9.87v-13.36h-63.44v13.41c.01,5.44,4.44,9.87,9.87,9.88h39.42l4.31-.05Z" fill="#fff200" stroke-width="0"/>        <rect x="414.28" y="5" width="532.07" height="509.45" rx="40.38" ry="40.38" fill="none" stroke="#cc4097" stroke-miterlimit="10" stroke-width="10"/>      </g>    </g>  </g></svg>