<?xml version="1.0" encoding="UTF-8"?><svg id="Layer_2" xmlns="http://www.w3.org/2000/svg" viewBox="0 0 800 800"><defs><style>.cls-1{fill:#f6871f;fill-rule:evenodd;}</style></defs><g id="Layer_1-2"><g><path class="cls-1" d="M706.67,53.33c-22.09,0-40,17.91-40,40s17.91,40,40,40,40-17.91,40-40-17.91-40-40-40Zm-93.33,40c0-51.55,41.79-93.33,93.33-93.33s93.33,41.79,93.33,93.33-41.79,93.33-93.33,93.33-93.33-41.79-93.33-93.33Z"/><path class="cls-1" d="M93.33,666.67c-22.09,0-40,17.91-40,40s17.91,40,40,40,40-17.91,40-40-17.91-40-40-40ZM0,706.67c0-51.55,41.79-93.33,93.33-93.33s93.33,41.79,93.33,93.33-41.79,93.33-93.33,93.33S0,758.21,0,706.67Z"/><path class="cls-1" d="M679.69,161.36L162.19,678.86l-37.71-37.71L641.98,123.64l37.71,37.71Z"/><path class="cls-1" d="M717.45,342.44l-374.18,374.18-43.22-43.22,374.18-374.18,43.22,43.22Z"/><path class="cls-1" d="M504.11,129.1L129.94,503.28l-43.22-43.22L460.89,85.88l43.22,43.22Z"/></g></g></svg>