<?xml version="1.0" encoding="UTF-8"?><svg id="Layer_2" xmlns="http://www.w3.org/2000/svg" xmlns:xlink="http://www.w3.org/1999/xlink" viewBox="0 0 851.4 739.76"><defs><style>.cls-1,.cls-2,.cls-3,.cls-4{fill:none;}.cls-5{clip-path:url(#clippath);}.cls-6{fill:#f6871f;}.cls-2{stroke:#fff200;}.cls-2,.cls-3{stroke-width:40px;}.cls-2,.cls-4{stroke-linecap:round;stroke-linejoin:round;}.cls-3{stroke:#cc4097;stroke-miterlimit:10;}.cls-4{stroke:#f6871f;stroke-width:29.8px;}</style><clipPath id="clippath"><rect class="cls-1" x="92.31" y="427.56" width="420.33" height="122.38" rx="23.19" ry="23.19"/></clipPath></defs><g id="Layer_1-2"><g><g><rect class="cls-3" x="20" y="335.35" width="569.31" height="384.42" rx="65.9" ry="65.9"/><path class="cls-2" d="M831.4,704.47l-161.16-95.31c-10.82-5.71-17.6-16.95-17.6-29.18v-98.97c0-11.22,5.7-21.67,15.13-27.74l163.63-117.92v369.12Z"/><circle class="cls-2" cx="431.02" cy="146.37" r="126.37"/><circle class="cls-2" cx="151.64" cy="176.34" r="96.39"/></g><g class="cls-5"><g><circle class="cls-4" cx="200.9" cy="511.47" r="77.97"/><circle class="cls-4" cx="397.83" cy="511.47" r="77.97"/><g><path class="cls-6" d="M160.86,444.56l40.03,66.92,34.87-69.75s-34.87-19.15-74.9,2.84Z"/><path class="cls-6" d="M240.93,578.39l-40.03-66.92-34.87,69.75s34.87,19.15,74.9-2.84Z"/></g><g><path class="cls-6" d="M332.41,469.04l65.42,42.44,.57-77.98s-39.74-1.83-65.99,35.54Z"/><path class="cls-6" d="M463.25,553.91l-65.42-42.44-.57,77.98s39.74,1.83,65.99-35.54Z"/></g><circle class="cls-6" cx="200.9" cy="511.47" r="13.46"/><circle class="cls-6" cx="398.4" cy="511.84" r="37.09"/></g></g><rect class="cls-3" x="92.31" y="427.56" width="420.33" height="122.38" rx="23.19" ry="23.19"/></g></g></svg>