<?xml version="1.0" encoding="UTF-8"?><svg id="b" data-name="Layer 2" xmlns="http://www.w3.org/2000/svg" width="502.07" height="502.86" viewBox="0 0 502.07 502.86">  <g id="c" data-name="Layer 1">    <g>      <path d="m303.01,373.2c-6.88-6.87-13.12-13.07-19.32-19.31-6.12-6.16-6.16-11.09-.11-17.14,17.42-17.42,34.85-34.83,52.3-52.22,6.78-6.76,11.31-6.69,18.25.2,5.79,5.74,11.57,11.5,17.37,17.23.22.22.56.32,1.67.94,2.3-3.6,4.81-7.17,6.97-10.95,34.01-59.57,28.1-132-15.16-185.44-3.24-4-6.88-7.69-10.33-11.53-4.76-5.3-4.94-10.81-.49-14.94,4.24-3.94,9.81-3.52,14.55,1.32,31.13,31.73,48.54,69.8,52.47,114,1.78,20.04.05,39.86-4.86,59.38-.39,1.54-.67,3.12-1.33,6.18,9.67-9.65,18.39-18.2,26.82-27.03.87-.91.26-3.63-.22-5.36-3.33-11.9.46-23.73,10.32-31.69,8.84-7.14,21.72-8.28,31.95-2.84,13.41,7.14,19.21,23.07,13.54,37.21-5.62,14.02-21.02,21.67-35.61,17.08-3.93-1.24-5.91-.24-8.47,2.33-20.53,20.67-41.18,41.21-61.79,61.8-1.4,1.4-2.8,2.8-4.6,4.59,1.28,1.44,2.27,2.69,3.38,3.81,5.4,5.43,10.88,10.78,16.22,16.26,5.19,5.33,5.38,10.54.22,15.74-18.05,18.2-36.19,36.32-54.41,54.34-5.01,4.96-10.35,4.78-15.39-.15-6.54-6.39-12.96-12.91-19.86-19.8-1.48,1.32-2.86,2.42-4.1,3.65-21.45,21.39-42.85,42.84-64.38,64.15-2.22,2.2-2.5,3.91-1.53,6.85,4.28,13.07-1.05,26.93-12.78,34.18-11.27,6.97-26.34,5.22-35.92-4.18-9.87-9.68-11.82-24.23-4.86-36.16,6.82-11.69,20.91-17.27,34.1-13.06,3.23,1.03,5.06.51,7.3-1.81,7.86-8.14,15.95-16.07,23.93-24.09.18-.18.16-.56.25-.94-8.49,1.57-16.85,3.64-25.35,4.62-58.61,6.75-109.46-10.13-152.38-50.6-5.51-5.19-6.25-10.82-2.17-15.26,4.31-4.69,9.89-4.26,15.69,1.02,48.78,44.47,104.77,57.62,167.89,37.65,11.13-3.52,21.43-9.73,32.04-14.85,2.65-1.28,5-3.18,8.18-5.25Zm41.77,13.29c14.03-14.01,27.71-27.68,41.4-41.34-13.9-13.88-27.51-27.48-41.31-41.25-13.86,13.84-27.54,27.5-41.4,41.34,13.84,13.82,27.45,27.42,41.31,41.25Zm-118.92,77.59c-3.84-3.9-10.11-3.98-13.87-.18-3.67,3.72-3.71,9.68-.1,13.51,3.79,4.01,9.93,4.23,13.86.48,3.94-3.76,3.99-9.87.1-13.81Zm237.33-237.35c4,4.08,9.86,4.23,13.75.36,3.82-3.81,3.75-9.99-.15-13.83-3.76-3.7-9.65-3.81-13.51-.27-3.97,3.65-4.01,9.73-.08,13.74Z" fill="#ff0" stroke="#f0f" stroke-miterlimit="10" stroke-width="5"/>      <g>        <g>          <path d="m305.43,154.33c-.23,83.43-68.46,151.41-151.59,151.03C69.93,304.98,2.46,237.23,2.71,153.6,2.95,70.44,71.04,2.91,154.39,3.17c83.46.26,151.26,68.12,151.04,151.16Zm-180.41,127.27c42.19,10.6,99.06-1.88,134.37-49.56,34.43-46.49,34.54-108.57.27-155.25C224.91,29.46,168.31,16.03,124.94,26.82c44.47,30.86,69.18,72.91,69.26,127.21.07,54.34-24.58,96.41-69.18,127.57Zm43.37-166.1c-1.41.31-2.3.47-3.18.71-44.44,11.9-88.87,23.8-133.3,35.71q-9.38,2.51-8.57,12.18c.02.2.2.38.46.83,48.94-13.09,97.95-26.2,147.25-39.39-.94-3.54-1.77-6.69-2.66-10.04Zm5.25,30.25c-49.08,13.13-98,26.22-147.12,39.36,1.04,3.58,1.94,6.69,2.88,9.93,1.42-.33,2.41-.52,3.39-.78,44.25-11.83,88.49-23.66,132.74-35.5q9.05-2.42,8.45-11.85c-.01-.22-.12-.43-.32-1.16Zm-12.84-49.21c-1.4-2.59-2.69-4.72-3.72-6.96-.93-2.04-2.04-2.4-4.26-1.79-14.71,4.06-29.47,7.91-44.21,11.85-26.29,7.03-52.58,14.06-78.86,21.15-1.08.29-2.62.99-2.87,1.83-.97,3.19-1.5,6.52-2.3,10.34,45.61-12.2,90.58-24.22,136.22-36.42Zm11.28,81.39c-45.2,12.09-89.81,24.02-134.81,36.06,1.96,3.4,3.7,6.41,5.44,9.41,11.27-3.02,22.16-5.96,33.06-8.87,30.05-8.03,60.12-16.03,90.15-24.12,1.38-.37,3.27-1.24,3.68-2.34,1.13-3.03,1.6-6.3,2.48-10.13ZM35.23,98.37c36.42-9.74,71.84-19.22,107.85-28.86-2.53-2.7-4.41-5-6.61-6.93-.91-.8-2.67-1.38-3.79-1.08-29.49,7.8-58.95,15.71-88.4,23.66-.99.27-2.14.95-2.64,1.78-2.12,3.49-4.02,7.11-6.41,11.43Zm124.78,115.32c-.19-.21-.38-.42-.57-.63-34.41,9.21-68.82,18.41-103.23,27.62-.27.48-.53.95-.8,1.43,2.22,1.78,4.61,3.4,6.6,5.41,1.49,1.49,2.76,1.79,4.77,1.25,27.92-7.56,55.86-15.02,83.79-22.53.96-.26,2.23-.54,2.69-1.25,2.37-3.69,4.52-7.51,6.75-11.29ZM64.88,57.54c.21.32.41.65.62.97,16.39-4.39,32.78-8.78,49.17-13.17l.24-1.03c-5.39-2.81-10.78-5.62-16.16-8.42-3.85,1.91-7.7,3.81-11.54,5.74-.71.36-1.4.76-2.05,1.23-6.77,4.88-13.52,9.79-20.28,14.68Zm62.57,195.84c-14.17,3.79-28.35,7.58-42.52,11.37,4.13,3.1,8.38,5.41,12.7,7.59.57.29,1.57.12,2.21-.18,10.13-4.76,19.4-10.84,27.62-18.79Z" fill="#f0f" stroke-width="0"/>          <path d="m168.39,115.51c.89,3.35,1.72,6.5,2.66,10.04-49.29,13.19-98.3,26.3-147.25,39.39-.26-.45-.45-.63-.46-.83q-.82-9.66,8.57-12.18c44.43-11.91,88.87-23.81,133.3-35.71.88-.24,1.78-.4,3.18-.71Z" fill="#fff" stroke-width="0"/>          <path d="m173.64,145.76c.21.73.31.94.32,1.16q.6,9.42-8.45,11.85c-44.24,11.84-88.49,23.67-132.74,35.5-.97.26-1.97.45-3.39.78-.94-3.25-1.84-6.36-2.88-9.93,49.13-13.14,98.04-26.23,147.12-39.36Z" fill="#fff" stroke-width="0"/>          <path d="m160.79,96.55c-45.64,12.2-90.61,24.23-136.22,36.42.81-3.83,1.34-7.15,2.3-10.34.25-.84,1.79-1.54,2.87-1.83,26.27-7.09,52.56-14.12,78.86-21.15,14.74-3.94,29.5-7.79,44.21-11.85,2.23-.61,3.33-.25,4.26,1.79,1.03,2.24,2.32,4.37,3.72,6.96Z" fill="#fff" stroke-width="0"/>          <path d="m172.08,177.94c-.88,3.83-1.35,7.11-2.48,10.13-.41,1.1-2.3,1.97-3.68,2.34-30.04,8.09-60.1,16.09-90.15,24.12-10.9,2.91-21.79,5.85-33.06,8.87-1.73-3-3.47-6.01-5.44-9.41,45-12.03,89.61-23.97,134.81-36.06Z" fill="#fff" stroke-width="0"/>          <path d="m35.23,98.37c2.39-4.32,4.29-7.94,6.41-11.43.5-.83,1.66-1.51,2.64-1.78,29.45-7.95,58.91-15.87,88.4-23.66,1.12-.3,2.88.28,3.79,1.08,2.21,1.93,4.09,4.23,6.61,6.93-36.01,9.64-71.44,19.11-107.85,28.86Z" fill="#fff" stroke-width="0"/>          <path d="m160.01,213.69c-2.23,3.78-4.38,7.61-6.75,11.29-.45.7-1.73.99-2.69,1.25-27.93,7.51-55.88,14.98-83.79,22.53-2.01.54-3.28.24-4.77-1.25-2-2.01-4.38-3.62-6.6-5.41.27-.48.53-.95.8-1.43,34.41-9.21,68.82-18.41,103.23-27.62.19.21.38.42.57.63Z" fill="#fff" stroke-width="0"/>          <path d="m64.88,57.54c6.76-4.9,13.51-9.8,20.28-14.68.64-.46,1.34-.87,2.05-1.23,3.84-1.93,7.69-3.83,11.54-5.74,5.39,2.81,10.78,5.62,16.16,8.42l-.24,1.03c-16.39,4.39-32.78,8.78-49.17,13.17-.21-.32-.41-.65-.62-.97Z" fill="#fff" stroke-width="0"/>          <path d="m127.45,253.38c-8.22,7.95-17.49,14.03-27.62,18.79-.64.3-1.64.46-2.21.18-4.32-2.18-8.57-4.49-12.7-7.59,14.17-3.79,28.35-7.58,42.52-11.37Z" fill="#fff" stroke-width="0"/>        </g>        <ellipse cx="154.2" cy="154" rx="142.55" ry="142.35" fill="none" stroke="#ff0" stroke-miterlimit="10" stroke-width="23.31"/>      </g>      <polygon points="193.8 315.51 212.39 296.95 175.94 260.55 253.58 183.03 290.02 219.43 308.61 200.86 308.62 315.51 193.8 315.51" fill="#91278d" stroke-width="0"/>    </g>  </g></svg>