<?xml version="1.0" encoding="UTF-8"?><svg id="Layer_2" xmlns="http://www.w3.org/2000/svg" xmlns:xlink="http://www.w3.org/1999/xlink" viewBox="0 0 981.41 976.19"><defs><style>.cls-1{fill:url(#linear-gradient);}.cls-2{fill:#cc4097;}.cls-3{fill:none;stroke:#f6871f;stroke-linecap:round;stroke-linejoin:round;stroke-width:60px;}</style><linearGradient id="linear-gradient" x1="0" y1="254.73" x2="509.45" y2="254.73" gradientUnits="userSpaceOnUse"><stop offset="0" stop-color="#2d429b"/><stop offset=".2" stop-color="#31459c" stop-opacity=".98"/><stop offset=".37" stop-color="#414fa1" stop-opacity=".91"/><stop offset=".42" stop-color="#4954a4" stop-opacity=".88"/><stop offset=".51" stop-color="#545ea9" stop-opacity=".83"/><stop offset=".63" stop-color="#727bb8" stop-opacity=".7"/><stop offset=".78" stop-color="#a4aad1" stop-opacity=".49"/><stop offset=".95" stop-color="#e9eaf4" stop-opacity=".19"/><stop offset="1" stop-color="#fff" stop-opacity=".1"/></linearGradient></defs><g id="Layer_1-2"><g><path class="cls-3" d="M900.37,546.36c35.71,46.47,55.28,108.44,50.26,174.94-10.04,132.99-114.57,233.33-233.72,224.34-89.36-6.74-155.58-92.91-148.06-192.65s85.93-175,175.29-168.25c59.58,4.5,103.72,61.94,98.71,128.44-5.02,66.5-57.29,116.66-116.86,112.17-29.79-2.25-51.86-30.97-49.35-64.22,2.51-33.25,28.64-58.33,58.43-56.08"/><circle class="cls-1" cx="254.73" cy="254.73" r="254.73"/><polygon class="cls-2" points="645.36 483.92 591.62 537.66 628.55 574.59 574.59 628.55 537.66 591.62 483.91 645.37 482.18 482.18 645.36 483.92"/></g></g></svg>