<?xml version="1.0" encoding="UTF-8"?><svg id="b" data-name="Layer 2" xmlns="http://www.w3.org/2000/svg" width="435.87" height="500" xmlns:xlink="http://www.w3.org/1999/xlink" viewBox="0 0 435.87 500">  <defs>    <linearGradient id="d" x1="153.24" y1="281.43" x2="259.76" y2="281.43" gradientTransform="translate(486.81 23.2) rotate(90)" gradientUnits="userSpaceOnUse">      <stop offset="0" stop-color="#1b1464"/>      <stop offset=".01" stop-color="#211761"/>      <stop offset=".11" stop-color="#523452"/>      <stop offset=".21" stop-color="#7e4d44"/>      <stop offset=".32" stop-color="#a36138"/>      <stop offset=".43" stop-color="#c0732e"/>      <stop offset=".55" stop-color="#d78027"/>      <stop offset=".68" stop-color="#e88922"/>      <stop offset=".82" stop-color="#f18f1e"/>      <stop offset="1" stop-color="#f5911e"/>    </linearGradient>    <linearGradient id="e" x1="167.69" y1="266.99" x2="274.21" y2="266.99" gradientTransform="translate(463.61 510) rotate(-180)" xlink:href="#d"/>    <linearGradient id="f" x1="153.24" y1="252.54" x2="259.76" y2="252.54" gradientTransform="translate(-23.2 486.81) rotate(-90)" xlink:href="#d"/>    <linearGradient id="g" x1="138.8" y1="266.99" x2="245.32" y2="266.99" gradientTransform="matrix(1,0,0,1,0,0)" xlink:href="#d"/>  </defs>  <g id="c" data-name="Layer 1">    <g>      <g>        <g>          <path d="m82.98,351.38l15.91,27.56-96.45-1.46,44.53-88.48,15.9,27.55.69-.4,95.05-54.87c1.27,6.85,3.69,13.3,7.08,19.14,3.43,5.95,7.86,11.26,13.04,15.68l-95.75,55.28Z" fill="#f0f" stroke-width="0"/>          <path d="m165.69,280.42l-92.07,53.15-10.06-17.42,95.05-54.87c1.27,6.85,3.69,13.3,7.08,19.14Z" fill="#ef5a24" stroke-width="0"/>        </g>        <g>          <path d="m435.87,373.26l-11.58.67-87.31,5.01,6.81-11.79,9.1-15.77-95.75-55.28c7.72-6.6,13.75-15.12,17.35-24.82,1.2-3.21,2.13-6.56,2.77-10l95.05,54.87.69.4,10.47-18.13,5.43-9.42,46.97,84.26Z" fill="#faec21" stroke-width="0"/>          <polygon points="435.87 373.26 424.29 373.93 418.49 363.2 383.47 298.42 388.91 289 435.87 373.26" fill="#f24d7f" stroke-width="0"/>          <polygon points="343.78 367.16 418.49 363.2 435.87 373.26 336.98 378.94 343.78 367.16" fill="#a1c700" stroke-width="0"/>          <path d="m372.31,316.15l-5.03,8.71-92.78-53.58c1.2-3.21,2.13-6.56,2.77-10l95.05,54.87Z" fill="#f24d7f" stroke-width="0"/>        </g>        <g>          <g>            <path d="m269.86,82.8h-31.81v110.56c-6.29-2.23-13.05-3.44-20.11-3.44s-13.82,1.21-20.11,3.44v-110.56h-31.81L215.5,0l54.36,82.8Z" fill="#10181e" stroke-width="0"/>            <path d="m238.05,83.61v109.76c-6.29-2.23-13.05-3.44-20.11-3.44v-106.31h20.11Z" fill="#10181e" stroke-width="0"/>          </g>          <g>            <path d="m269.86,82.8h-31.81v110.56c-6.29-2.23-13.05-3.44-20.11-3.44s-13.82,1.21-20.11,3.44v-110.56h-31.81L215.5,0l54.36,82.8Z" fill="red" stroke-width="0"/>            <path d="m238.05,83.61v109.76c-6.29-2.23-13.05-3.44-20.11-3.44v-106.31h20.11Z" fill="#91278d" stroke-width="0"/>          </g>        </g>        <g>          <path d="m433.43,123.02l-44.53,88.48-15.9-27.55-.69.4-95.05,54.88c-1.27-6.86-3.69-13.3-7.07-19.14-3.43-5.94-7.86-11.26-13.05-15.7l95.75-55.28-15.91-27.55,96.45,1.45Z" fill="#a303b3" stroke-width="0"/>          <path d="m372.31,184.35l-95.05,54.88c-1.27-6.86-3.69-13.3-7.07-19.14l92.06-53.16,10.06,17.42Z" fill="#e75df5" stroke-width="0"/>        </g>        <g>          <path d="m178.73,204.39c-7.72,6.6-13.75,15.12-17.35,24.81-1.2,3.21-2.13,6.57-2.77,10.02l-95.05-54.88-.69-.4-10.47,18.13-5.43,9.42-10.08-18.07h0s-6.09-10.94-6.09-10.94l-3.28-5.88-2.36-4.24v-.03s-1.1-1.94-1.1-1.94l-18.59-33.35L0,127.24l11.58-.66,87.31-5.01-6.81,11.78-9.1,15.77,95.75,55.28Z" fill="#ff0" stroke-width="0"/>          <polygon points="0 127.24 11.58 126.57 17.39 137.3 52.4 202.08 46.97 211.5 0 127.24" fill="#f24d7f" stroke-width="0"/>          <polygon points="92.09 133.34 17.39 137.3 0 127.24 98.89 121.56 92.09 133.34" fill="#a1c700" stroke-width="0"/>          <path d="m63.56,184.35l5.03-8.71,92.78,53.57c-1.2,3.21-2.13,6.57-2.77,10.02l-95.05-54.88" fill="#f24d7f" stroke-width="0"/>        </g>        <path d="m269.86,417.2l-54.36,82.8-49.49-82.8h31.81v-110.05c6.29,2.23,13.05,3.44,20.11,3.44s13.82-1.21,20.11-3.44v110.05h31.81Z" fill="#f5911e" stroke-width="0"/>      </g>      <circle cx="217.94" cy="255.18" r="125.55" fill="#ff0" opacity=".3" stroke-width="0"/>      <g>        <path d="m219.38,282.96c14.16-.36,25.58-11.77,25.93-25.93.01-.23.01-.46.01-.69s0-.46-.01-.69c-.36-29.1-24.07-52.58-53.25-52.58-7.81,0-15.24,1.68-21.92,4.7h0c-18.48,8.36-31.34,26.96-31.34,48.56,0-44.13,35.77-79.9,79.9-79.9.46,0,.92,0,1.37.02.92.03,1.82.07,2.73.14.87.07,1.74.15,2.6.26,1.31.17,2.61.38,3.89.64.34.06.67.14,1,.21.29.06.58.13.86.2.28.06.55.13.83.2.37.09.74.19,1.11.3.26.07.51.14.77.22.21.06.43.12.64.19.35.11.7.22,1.05.34.34.11.68.23,1.02.35.27.09.53.19.8.29.28.1.55.2.82.31.35.14.7.28,1.05.43.36.15.72.31,1.08.47.28.12.56.25.84.38.18.07.35.16.52.24.75.36,1.49.74,2.23,1.13.29.16.59.32.87.48.03.02.07.04.1.06.26.14.51.29.76.44.5.29,1,.59,1.49.9.21.13.43.27.64.42.22.13.43.28.64.43.04.03.09.05.13.09.3.2.6.41.89.62.1.06.19.13.28.2.26.18.5.36.75.55.08.05.16.11.24.18.26.19.51.38.76.59.09.06.17.13.25.2.25.19.48.38.72.58.1.09.2.17.3.26.27.22.54.45.81.69.32.27.63.55.94.83.02.02.03.03.05.04.29.26.57.53.85.79.04.03.07.06.1.1.29.28.58.56.87.85.3.3.59.6.88.9.01.01.02.02.03.03.26.28.53.56.78.84.05.05.09.1.13.14.27.29.53.59.79.89.27.3.53.61.79.93.02.03.05.06.07.09.26.31.52.63.77.96.27.34.52.67.78,1.02.26.34.5.68.75,1.02,0,.01.01.02.02.03.25.35.48.69.72,1.04.21.31.42.62.62.94.04.06.09.13.13.2.21.34.43.68.63,1.02.22.37.44.74.66,1.11.18.3.35.61.51.91.26.47.51.95.76,1.43.15.3.3.61.45.92.04.08.08.16.11.23.11.23.22.46.32.69.1.21.2.43.29.64.16.36.31.72.46,1.08.12.29.25.58.36.87.04.1.08.19.11.28.13.32.25.64.37.97.03.07.06.15.09.22.1.26.19.53.28.79.19.54.37,1.09.54,1.64.07.23.14.46.21.69.08.26.15.53.23.79.1.36.2.73.29,1.09.07.29.14.57.21.86.09.33.16.66.23.99.06.28.12.56.18.84.12.6.23,1.2.33,1.81.05.27.09.53.13.79.07.44.13.87.18,1.31.05.41.1.82.14,1.23.04.36.07.72.1,1.09.12,1.44.18,2.89.18,4.36,0,21.6-12.86,40.2-31.34,48.55h0c-6.49,2.94-13.67,4.61-21.24,4.7Z" fill="url(#d)" stroke-width="0"/>        <path d="m189.4,257.02c.36,14.16,11.77,25.58,25.93,25.93.23.01.46.01.69.01s.46,0,.69-.01c29.1-.36,52.58-24.07,52.58-53.25,0-7.81-1.68-15.24-4.7-21.92h0c-8.36-18.48-26.95-31.34-48.56-31.34,44.13,0,79.9,35.77,79.9,79.9,0,.46,0,.92-.02,1.37-.03.92-.07,1.82-.14,2.73-.07.87-.15,1.74-.26,2.6-.17,1.31-.38,2.61-.64,3.89-.06.34-.14.67-.21,1-.06.29-.13.58-.2.86-.06.28-.13.55-.2.83-.09.37-.19.74-.3,1.11-.07.26-.14.51-.22.77-.06.21-.12.43-.19.64-.11.35-.22.7-.34,1.05-.11.34-.23.68-.35,1.02-.09.27-.19.53-.29.8-.1.28-.2.55-.31.82-.14.35-.28.7-.43,1.05-.15.36-.31.72-.47,1.08-.12.28-.25.56-.38.84-.07.18-.16.35-.24.52-.36.75-.74,1.49-1.13,2.23-.16.29-.32.59-.48.87-.02.03-.04.07-.06.1-.14.26-.29.51-.44.76-.29.5-.59,1-.9,1.49-.13.21-.27.43-.42.64-.13.22-.28.43-.43.64-.03.04-.05.09-.09.13-.2.3-.41.6-.62.89-.06.1-.13.19-.2.28-.18.26-.36.5-.55.75-.05.08-.11.16-.18.24-.19.26-.38.51-.59.76-.06.09-.13.17-.2.25-.19.25-.38.48-.58.72-.09.1-.17.2-.26.3-.22.27-.45.54-.69.81-.27.32-.55.63-.83.94-.02.02-.03.03-.04.05-.26.29-.53.57-.79.85-.03.04-.06.07-.1.1-.28.29-.56.58-.85.87-.3.3-.6.59-.9.88-.01.01-.02.02-.03.03-.28.26-.56.53-.84.78-.05.05-.1.09-.14.13-.29.27-.59.53-.89.79-.3.27-.61.53-.93.79-.03.02-.06.05-.09.07-.31.26-.63.52-.96.77-.34.27-.67.52-1.02.78-.34.26-.68.5-1.02.75-.01,0-.02.01-.03.02-.35.25-.69.48-1.04.72-.31.21-.62.42-.94.62-.06.04-.13.09-.2.13-.34.21-.68.43-1.02.63-.37.22-.74.44-1.11.66-.3.18-.61.35-.91.51-.47.26-.95.51-1.43.76-.3.15-.61.3-.92.45-.08.04-.16.08-.23.11-.23.11-.46.22-.69.32-.21.1-.43.2-.64.29-.36.16-.72.31-1.08.46-.29.12-.58.25-.87.36-.1.04-.19.08-.28.11-.32.13-.64.25-.97.37-.07.03-.15.06-.22.09-.26.1-.53.19-.79.28-.54.19-1.09.37-1.64.54-.23.07-.46.14-.69.21-.26.08-.53.15-.79.23-.36.1-.73.2-1.09.29-.29.07-.57.14-.86.21-.33.09-.66.16-.99.23-.28.06-.56.12-.84.18-.6.12-1.2.23-1.81.33-.27.05-.53.09-.79.13-.44.07-.87.13-1.31.18-.41.05-.82.1-1.23.14-.36.04-.72.07-1.09.1-1.44.12-2.89.18-4.36.18-21.6,0-40.2-12.86-48.55-31.34h0c-2.93-6.49-4.61-13.68-4.7-21.24Z" fill="url(#e)" stroke-width="0"/>        <path d="m215.34,227.04c-14.16.36-25.58,11.77-25.93,25.93-.01.23-.01.46-.01.69s0,.46.01.69c.36,29.1,24.07,52.58,53.25,52.58,7.81,0,15.24-1.68,21.92-4.7h0c18.48-8.36,31.34-26.96,31.34-48.56,0,44.13-35.77,79.9-79.9,79.9-.46,0-.92,0-1.37-.02-.92-.03-1.82-.07-2.73-.14-.87-.07-1.74-.15-2.6-.26-1.31-.17-2.61-.38-3.89-.64-.34-.06-.67-.14-1-.21-.29-.06-.58-.13-.86-.2-.28-.06-.55-.13-.83-.2-.37-.09-.74-.19-1.11-.3-.26-.07-.51-.14-.77-.22-.21-.06-.43-.12-.64-.19-.35-.11-.7-.22-1.05-.34-.34-.11-.68-.23-1.02-.35-.27-.09-.53-.19-.8-.29-.28-.1-.55-.2-.82-.31-.35-.14-.7-.28-1.05-.43-.36-.15-.72-.31-1.08-.47-.28-.12-.56-.25-.84-.38-.18-.07-.35-.16-.52-.24-.75-.36-1.49-.74-2.23-1.13-.29-.16-.59-.32-.87-.48-.03-.02-.07-.04-.1-.06-.26-.14-.51-.29-.76-.44-.5-.29-1-.59-1.49-.9-.21-.13-.43-.27-.64-.42-.22-.13-.43-.28-.64-.43-.04-.03-.09-.05-.13-.09-.3-.2-.6-.41-.89-.62-.1-.06-.19-.13-.28-.2-.26-.18-.5-.36-.75-.55-.08-.05-.16-.11-.24-.18-.26-.19-.51-.38-.76-.59-.09-.06-.17-.13-.25-.2-.25-.19-.48-.38-.72-.58-.1-.09-.2-.17-.3-.26-.27-.22-.54-.45-.81-.69-.32-.27-.63-.55-.94-.83-.02-.02-.03-.03-.05-.04-.29-.26-.57-.53-.85-.79-.04-.03-.07-.06-.1-.1-.29-.28-.58-.56-.87-.85-.3-.3-.59-.6-.88-.9-.01-.01-.02-.02-.03-.03-.26-.28-.53-.56-.78-.84-.05-.05-.09-.1-.13-.14-.27-.29-.53-.59-.79-.89-.27-.3-.53-.61-.79-.93-.02-.03-.05-.06-.07-.09-.26-.31-.52-.63-.77-.96-.27-.34-.52-.67-.78-1.02-.26-.34-.5-.68-.75-1.02,0-.01-.01-.02-.02-.03-.25-.35-.48-.69-.72-1.04-.21-.31-.42-.62-.62-.94-.04-.06-.09-.13-.13-.2-.21-.34-.43-.68-.63-1.02-.22-.37-.44-.74-.66-1.11-.18-.3-.35-.61-.51-.91-.26-.47-.51-.95-.76-1.43-.15-.3-.3-.61-.45-.92-.04-.08-.08-.16-.11-.23-.11-.23-.22-.46-.32-.69-.1-.21-.2-.43-.29-.64-.16-.36-.31-.72-.46-1.08-.12-.29-.25-.58-.36-.87-.04-.1-.08-.19-.11-.28-.13-.32-.25-.64-.37-.97-.03-.07-.06-.15-.09-.22-.1-.26-.19-.53-.28-.79-.19-.54-.37-1.09-.54-1.64-.07-.23-.14-.46-.21-.69-.08-.26-.15-.53-.23-.79-.1-.36-.2-.73-.29-1.09-.07-.29-.14-.57-.21-.86-.09-.33-.16-.66-.23-.99-.06-.28-.12-.56-.18-.84-.12-.6-.23-1.2-.33-1.81-.05-.27-.09-.53-.13-.79-.07-.44-.13-.87-.18-1.31-.05-.41-.1-.82-.14-1.23-.04-.36-.07-.72-.1-1.09-.12-1.44-.18-2.89-.18-4.36,0-21.6,12.86-40.2,31.34-48.55h0c6.49-2.94,13.67-4.61,21.24-4.7Z" fill="url(#f)" stroke-width="0"/>        <path d="m245.32,252.98c-.36-14.16-11.77-25.58-25.93-25.93-.23-.01-.46-.01-.69-.01s-.46,0-.69.01c-29.1.36-52.58,24.07-52.58,53.25,0,7.81,1.68,15.24,4.7,21.92h0c8.36,18.48,26.95,31.34,48.56,31.34-44.13,0-79.9-35.77-79.9-79.9,0-.46,0-.92.02-1.37.03-.92.07-1.82.14-2.73.07-.87.15-1.74.26-2.6.17-1.31.38-2.61.64-3.89.06-.34.14-.67.21-1,.06-.29.13-.58.2-.86.06-.28.13-.55.2-.83.09-.37.19-.74.3-1.11.07-.26.14-.51.22-.77.06-.21.12-.43.19-.64.11-.35.22-.7.34-1.05.11-.34.23-.68.35-1.02.09-.27.19-.53.29-.8.1-.28.2-.55.31-.82.14-.35.28-.7.43-1.05.15-.36.31-.72.47-1.08.12-.28.25-.56.38-.84.07-.18.16-.35.24-.52.36-.75.74-1.49,1.13-2.23.16-.29.32-.59.48-.87.02-.03.04-.07.06-.1.14-.26.29-.51.44-.76.29-.5.59-1,.9-1.49.13-.21.27-.43.42-.64.13-.22.28-.43.43-.64.03-.04.05-.09.09-.13.2-.3.41-.6.62-.89.06-.1.13-.19.2-.28.18-.26.36-.5.55-.75.05-.08.11-.16.18-.24.19-.26.38-.51.59-.76.06-.09.13-.17.2-.25.19-.25.38-.48.58-.72.09-.1.17-.2.26-.3.22-.27.45-.54.69-.81.27-.32.55-.63.83-.94.02-.02.03-.03.04-.05.26-.29.53-.57.79-.85.03-.04.06-.07.1-.1.28-.29.56-.58.85-.87.3-.3.6-.59.9-.88.01-.01.02-.02.03-.03.28-.26.56-.53.84-.78.05-.05.1-.09.14-.13.29-.27.59-.53.89-.79.3-.27.61-.53.93-.79.03-.02.06-.05.09-.07.31-.26.63-.52.96-.77.34-.27.67-.52,1.02-.78.34-.26.68-.5,1.02-.75.01,0,.02-.01.03-.02.35-.25.69-.48,1.04-.72.31-.21.62-.42.94-.62.06-.04.13-.09.2-.13.34-.21.68-.43,1.02-.63.37-.22.74-.44,1.11-.66.3-.18.61-.35.91-.51.47-.26.95-.51,1.43-.76.3-.15.61-.3.92-.45.08-.04.16-.08.23-.11.23-.11.46-.22.69-.32.21-.1.43-.2.64-.29.36-.16.72-.31,1.08-.46.29-.12.58-.25.87-.36.1-.04.19-.08.28-.11.32-.13.64-.25.97-.37.07-.03.15-.06.22-.09.26-.1.53-.19.79-.28.54-.19,1.09-.37,1.64-.54.23-.07.46-.14.69-.21.26-.08.53-.15.79-.23.36-.1.73-.2,1.09-.29.29-.07.57-.14.86-.21.33-.09.66-.16.99-.23.28-.06.56-.12.84-.18.6-.12,1.2-.23,1.81-.33.27-.05.53-.09.79-.13.44-.07.87-.13,1.31-.18.41-.05.82-.1,1.23-.14.36-.04.72-.07,1.09-.1,1.44-.12,2.89-.18,4.36-.18,21.6,0,40.2,12.86,48.55,31.34h0c2.93,6.49,4.61,13.68,4.7,21.24Z" fill="url(#g)" stroke-width="0"/>      </g>    </g>  </g></svg>