<?xml version="1.0" encoding="UTF-8"?><svg id="Layer_2" xmlns="http://www.w3.org/2000/svg" viewBox="0 0 998.37 994.01"><defs><style>.cls-1{fill:#cc4097;}.cls-2{fill:#2d429b;}.cls-3{stroke:#e61577;stroke-width:10px;}.cls-3,.cls-4,.cls-5{fill:none;}.cls-3,.cls-5{stroke-miterlimit:10;}.cls-4{stroke:#f6871f;stroke-linecap:round;stroke-linejoin:round;}.cls-4,.cls-5{stroke-width:60px;}.cls-5{stroke:#fff200;}</style></defs><g id="Layer_1-2"><g><path class="cls-4" d="M917.33,564.17c35.71,46.47,55.28,108.44,50.26,174.94-10.04,132.99-114.57,233.33-233.72,224.34-89.36-6.74-155.58-92.91-148.06-192.65s85.93-175,175.29-168.25c59.58,4.5,103.72,61.94,98.71,128.44-5.02,66.5-57.29,116.66-116.86,112.17-29.79-2.25-51.86-30.97-49.35-64.22,2.51-33.25,28.64-58.33,58.43-56.08"/><g><rect class="cls-5" x="71.83" y="71.83" width="380.09" height="380.09"/><circle class="cls-3" cx="71.83" cy="71.73" r="38.91"/><rect class="cls-2" x="404.7" y="24.61" width="94.44" height="94.44"/><rect class="cls-2" x="404.7" y="404.7" width="94.44" height="94.44"/><rect class="cls-2" x="24.61" y="404.7" width="94.44" height="94.44"/><rect class="cls-2" x="48.22" y="48.22" width="47.22" height="47.22"/><line class="cls-3" x1="71.83" x2="71.83" y2="19.95"/><line class="cls-3" x1="122.62" y1="21.04" x2="108.51" y2="35.15"/><line class="cls-3" x1="143.66" y1="71.83" x2="123.71" y2="71.83"/><line class="cls-3" x1="122.62" y1="122.62" x2="108.51" y2="108.51"/><line class="cls-3" x1="71.83" y1="143.66" x2="71.83" y2="123.71"/><line class="cls-3" x1="21.04" y1="122.62" x2="35.15" y2="108.51"/><line class="cls-3" x1="0" y1="71.83" x2="19.95" y2="71.83"/><line class="cls-3" x1="21.04" y1="21.04" x2="35.15" y2="35.15"/></g><polygon class="cls-1" points="662.31 501.73 608.58 555.47 645.51 592.4 591.55 646.37 554.62 609.43 500.87 663.18 499.14 500 662.31 501.73"/></g></g></svg>