<?xml version="1.0" encoding="UTF-8"?><svg id="Layer_2" xmlns="http://www.w3.org/2000/svg" viewBox="0 0 992.1 994.28"><g id="Layer_1-2"><rect x="7.27" y="408.09" width="578.92" height="578.92" rx="36.18" ry="36.18" style="fill:none; stroke:#cc4097; stroke-miterlimit:10; stroke-width:14.54px;"/><path d="M981.39,111.87c0-55.87-45.29-101.17-101.17-101.17H210.75c-29.12,0-52.73,23.61-52.73,52.73v243.42c0,29.12,23.61,52.73,52.73,52.73h368.55c29.12,0,52.73,23.61,52.73,52.73v369.02c0,29.12,23.61,52.73,52.73,52.73h243.89c29.12,0,52.73-23.61,52.73-52.73V111.87Z" style="fill:none; stroke:#cc4097; stroke-dasharray:11.68 29.19; stroke-linecap:round; stroke-miterlimit:10; stroke-width:21.4px;"/><path d="M672.04,766.91v-380.15c0-37.1-30.07-67.17-67.17-67.17H225.19c-15,0-27.17-12.16-27.17-27.17V77.87c0-15,12.16-27.17,27.17-27.17h680.6c19.58,0,35.6,16.02,35.6,35.6v680.6c0,15-12.16,27.17-27.17,27.17h-215.02c-15,0-27.17-12.16-27.17-27.17Z" style="fill:#fff200;"/><path d="M106.48,912.7h-25.78l-46.1-197.46c-3.11-13.3-3.05-30.83.15-43.96l45.95-188.87h25.38c7.2,0,11.4,23.67,7.24,40.79l-36.03,148.08c-3.19,13.13-3.25,30.65-.15,43.96l36.67,157.09c4.01,17.16-.21,40.38-7.33,40.38Z" style="fill:#f6871f; stroke:#f6871f; stroke-miterlimit:10; stroke-width:25.5px;"/><path d="M486.99,912.7h25.78s46.1-197.46,46.1-197.46c3.11-13.3,3.05-30.83-.15-43.96l-45.95-188.87h-25.38c-7.2,0-11.4,23.67-7.24,40.79l36.03,148.08c3.19,13.13,3.25,30.65.15,43.96l-36.67,157.09c-4.01,17.16.21,40.38,7.33,40.38Z" style="fill:#f6871f; stroke:#f6871f; stroke-miterlimit:10; stroke-width:25.5px;"/><path d="M128.56,840.25c88.89,0,79.84-257.57,166.98-258.1,87.15-.53,63.84,258.1,169.35,258.1" style="fill:none; stroke:#cc4097; stroke-miterlimit:10; stroke-width:36.39px;"/><polygon points="298.81 614.87 275.96 582.76 298.81 550.65 321.66 582.76 298.81 614.87" style="fill:#2d429b; stroke:#2d429b; stroke-miterlimit:10; stroke-width:1.15px;"/><line x1="131.55" y1="582.76" x2="461.91" y2="582.76" style="fill:#2d429b; stroke:#2d429b; stroke-miterlimit:10; stroke-width:2.79px;"/><rect x="457.75" y="576.91" width="8.33" height="11.7" style="fill:#2d429b;"/><rect x="127.38" y="576.91" width="8.33" height="11.7" style="fill:#2d429b;"/></g></svg>