<?xml version="1.0" encoding="UTF-8"?><svg id="Layer_2" xmlns="http://www.w3.org/2000/svg" viewBox="0 0 952.23 974.05"><g id="Layer_1-2"><polyline points="46.71 58.82 78.64 480.15 232.34 880.49 905.51 927.34" style="fill:none; stroke:#cc4097; stroke-miterlimit:10; stroke-width:40px;"/><rect y="12.1" width="93.43" height="93.43" style="fill:#fff200;"/><rect x="36.25" y="445.23" width="93.43" height="93.43" style="fill:#fff200;"/><rect x="187.07" y="833.91" width="93.43" height="93.43" style="fill:#fff200;"/><rect x="858.8" y="880.62" width="93.43" height="93.43" style="fill:#fff200;"/><polyline points="332.7 230.48 318.02 463.45 415.02 690.48 837.63 716.7" style="fill:none; stroke:#fff200; stroke-dasharray:40 40; stroke-miterlimit:10; stroke-width:40px;"/><polygon points="809.39 794.88 952.23 723.81 819.27 635.62 809.39 794.88" style="fill:#fff200;"/><polygon points="470.97 436.23 334.85 363.74 200.47 439.4 227.34 287.54 113.86 183.12 266.59 161.75 330.84 21.56 398.36 160.21 551.54 177.99 440.54 285.05 470.97 436.23" style="fill:#f6871f; stroke:#f6871f; stroke-linejoin:round; stroke-width:43.11px;"/></g></svg>