<?xml version="1.0" encoding="UTF-8"?><svg id="b" data-name="Layer 2" xmlns="http://www.w3.org/2000/svg" width="360.22" height="400" viewBox="0 0 360.22 400">  <g id="c" data-name="Layer 1">    <g>      <g>        <path d="m355.68,133.11c-.88-8.37-5.61-15.61-6.54-18.12-.28-.77.29-2.81,0-3.56-1.87-4.93-4.37-9.74-6.54-14.56-.54-1.2-1.23-2.38-1.78-3.56-2.65-5.66-5.77-11.22-8.91-16.63-.17-.29-.59-1.61-1.78-3.56-4.27-7.04-5.62-10.27-12.48-15.45-.19-.14-1.04-1.09-1.19-1.19.59-2.39,3.08.38,5.94,2.67,11.13,11.14,26.48,40.27,30.89,54.66.88,2.88,5.28,19.01,2.38,19.31Z" fill="#007800" stroke-width="0"/>        <path d="m4.56,273.31c3.55,11.57,13.99,31.67,20.79,42.18,5.91,9.12,12.82,17.13,19.61,25.55C23.09,319.17,2.1,284.25.4,253.11c.65,6.97,2.11,13.51,4.16,20.2Z" fill="#ab8690" stroke-width="0"/>        <path d="m.4,249.55v-70.1c-.18,21.09-.81,50,0,70.1Z" fill="#c295a7" stroke-width="0"/>        <path d="m47.93,57.06c-3.4,2.91-6.46,5.59-9.51,8.91-2.11,2.31-4.08,5.18-5.94,7.72-1.97-2.85,12.89-20.1,15.45-16.63Z" fill="#085700" stroke-width="0"/>      </g>      <g>        <path d="m355.68,133.7c.93,1.99.76,3.61,1.19,4.75-4.95-.1-5.17-13.21-1.19-4.75Z" fill="#ff8c8b" stroke-width="0"/>        <g>          <g>            <path d="m226.16,149.15c4.87,7.04,6.67,15.8,10.1,18.42-.91.09-1.12,1.14-1.19,1.19-6.53,5.23-12.74,12.42-17.82,19.01-17.56-.9-13.03-12.87-16.34-14.85-13.04-1.34-22.46-5.92-10.99-18.42,10.68,0,26.27-1.61,36.24-5.35Z" fill="#adcd00" stroke-width="0"/>            <path d="m211.01,159.84c9.14-2.01,10.82,10.36,2.97,11.88-10.12,1.97-8.76-10.61-2.97-11.88Z" fill="#cd2967" stroke-width="0"/>          </g>          <g>            <path d="m189.92,154.49c-11.47,12.5-2.05,17.08,10.99,18.42,3.31,1.99-1.22,13.95,16.34,14.85-9.38,12.16-18.5,27.69-21.98,42.78-.5,2.17-.49,3.79-1.78,5.94-7.25,2.4-11.82-.94-16.04-6.54-5.47-7.26-22.34-47.44-39.8-62.97v-1.19q7.72-8.61,15.45-17.23c11.82,4.3,24.31,5.94,36.83,5.94Z" fill="#91995e" stroke-width="0"/>            <path d="m183.68,186.57c8.4-.53,9.3,12.35,1.19,13.07-9.47.84-9.2-12.57-1.19-13.07Z" fill="#cd2967" stroke-width="0"/>          </g>        </g>        <g>          <path d="m330.13,73.1c-3.35,1.16.46,6.44,1.78,3.56,3.14,5.42,6.26,10.97,8.91,16.63-3.05.69-1.71,7.7,1.78,3.56,2.17,4.82,4.66,9.63,6.54,14.56.29.75-.28,2.8,0,3.56.93,2.51,5.66,9.75,6.54,18.12v.59c-3.98-8.46-3.76,4.65,1.19,4.75.35.92,1.02,2.31,1.19,2.97-1.88,3.31-3.43-3.4-7.72-1.19-1.4-2.34-3.56-3.32-5.35-4.75-8.1-6.52-20.23-10.28-30.6-7.72-6.27,1.55-68.32,43.24-80.2,50.5l.89-9.51c.07-.05.28-1.09,1.19-1.19,26.18-16.14,52.2-32.69,77.83-49.61-4.52.24-3.08-12.2-5.35-19.9,10.11-8.67,14.56-20.87,11.29-33.86-.63-2.51-1.56-4.17-2.38-6.54,6.86,5.17,8.21,8.4,12.48,15.45Z" fill="#f4f952" stroke-width="0"/>          <path d="m358.05,141.42c.17.67,1.4,1.82,1.78,2.67-1.41,26.83,2.36,102.88-1.19,121.79-2.69,14.3-16.31,38.96-24.95,51.09-1.86,2.62-17.89,22.45-19.01,23.47-3.35,3.04-71.37,45.78-76.64,48.12l-.3-1.19-5.05,2.67c.74-1.6,3.09-3.93,4.46-5.05,21.28-17.45,69.96-40.04,90.01-63.27,6.54-7.58,17.23-24.81,20.79-34.16,1.82-4.79,4.88-14.62,5.35-19.31.6-5.97.84-114.07,0-120.01-.12-.85-2.47-7.18-2.97-8.02,4.29-2.21,5.84,4.5,7.72,1.19Z" fill="#f4f952" stroke-width="0"/>          <path d="m344.98,135.48l-2.38,5.35c-7.6-6.68-18.72-10.06-28.22-6.54-6.6,2.45-62.11,40.77-76.05,48.12-9.64-2.13-27.74,23.95-31.19,31.78-1.32,3.01-4.41,12.46-4.75,15.45-.72,6.29-.86,120.27,0,126.54,1.69,12.35,14.95,24.87,27.03,27.63,23.81-16.07,78.88-46.36,95.35-65.05,7.35-8.33,15.52-21.44,19.61-31.78l3.56.59c-3.56,9.35-14.25,26.58-20.79,34.16-20.05,23.23-68.72,45.82-90.01,63.27-1.37,1.12-3.72,3.45-4.46,5.05l5.05-2.67.3,1.19c-4.63,2.06-3.52,2.53-9.51,2.38-2.84-.07-5.6-.41-8.32-1.19-.52-.15-3.24-1.05-3.56-1.19-12.12-5.06-20.85-18.86-22.58-31.49l4.16-.3c-1.26-15.87,1.89-119.6-.59-125.36-.39-.91-1.52-1.01-2.38-.89,3.48-15.08,12.6-30.61,21.98-42.78,5.08-6.59,11.3-13.78,17.82-19.01l-.89,9.51c11.89-7.26,73.94-48.95,80.2-50.5,10.37-2.56,22.5,1.2,30.6,7.72Z" fill="#dadf17" stroke-width="0"/>          <path d="m350.33,140.23c.5.84,2.85,7.17,2.97,8.02.84,5.94.6,114.04,0,120.01-.47,4.69-3.52,14.52-5.35,19.31l-3.56-.59c2.29-5.8,4.17-11.39,5.35-17.53q.3-57.03.59-114.07c-.69-5.88-3.3-10.67-7.72-14.56l2.38-5.35c1.79,1.44,3.94,2.41,5.35,4.75Z" fill="#c7c300" stroke-width="0"/>          <path d="m340.82,93.3c.56,1.19,1.24,2.36,1.78,3.56-3.49,4.13-4.83-2.87-1.78-3.56Z" fill="#ff8c8b" stroke-width="0"/>          <path d="m331.91,76.67c-1.32,2.87-5.13-2.4-1.78-3.56,1.19,1.96,1.61,3.28,1.78,3.56Z" fill="#dabe21" stroke-width="0"/>          <path d="m194.08,357.08c-.89-6.53-1.36-114.62-.59-120.6,1.3-2.15,1.28-3.77,1.78-5.94.85-.12,1.99-.01,2.38.89,2.48,5.76-.67,109.48.59,125.36l-4.16.3Z" fill="#f4f952" stroke-width="0"/>          <g>            <path d="m342.61,140.83c4.43,3.89,7.04,8.68,7.72,14.56q-.3,57.03-.59,114.07c-1.18,6.13-3.05,11.72-5.35,17.53-4.09,10.34-12.26,23.45-19.61,31.78-16.47,18.69-71.54,48.98-95.35,65.05-12.08-2.76-25.35-15.28-27.03-27.63-.86-6.27-.72-120.26,0-126.54.34-2.99,3.43-12.44,4.75-15.45,3.45-7.84,21.56-33.91,31.19-31.78,13.94-7.35,69.45-45.68,76.05-48.12,9.5-3.52,20.62-.14,28.22,6.54Z" fill="#f4f952" stroke-width="0"/>            <g>              <g>                <path d="m236.26,245.98c11.08,3.64,17.89-9.57,12.77-12.48-5.61-3.19-13.5,6.43-13.37,11.88-4.31-4.59-3.76-8.59-3.56-14.26,1.87.87,7.64.12,9.21-.59,5.87-2.67,13.96-25.69-.3-8.61-4.97,5.95-2.93,9.75-9.51,7.43,2.29-20.05,25.55-38.84,30.3-18.71,5,21.2-12.31,45.79-25.55,35.35Z" fill="#0a0909" stroke-width="0"/>                <path d="m236.26,245.98c-.32-.25-.36-.35-.59-.59-.14-5.45,7.76-15.07,13.37-11.88,5.12,2.91-1.7,16.12-12.77,12.48Z" fill="#b114f9" stroke-width="0"/>                <path d="m232.1,231.13c0-.09-.84.35-.59-1.78,6.58,2.33,4.54-1.48,9.51-7.43,14.26-17.07,6.17,5.94.3,8.61-1.57.71-7.34,1.46-9.21.59Z" fill="#b114f9" stroke-width="0"/>              </g>              <g>                <path d="m293.29,212.12c-1.63-.47-2.64-1.62-3.56-2.97,12.46-25.88,29.33-5.66,3.56,2.97Z" fill="#b114f9" stroke-width="0"/>                <g>                  <path d="m293.29,212.12c25.77-8.63,8.89-28.85-3.56-2.97-3.01-4.39-3.43-10.95-2.97-16.04,2.94,1.42,4.35-3.47.59-2.97,3.63-19.3,26.56-35.15,30.89-14.56,3.94,18.7-12.48,40.17-24.95,36.54Z" fill="#0a0909" stroke-width="0"/>                  <path d="m286.76,193.11c.08-.84.41-1.98.59-2.97,3.76-.5,2.34,4.39-.59,2.97Z" fill="#d10099" stroke-width="0"/>                  <path d="m301.91,179.45c3.3.47-1.87,12.61-5.94,14.85-11.38,6.27,3.5-15.2,5.94-14.85Z" fill="#b114f9" stroke-width="0"/>                </g>              </g>              <g>                <path d="m235.07,348.17c-.08-.09-.41-.89-.59-1.19,3.42-3.49,9.13-14.29,15.15-11.88,4.82,1.93-1.05,21.59-14.56,13.07Z" fill="#b114f9" stroke-width="0"/>                <g>                  <path d="m235.07,348.17c13.51,8.52,19.37-11.14,14.56-13.07-6.02-2.41-11.73,8.39-15.15,11.88-3.32-5.32-2.73-8.52-2.38-14.26,4,3.05,1.91-2.71,0-1.19,3.03-22.24,25.92-36.88,30.3-16.34,4.74,22.2-16.09,45.71-27.33,32.97Z" fill="#0a0909" stroke-width="0"/>                  <path d="m232.1,332.72c0-.06-.21.34,0-1.19,1.91-1.53,4,4.23,0,1.19Z" fill="#ac167f" stroke-width="0"/>                  <path d="m247.85,317.28c2.75.38-1.98,12.11-5.94,14.85-13.59,9.41,2.89-15.28,5.94-14.85Z" fill="#b114f9" stroke-width="0"/>                </g>              </g>              <g>                <path d="m286.76,261.43s-.29.24-.59-.59c5.15-.97,9.94-11.77,15.15-11.29,10.37.96-6.73,25.89-14.56,11.88Z" fill="#b114f9" stroke-width="0"/>                <g>                  <path d="m286.76,261.43c7.82,14.01,24.93-10.92,14.56-11.88-5.21-.48-10,10.32-15.15,11.29-2.18-6.02.49-12.41.59-13.07.36-.22,1.78-.76,1.78-.89s-1.42-.67-1.78-.89c4.46-23.4,27.18-38.42,29.71-15.15,2.91,26.82-23.41,45.56-29.71,30.6Z" fill="#0a0909" stroke-width="0"/>                  <path d="m286.76,247.77c.09-.57-.11-1.22,0-1.78.36.22,1.78.76,1.78.89s-1.42.67-1.78.89Z" fill="#44ffde" stroke-width="0"/>                  <path d="m301.91,232.32c3.7-.12-2.7,12.83-5.94,14.85-12,7.49,2.32-14.74,5.94-14.85Z" fill="#b114f9" stroke-width="0"/>                </g>              </g>              <g>                <path d="m251.41,256.08c20.86-2.86,10.03,48.22-11.88,43.96-15.67-3.05-3.37-41.87,11.88-43.96Z" fill="#0a0909" stroke-width="0"/>                <path d="m247.25,285.2c10.83-1.02-1.08,17.69-9.51,13.07-4.32-2.37,7.75-12.91,9.51-13.07Z" fill="#b114f9" stroke-width="0"/>                <path d="m247.85,269.15c3.67.77-4.49,18.01-10.1,13.66-3.78-2.93,9.11-13.87,10.1-13.66Z" fill="#b114f9" stroke-width="0"/>              </g>              <g>                <path d="m306.66,271.53c18.86-1.93,10.19,42.45-7.72,45.15-21.93,3.31-9.04-43.44,7.72-45.15Z" fill="#0a0909" stroke-width="0"/>                <path d="m301.91,300.05c10.62-1.32-.92,20.08-9.51,14.85-5.63-3.43,7.83-14.65,9.51-14.85Z" fill="#b114f9" stroke-width="0"/>                <path d="m302.5,284.01c3.96,0-3.12,22.53-13.96,13.96,7.31-2.03,12.3-13.96,13.96-13.96Z" fill="#b114f9" stroke-width="0"/>              </g>            </g>          </g>        </g>        <g>          <path d="m31.3,74.88c-7.17,10.18-16.01,27.61-20.79,39.21-.81,1.96-1.64,3.95-2.38,5.94-3.98,10.8-7.02,19.02-7.72,30.89-.05-15.06,1.07-19.19,6.54-33.57,2.91-7.66,18.21-40.04,24.36-42.48Z" fill="#085700" stroke-width="0"/>          <path d="m236.26,167.56c-3.43-2.62-5.23-11.38-10.1-18.42,4.55-1.71,78.89-47.93,82.58-51.09,2.27,7.7.83,20.14,5.35,19.9-25.63,16.92-51.65,33.47-77.83,49.61Z" fill="#ff61ff" stroke-width="0"/>          <g>            <path d="m153.09,148.55q-7.72,8.61-15.45,17.23-42.78-23.17-85.55-46.34c.06-.14-.04-.38,0-.59.29-1.58-1.28-7.16-1.78-9.51q2.38-6.54,4.75-13.07c6.44,6.2,87.24,48.35,98.03,52.28Z" fill="#be45ff" stroke-width="0"/>            <path d="m55.06,96.27q-2.38,6.54-4.75,13.07c-2.71-12.73-4.89-14.86-4.75-29.71,1.86,6,4.94,12.24,9.51,16.63Z" fill="#f742ff" stroke-width="0"/>          </g>          <g>            <path d="m9.91,121.22c1.55,3.66-2.8,6-2.97,6.83-.57,2.74,1.69,4.8,1.78,5.05.76,2.19.96,4.33,2.97,5.94-6.43,9.48-5.57,13.26-7.13,18.42-.34,1.11-1.63,4.25-2.97,4.16,0-.54-1.16-3.42-1.19-10.69.7-11.88,3.74-20.09,7.72-30.89.73.24,1.07.86,1.78,1.19Z" fill="#e76dff" stroke-width="0"/>            <path d="m52.09,55.28c.1.39.38.88.59,1.19-6.28,7.75-6.75,12.29-7.13,21.39-3.42-1.29-3.97-10.12-7.13-11.88,3.04-3.32,6.11-6,9.51-8.91.93-.17,3.62-1.41,4.16-1.78Z" fill="#e76dff" stroke-width="0"/>            <path d="m9.91,121.22c-.72-.33-1.05-.95-1.78-1.19.73-1.99,1.57-3.98,2.38-5.94,7.46,1.13,12.57,4.25,6.54,11.59-6.19,7.54-4.75-2.25-5.35-3.56-1.17-2.57-1.66-.83-1.78-.89Z" fill="#ff6cff" stroke-width="0"/>            <g>              <path d="m45.55,77.85c-.02.59,0,1.19,0,1.78-.13,14.85,2.05,16.97,4.75,29.71.5,2.34,2.07,7.93,1.78,9.51-12.48-.68-28.37,6.36-36.83,15.45-1.53-.2,1.87-2.37,1.78-2.67-1.2-4.12-6.78,2.51-8.32,1.49-.09-.25-2.35-2.31-1.78-5.05.17-.84,4.52-3.17,2.97-6.83.13.06.61-1.68,1.78.89.6,1.31-.85,11.1,5.35,3.56,6.03-7.34.92-10.46-6.54-11.59,4.78-11.6,13.62-29.03,20.79-39.21.05-.07.48-.23,1.19-1.19,1.87-2.54,3.83-5.42,5.94-7.72,3.15,1.77,3.71,10.59,7.13,11.88Z" fill="#22a2f2" stroke-width="0"/>              <path d="m31.89,86.17c-1.66,3.28-4.99,5.5-4.16,9.51-.06-.02-.45,1.07-1.19-.3.95-3.22-1.29-6.37-.59-9.51.49-2.21,23.25-34.01,5.94.3Z" fill="#ff6cff" stroke-width="0"/>              <path d="m25.06,102.81c3.46.24-.53,9.7-2.97,11.29-8.51,5.55-1.47-11.59,2.97-11.29Z" fill="#fb5b9c" stroke-width="0"/>              <path d="m27.73,95.68c-.83-4,2.5-6.22,4.16-9.51,7.15-4.73,2.59,12.51-4.16,9.51Z" fill="#d2007f" stroke-width="0"/>            </g>            <path d="m15.25,134.29c-1.06,1.14-2.63,3.37-3.56,4.75-2.01-1.61-2.21-3.75-2.97-5.94,1.53,1.03,7.12-5.61,8.32-1.49.09.31-3.31,2.48-1.78,2.67Z" fill="#ff6cff" stroke-width="0"/>          </g>          <g>            <path d="m6.34,200.24c.06,8.31.02,16.64,0,24.95,0,.17-1.19,3.09-1.19,3.27-.08,12.33-1.41,32.29.59,42.48l-1.19,2.38c-2.05-6.69-3.51-13.22-4.16-20.2-.06-1.18.05-2.38,0-3.56-.81-20.1-.18-49.02,0-70.1.05-5.85,1.13-11.99,1.19-17.82,1.34.09,2.63-3.05,2.97-4.16,1.22,13.33.41,26.75.59,40.1,0,.15,1.19,2.53,1.19,2.67Z" fill="#be45ff" stroke-width="0"/>            <path d="m30.11,320.25c7.64,10.56,12.4,14.04,17.23,19.61,1.16,1.34,7.9,8.72,4.75,8.91-3.56-3-4.43-5.07-5.94-6.54-.38-.37-.8-.8-1.19-1.19-6.78-8.42-13.7-16.43-19.61-25.55l.59-.59c1.18,1.84,2.86,3.55,4.16,5.35Z" fill="#22a2f2" stroke-width="0"/>            <path d="m141.2,390.35q-2.08,2.08-4.16,4.16c-11.05-3.6-44.75-21.73-56.74-28.52-8.98-5.09-20.42-10.66-28.22-17.23,3.15-.19-3.59-7.57-4.75-8.91,8.93,4.01,18.66,8.87,27.63,13.66,9.05,4.83,62.49,36.31,66.24,36.83Z" fill="#c42add" stroke-width="0"/>            <path d="m52.09,118.85c-.04.21.06.45,0,.59-.03.08-1.12,1.14-1.19,1.19-.09.05.24.99-.3,1.19-1.11.42-11.27-.42-22.58,6.54-26.72,16.44-16.89,43.13-18.71,69.51-1.22.45-1.75,1.93-2.97,2.38,0-.15-1.19-2.53-1.19-2.67-.18-13.35.63-26.78-.59-40.1,1.56-5.16.7-8.93,7.13-18.42.94-1.38,2.5-3.61,3.56-4.75,8.47-9.08,24.35-16.13,36.83-15.45Z" fill="#ac167f" stroke-width="0"/>            <path d="m29.51,228.16c-2.9,8.87-9.96,8.69-17.23,4.75-.56-.53-2.79-2.75-2.97-2.97-1.08-1.31-2.64-3.11-2.97-4.75.02-8.31.06-16.64,0-24.95,1.22-.45,1.75-1.93,2.97-2.38,10.05-3.71,25.63,13.7,20.2,30.3Z" fill="#0a0909" stroke-width="0"/>            <path d="m9.31,229.94c-.78,21.03-2.94,36,4.75,55.85l-1.78,2.38c-2.22-5.26-5.45-11.7-6.54-17.23-2-10.19-.67-30.15-.59-42.48,0-.17,1.19-3.09,1.19-3.27.33,1.64,1.89,3.44,2.97,4.75Z" fill="#ba2d93" stroke-width="0"/>            <path d="m12.28,288.17c2.98,7.07,9.59,20.39,13.66,26.73l-.59.59c-6.8-10.51-17.24-30.61-20.79-42.18l1.19-2.38c1.09,5.53,4.32,11.97,6.54,17.23Z" fill="#e76dff" stroke-width="0"/>            <path d="m177.44,229.94l-3.56,3.56c-1.24-5.86-18.26-36.82-22.58-43.67-5.06-8.02-16.8-20.56-14.26-22.87h.59c17.46,15.54,34.33,55.72,39.8,62.97Z" fill="#2a0b32" stroke-width="0"/>            <g>              <path d="m193.49,236.48c-.77,5.98-.3,114.07.59,120.6,1.72,12.62,10.45,26.43,22.58,31.49-1.44,4.89.33,4.17,3.56,1.19,2.72.78,5.48,1.12,8.32,1.19-6.98,7.43-31.53,8.58-42.78,8.91-.2,0-.4,0-.59,0-17.54.45-31.36.11-48.12-5.35q2.08-2.08,4.16-4.16c14.18,1.98,31.32-17.11,33.27-30,1.61-10.65-.78-105.2-.59-126.84l3.56-3.56c4.22,5.6,8.79,8.94,16.04,6.54Z" fill="#8e156b" stroke-width="0"/>              <g>                <path d="m220.22,389.76c-3.24,2.98-5,3.71-3.56-1.19.33.14,3.05,1.04,3.56,1.19Z" fill="#590079" stroke-width="0"/>                <path d="m186.65,238.26c6.4,1.17,5.19,7.06,5.05,12.18-.01.45-1.18.15-1.19.59-.26,28.28-.19,56.68,0,84.96.06,8.93,3.41,22.83-2.67,21.09-2.77-.79-3.05-9.94-3.27-12.77-.47-6.04-.46-86.38,0-90.9.06-.63,4.72-.32,0-10.69,3.25-.11.98-3.57,2.08-4.46Z" fill="#8e156b" stroke-width="0"/>                <path d="m201.51,384.41c10.04,1.1-10.05,9.66-10.99,4.46-.56-3.1,9.35-4.64,10.99-4.46Z" fill="#0a0909" stroke-width="0"/>                <path d="m167.05,386.79c5.6-1.08,17.13,2.48,7.72,4.75-6.92,1.67-13.46-3.65-7.72-4.75Z" fill="#2a0b32" stroke-width="0"/>                <path d="m181.31,393.32c.79,3.13,11.89-1.15,10.4,3.27-.7,2.06-13.37,1-10.4-3.27Z" fill="#170914" stroke-width="0"/>                <path d="m164.67,393.32q5.79.45,11.59.89c-.02,1.07-10.28,2.83-11.59-.89Z" fill="#370045" stroke-width="0"/>                <path d="m206.26,390.35c.53-.22,5.12.42,5.35.59,2.59,1.97-7.03.11-5.35-.59Z" fill="#650093" stroke-width="0"/>                <path d="m198.54,394.51q2.82.15,5.64.3l-5.64.89v-1.19Z" fill="#590079" stroke-width="0"/>              </g>            </g>            <g>              <path d="m137.05,166.97c-2.54,2.32,9.2,14.85,14.26,22.87,4.31,6.84,21.34,37.8,22.58,43.67-.19,21.64,2.21,116.19.59,126.84-1.95,12.89-19.09,31.98-33.27,30-3.75-.52-57.2-32-66.24-36.83-8.97-4.79-18.7-9.65-27.63-13.66-4.83-5.57-9.59-9.04-17.23-19.61.72-.25,1.92-1.28,1.78-2.08-.32-1.82-12.54-18.74-17.82-32.38-7.69-19.85-5.54-34.81-4.75-55.85.18.22,2.41,2.44,2.97,2.97.22.21.62,2.96,4.46,4.16,6.39,2,15.47-2.16,12.77-8.91,5.43-16.6-10.15-34.01-20.2-30.3,1.82-26.38-8-53.07,18.71-69.51,11.3-6.95,21.46-6.12,22.58-6.54.54-.2.21-1.14.3-1.19q43.07,23.17,86.14,46.34Z" fill="#bd5be6" stroke-width="0"/>              <g>                <path d="m137.64,165.78v1.19h-.59q-43.07-23.17-86.14-46.34c.07-.04,1.16-1.11,1.19-1.19q42.78,23.17,85.55,46.34Z" fill="#08f2f2" stroke-width="0"/>                <g>                  <path d="m30.11,320.25c-1.3-1.8-2.98-3.5-4.16-5.35-4.07-6.35-10.68-19.66-13.66-26.73l1.78-2.38c5.29,13.64,17.51,30.55,17.82,32.38.14.8-1.06,1.83-1.78,2.08Z" fill="#c42add" stroke-width="0"/>                  <path d="m12.28,232.91c7.27,3.94,14.33,4.12,17.23-4.75,2.69,6.75-6.39,10.91-12.77,8.91-3.84-1.2-4.23-3.95-4.46-4.16Z" fill="#dd74ff" stroke-width="0"/>                  <path d="m44.07,150.93c13.54-2.79,27.94,22.39,22.28,33.57-1.41,2.78-12.01,7.97-20.5,2.67-12.32-7.69-14.24-33.68-1.78-36.24Z" fill="#0a0909" stroke-width="0"/>                  <path d="m68.13,294.11c5.59,22.22-17.24,24.52-26.14,8.61-3.58-6.4-4.63-18.74,1.19-24.06,9.96-9.11,22.63,6.21,24.95,15.45Z" fill="#0a0909" stroke-width="0"/>                  <g>                    <path d="m121.3,254.3c18.07-3.77,31.67,43,8.32,39.8-16.65-2.28-22.13-36.92-8.32-39.8Z" fill="#0a0909" stroke-width="0"/>                    <path d="m152.79,267.37c18.29-3.66,27.9,35.03,10.69,37.43-17.41,2.43-24.83-34.6-10.69-37.43Z" fill="#0a0909" stroke-width="0"/>                  </g>                  <path d="m124.87,319.65c14.42-1.12,27.38,29.31,13.07,34.46-20.84,7.5-30.76-33.08-13.07-34.46Z" fill="#0a0909" stroke-width="0"/>                  <path d="m125.46,197.86c12.63-1.61,26.58,26.07,14.85,33.86-16.14,10.73-33.37-31.5-14.85-33.86Z" fill="#0a0909" stroke-width="0"/>                  <g>                    <path d="m96.65,167.56c12.9,11.33,8.49,26.06-4.16,23.76-17.33-3.15-20.25-45.2,4.16-23.76Z" fill="#0a0909" stroke-width="0"/>                    <path d="m96.05,204.4c-.52,9.12-12.31,7.77-15.45-2.97,1.94-17.1,15.95-5.89,15.45,2.97Z" fill="#0a0909" stroke-width="0"/>                  </g>                  <g>                    <path d="m85.06,319.65c20.11-5.04,32.31,44.1,4.75,27.33-16.9-10.29-11.1-25.74-4.75-27.33Z" fill="#0a0909" stroke-width="0"/>                    <path d="m96.65,310.15c-.13,4.22-2.41,5.91-6.54,5.94-4.47-1.78-9.55-6.98-8.32-12.18,1.73-7.29,15.14-3.13,14.85,6.24Z" fill="#0a0909" stroke-width="0"/>                  </g>                  <g>                    <path d="m99.02,263.81c1.43,18.88-18.63,14.38-20.2.59-1.93-16.94,19.04-15.94,20.2-.59Z" fill="#0a0909" stroke-width="0"/>                    <path d="m87.44,233.51c7.88-.5,13.6,13.46,6.54,15.45-10.48,2.95-16.27-14.83-6.54-15.45Z" fill="#0a0909" stroke-width="0"/>                  </g>                  <path d="m43.18,278.66c-5.81,5.32-4.77,17.66-1.19,24.06,8.9,15.91,31.73,13.61,26.14-8.61,5.28,2.47,3.64,14.5-2.08,18.42-8.84,6.05-20.59.33-25.84-8.02-8.91-14.16,1.72-33.59,2.97-25.84Z" fill="#f742ff" stroke-width="0"/>                  <path d="m78.82,264.4c1.57,13.78,21.63,18.28,20.2-.59,4.56-5.58,3.13,13.69-5.05,15.45-9.16,1.96-19.35-9.02-15.15-14.85Z" fill="#f742ff" stroke-width="0"/>                  <path d="m92.49,191.33c12.64,2.3,17.06-12.44,4.16-23.76,2.45-3.28,11.97,8.47,10.1,18.12-1.6,8.27-15.03,9.38-14.26,5.64Z" fill="#f742ff" stroke-width="0"/>                  <path d="m96.05,204.4c2.94-5.39,2.99,6.39-2.67,8.32-4.07,1.38-9.14-1.01-11.59-4.46-3.66-5.15-1.23-6.45-1.19-6.83,3.13,10.74,14.93,12.09,15.45,2.97Z" fill="#dd74ff" stroke-width="0"/>                  <g>                    <path d="m40.8,245.39c-2.06-1.89-5.74-7.88-6.54-10.69-7.02-24.85,13.15-30.93,24.36-10.99,11.08,19.71-3.48,34.81-17.82,21.68Z" fill="#0a0909" stroke-width="0"/>                    <path d="m40.8,245.39c-1.13,3.68-8.78-8.33-6.54-10.69.8,2.82,4.47,8.81,6.54,10.69Z" fill="#f742ff" stroke-width="0"/>                  </g>                  <path d="m90.11,316.09c4.12-.03,6.4-1.72,6.54-5.94,2.6-1.72,1.67,8.3-5.05,7.13-.4-.07-1.4-1.15-1.49-1.19Z" fill="#dd74ff" stroke-width="0"/>                </g>              </g>            </g>          </g>          <g>            <path d="m316.46,56.47c.15.1,1,1.05,1.19,1.19.81,2.36,1.75,4.03,2.38,6.54q-2.82-2.97-5.64-5.94c-20.62-8.79-74.41-41.96-88.52-47.53C198.43-.1,160.07.87,132.59,11.31c-13.82,5.25-62.13,35.99-79.02,46.34-1.31.2-.75-.98-.89-1.19-.21-.31-.5-.8-.59-1.19,10.3-7.15,71.71-44.42,79.91-47.53.73-.28,1.04.86,1.78.59,29.34-10.56,64.53-11.68,93.87,0,4.69,1.87,84.66,45.25,88.82,48.12Z" fill="#6bfffc" stroke-width="0"/>            <g>              <path d="m320.03,64.19c3.27,12.99-1.18,25.19-11.29,33.86-3.69,3.16-78.03,49.39-82.58,51.09-9.97,3.73-25.56,5.35-36.24,5.35-12.52,0-25.02-1.64-36.83-5.94-10.79-3.93-91.59-46.08-98.03-52.28-4.56-4.39-7.65-10.64-9.51-16.63,0-.59-.02-1.19,0-1.78.38-9.1.85-13.64,7.13-21.39.14.21-.42,1.39.89,1.19,16.88-10.35,65.19-41.09,79.02-46.34C160.07.87,198.43-.1,225.86,10.72c14.11,5.57,67.9,38.74,88.52,47.53q2.82,2.97,5.64,5.94Z" fill="#46edd3" stroke-width="0"/>              <g>                <path d="m133.48,32.7c-5.8,5.85-6.93,10.66.59,15.45,8.06,5.12,22.37,4.53,30.3-.59,14.84-9.59-5.3-22.33-24.36-17.82-1.31.31-4.45,1.76-5.35,2.97h-.59c5.8-6.84,15.34-4.58,22.87-3.56,2.73.37,1.58-1.46,3.56-1.19,2.81.39,15.97,6.69,11.59,16.93-7.28,17.03-54.32,10.87-45.15-8.91,1.4-3.02,3.64-5.1,6.54-3.27Z" fill="#6bfffc" stroke-width="0"/>                <path d="m185.76,77.26c33.63-3.27,8.69-32.81-17.53-19.01-8.6,4.53-5.62,9.74-5.64,12.48-.06,7.03-11.3-8.04,4.46-15.45,7.68,1.74,15.62-3.38,23.76,0-.21-4.3,16.21,1.27,15.15,11.59-1.09,10.65-18.1,15.8-20.2,10.4Z" fill="#6bfffc" stroke-width="0"/>                <path d="m198.24,36.86c-10.29,18.93,43.34,20.37,38.62,1.49-.43-1.73-3.52-3.79-4.75-5.05-3.14-3.21-6.93-4.53-3.27-4.75,1.12-.07,14.84,5.52,10.99,16.34-4.93,13.86-37.03,12.3-45.15,1.19l1.19-7.13c1.25-2.68,2.28-1.95,2.38-2.08Z" fill="#6bfffc" stroke-width="0"/>                <path d="m132.29,84.39c-.47.38-.53.53-.59.59-6.24,6.01-7.17,10.33,1.19,15.45,3.53,7.12-16.11-3.93-5.94-15.74,1.6-1.86,8.24-5.53,10.4-5.64,7.07-.39.1,1.15-5.05,5.35Z" fill="#6bfffc" stroke-width="0"/>                <g>                  <path d="m185.76,77.26c-8.17.8-17.24-.53-23.17-6.54.02-2.73-2.96-7.95,5.64-12.48,26.22-13.8,51.15,15.74,17.53,19.01Z" fill="#0a0909" stroke-width="0"/>                  <path d="m177.44,62.41c-15.2,12.65,19.69,13,11.29,2.97-.95-2.78,10.27,2.61,6.83,5.94-1.26,1.22-8.92,3.98-10.69,4.16-17.45,1.76-29.47-13.03-7.43-13.07Z" fill="#6e00de" stroke-width="0"/>                  <path d="m188.73,65.38c8.41,10.02-26.49,9.68-11.29-2.97,1.35,0,1,.17,1.49,1.19,2.39-1.69,8.5.23,9.8,1.78Z" fill="#2a0b32" stroke-width="0"/>                </g>                <g>                  <path d="m164.37,47.55c-1.49-.84-5.97,3.56-5.94.59,9.55-3.62,5.49-6.15-1.49-9.51-1.55,1.08-.15,1.27-.3,1.78-.86,3.04.58,3.49-2.97,4.75,1.25-.54,1.78-5.74-.3-6.54-5.03-1.92-5.23,8.95.3,6.54-1.51.54-7.09,1.05-8.02,0-.77-.87,2.35-4.48-2.08-7.13-.05-.03,1.09-.48-.3-1.19-16.35,3.88-10.71,4.2-5.64,10.69.71.9,1.85.76.89,1.78l-4.46-1.19c-7.53-4.78-6.39-9.6-.59-15.45.14.09.43-.06.59,0h.59c-6.01,8.17,10.76,4.06,5.35-2.97,19.06-4.51,39.2,8.24,24.36,17.82Z" fill="#0a0909" stroke-width="0"/>                  <path d="m143.58,38.05c-11.43,8.64,17.67,13.38,13.07,2.38.14-.51-1.26-.7.3-1.78,6.97,3.36,11.04,5.88,1.49,9.51-7.28,2.76-13.68,1.86-20.79-.59-5.07-6.49-10.71-6.82,5.64-10.69,1.39.7.24,1.16.3,1.19Z" fill="#6e00de" stroke-width="0"/>                  <path d="m164.37,47.55c-7.93,5.12-22.24,5.72-30.3.59l4.46,1.19c.96-1.02-.19-.88-.89-1.78,7.11,2.46,13.51,3.36,20.79.59-.03,2.97,4.45-1.43,5.94-.59Z" fill="#00008a" stroke-width="0"/>                  <path d="m153.68,45.18c3.55-1.26,2.11-1.71,2.97-4.75,4.6,11-24.5,6.26-13.07-2.38,4.43,2.64,1.31,6.26,2.08,7.13.93,1.05,6.51.54,8.02,0Z" fill="#2a0b32" stroke-width="0"/>                  <path d="m134.67,32.7c.89-1.21,4.03-2.66,5.35-2.97,5.41,7.03-11.36,11.14-5.35,2.97Z" fill="#8e156b" stroke-width="0"/>                  <path d="m153.68,45.18c-5.53,2.41-5.33-8.45-.3-6.54,2.08.79,1.54,5.99.3,6.54Z" fill="#3e0733" stroke-width="0"/>                </g>                <g>                  <path d="m132.89,100.43c-8.36-5.12-7.43-9.44-1.19-15.45-.73,8.46,11.39.3,4.16-2.38,13.57-5.73,30.57.54,32.68,6.24,4.55,12.32-21.46,20.26-35.65,11.59Z" fill="#0a0909" stroke-width="0"/>                  <path d="m131.7,84.98c.07-.07.12-.21.59-.59,1.21-.53,2.35-1.27,3.56-1.78,7.23,2.68-4.89,10.83-4.16,2.38Z" fill="#8e156b" stroke-width="0"/>                  <path d="m144.18,89.14c-11.98,5.38-1.07,11.72,10.69,7.72,1.89-.64,5.15-2.7,4.75-4.75.25.14,2.17.05,4.75,3.27-16.22,17.95-47.53-3.09-25.84-6.83,7.17-1.24,5.32.53,5.64.59Z" fill="#6e00de" stroke-width="0"/>                  <g>                    <path d="m153.68,90.33c-1.18,1.52,4.51,2.19,1.19,6.54-11.76,4-22.68-2.34-10.69-7.72,1.41.28,1.56.31,2.08,1.78,1.74-2.34,5-.91,7.43-.59Z" fill="#2a0b32" stroke-width="0"/>                    <path d="m159.62,92.11c.4,2.05-2.86,4.11-4.75,4.75,3.32-4.35-2.37-5.02-1.19-6.54,3.06.39,3.05.11,5.94,1.78Z" fill="#6e00de" stroke-width="0"/>                    <path d="m148.04,90.33c3.79-.69,3.34,5.15.59,5.35-2.77.2-3.39-4.84-.59-5.35Z" fill="#3e0733" stroke-width="0"/>                  </g>                </g>                <g>                  <path d="m232.1,33.3c1.23,1.26,4.32,3.32,4.75,5.05,4.72,18.89-48.91,17.45-38.62-1.49,1.53-2.09,2.05-2.29,4.16-3.56-4.43,8.91,8.69,4.28,4.75-2.38,8.89-2.72,16.86-2.18,24.95,2.38Z" fill="#0a0909" stroke-width="0"/>                  <path d="m207.15,30.92c3.93,6.66-9.18,11.29-4.75,2.38,1.64-.99.98-1.22,4.75-2.38Z" fill="#a900ca" stroke-width="0"/>                  <path d="m223.78,44.58c.31-.07.96.96,2.67.59.24-.05.56-1.73,1.19-1.78.36-.03,4.33,5.03,1.49-2.38,1.09.62,3.03,2.22,2.97,3.56-3.34,6.65-28.49,9.78-32.08-3.86l10.69-3.27c-6.12,8.38,1.77,9.91,9.21,9.51,1.08-.45,3.3-2.26,3.86-2.38Z" fill="#6e00de" stroke-width="0"/>                  <path d="m232.1,44.58c.06-1.35-1.88-2.94-2.97-3.56-5.32-3.03-5.82-2.48-5.35,3.56-.56.12-2.78,1.92-3.86,2.38-7.44.4-15.33-1.12-9.21-9.51l2.08-.59c2.46,3.95,7.39,3,8.91,8.32l1.78-7.13c3.06-.22,10.22,3.34,8.61,6.54Z" fill="#2a0b32" stroke-width="0"/>                  <path d="m229.13,41.02c2.85,7.4-1.13,2.35-1.49,2.38-.63.05-.95,1.73-1.19,1.78-1.71.37-2.37-.66-2.67-.59-.47-6.05.03-6.6,5.35-3.56Z" fill="#6e00de" stroke-width="0"/>                </g>                <g>                  <path d="m216.95,77.26c5.2-.11,21.23,3.22,23.47,8.61,8.87,21.41-34.87,27.56-43.96,13.07-8.56-13.63,9.52-21.45,20.5-21.68Z" fill="#6bfffc" stroke-width="0"/>                  <g>                    <path d="m232.7,99.84c-1.63-.74-5.55,3.26-5.35.59,1.52-.68,5.95-3.48,5.94-5.35-.03-4.94-15.57-5.68-19.01-5.94-.06,0,.19-1.15-.3-1.19-12.62.06-18.08,6.91-6.24,12.48-1.61,2.53-4.15-1.34-4.75,0-7.79-5.08-7.21-10.7,0-16.04-3.08,6.99,11.47,2.77,3.56-2.38,18.04-6.76,42.68,6.67,26.14,17.82Z" fill="#0a0909" stroke-width="0"/>                    <path d="m232.7,99.84c-7.94,5.35-21.52,5.93-29.71.59.61-1.34,3.14,2.53,4.75,0,6.55,3.07,13.07,2.94,19.61,0-.2,2.66,3.71-1.34,5.35-.59Z" fill="#2a0b32" stroke-width="0"/>                    <path d="m202.99,84.39c.17-.13.69-1.3,3.56-2.38,7.9,5.14-6.65,9.37-3.56,2.38Z" fill="#ac167f" stroke-width="0"/>                    <path d="m214.28,89.14c-14.85,6.86,4.5,11.99,10.4,8.32,5.72-3.56-6.47-6.03-4.75-7.13,4.83.59,9.59,1.55,13.37,4.75.01,1.86-4.42,4.66-5.94,5.35-6.54,2.94-13.06,3.07-19.61,0-11.85-5.56-6.39-12.42,6.24-12.48.49.04.24,1.18.3,1.19Z" fill="#6e00de" stroke-width="0"/>                    <path d="m233.29,95.08c-3.78-3.2-8.54-4.16-13.37-4.75-1.72,1.1,10.47,3.57,4.75,7.13-5.9,3.67-25.24-1.46-10.4-8.32,3.44.26,18.98,1,19.01,5.94Z" fill="#2a0b32" stroke-width="0"/>                  </g>                </g>                <g>                  <path d="m184.87,104.59c1.46-.23,21.07,3.72,21.68,13.37,1.49,23.58-58.13,19.18-46.34-4.16.88-1.74,8.74-8.75,9.8-4.46,5.06-2.82,9.64-2.06,11.29-2.38.24-.05-.43-1.76,3.56-2.38Z" fill="#6bfffc" stroke-width="0"/>                  <g>                    <path d="m166.75,112.31c-.92,8.15,10.07,1.7,4.16-2.38,19.52-7.71,41.86,7.03,27.03,17.23-15.74,10.83-48.44-1.7-31.19-14.85Z" fill="#0a0909" stroke-width="0"/>                    <path d="m166.75,112.31c1.87-1.42,1.84-1.46,4.16-2.38,5.91,4.08-5.08,10.53-4.16,2.38Z" fill="#ac167f" stroke-width="0"/>                    <path d="m179.82,116.47c-13.99,6.15-.23,10.34,7.72,8.32,6.53-1.66,3.68-4.28,0-7.13,20.97,2.99,4.49,13.74-9.21,11.88-9.38-1.27-23.89-13.54,1.49-13.07Z" fill="#6e00de" stroke-width="0"/>                    <path d="m181.6,117.66c-.49,3.28,3.28,6.21,5.94,7.13-7.95,2.03-21.71-2.17-7.72-8.32.76.01,1,1.13,1.78,1.19Z" fill="#2a0b32" stroke-width="0"/>                    <path d="m187.54,117.66c3.68,2.85,6.53,5.47,0,7.13-2.66-.92-6.43-3.85-5.94-7.13.3.02,4.2-1.66,5.94,0Z" fill="#00008a" stroke-width="0"/>                  </g>                </g>                <g>                  <path d="m248.44,52.9c33.43-2.36,36.13,26.44,6.54,27.92-30.12,1.51-35.33-25.89-6.54-27.92Z" fill="#6bfffc" stroke-width="0"/>                  <g>                    <path d="m239.23,58.25c-3.09,3.26-2.31,5.33,2.38,4.75-1.57.52-5.9.96-6.54,2.67-1.05,2.82,3.08,9.2,5.35,7.43,11.22,6.93,27.76-.04,26.73-3.86-.43-1.63-6.77-3.26-8.32-3.86-.64-.25-2.79-.35-3.56-.59-.91-.29-2.55.26-5.64-3.56-2.18.93-5.93.54-6.24.59,1.57-2.2.98-2.97.59-5.35,25.26-5.92,39.17,14.07,18.12,20.2-21.33,6.21-40.57-9.13-22.87-18.42Z" fill="#0a0909" stroke-width="0"/>                    <path d="m243.98,56.47c.38,2.38.97,3.15-.59,5.35-1.14.21-1.68,1.15-1.78,1.19-4.68.58-5.47-1.5-2.38-4.75,2.19-1.15,2.31-1.21,4.75-1.78Z" fill="#a900ca" stroke-width="0"/>                    <path d="m248.74,63c-18.05,11.13,13.06,11.41,13.07,6.24,0-.92-4.47-2.81-2.97-3.86,1.55.6,7.88,2.23,8.32,3.86,1.02,3.83-15.51,10.8-26.73,3.86-13.7-8.46,7.58-10.94,8.32-10.1Z" fill="#6e00de" stroke-width="0"/>                    <path d="m255.27,64.78c.77.25,2.93.35,3.56.59-1.5,1.05,2.97,2.94,2.97,3.86,0,5.17-31.12,4.9-13.07-6.24,1.92,2.19-.92,7.45.3,8.32,4.37,3.1,6.59-2.88,6.24-6.54Z" fill="#00008a" stroke-width="0"/>                    <path d="m255.27,64.78c.36,3.65-1.87,9.63-6.24,6.54-1.22-.87,1.62-6.13-.3-8.32-.73-.84-22.02,1.64-8.32,10.1-2.27,1.77-6.4-4.61-5.35-7.43.64-1.71,4.97-2.15,6.54-2.67.1-.03.64-.98,1.78-1.19.31-.06,4.06.34,6.24-.59,3.1,3.83,4.74,3.27,5.64,3.56Z" fill="#2a0b32" stroke-width="0"/>                  </g>                </g>                <g>                  <path d="m112.98,52.9c6.37-.89,22.17,2.81,23.47,10.4,4.88,28.52-64.17,17.81-43.67-3.27,5.52-5.68,6.72-2.25,7.13-2.38,1.1-.34,6.18-2.89,6.54-2.97.26-.06.49.86,5.35,0,.24-.04.52-1.69,1.19-1.78Z" fill="#6bfffc" stroke-width="0"/>                  <path d="m99.02,59.44l-1.19,5.35c-2.98,2.65-2.44,3.96,0,6.54,5.58,5.87,20.64,6.03,27.03,1.78,8.05-5.35-5.87-8.71-6.24-8.02,6.14,7.56-6.71,9.92-11.88,6.83q5.5-.3,10.99-.59c-2.1-1.62-.68-1.94-.89-4.46-.9-2.05-5.01-.24-8.02-5.05-2.54.78-5.93.52-6.24.59,1.46-2.33,3.18-3.52,0-4.75,23.93-7.9,41.01,9.65,22.87,17.82-17.92,8.07-45.86-4.04-26.44-16.04Z" fill="#0a0909" stroke-width="0"/>                  <path d="m102.59,57.65c3.18,1.24,1.46,2.42,0,4.75-.26.07-4.55,2.2-4.75,2.38l1.19-5.35c.41-.25,0-.61,3.56-1.78Z" fill="#ac167f" stroke-width="0"/>                  <path d="m106.75,71.91c5.17,3.09,18.02.72,11.88-6.83.37-.69,14.29,2.67,6.24,8.02-6.39,4.25-21.45,4.09-27.03-1.78-4.05-6.28,4.11-6.94,10.4-8.32-2.78,3.13-6.31,6.03-1.49,8.91Z" fill="#6e00de" stroke-width="0"/>                  <g>                    <path d="m106.75,71.91c-4.83-2.88-1.3-5.78,1.49-8.91-6.28,1.38-14.44,2.04-10.4,8.32-2.44-2.57-2.98-3.89,0-6.54.2-.18,4.5-2.31,4.75-2.38.3-.08,3.7.19,6.24-.59,3.01,4.81,7.12,3,8.02,5.05.21,2.51-1.21,2.84.89,4.46q-5.5.3-10.99.59Z" fill="#2a0b32" stroke-width="0"/>                    <path d="m112.98,66.57c4.42-2.11,3.4,4.65.59,4.16-1.12-.19-2.44-3.28-.59-4.16Z" fill="#6b135e" stroke-width="0"/>                  </g>                </g>              </g>            </g>          </g>        </g>      </g>    </g>  </g></svg>