<?xml version="1.0" encoding="UTF-8"?><svg id="Layer_2" xmlns="http://www.w3.org/2000/svg" viewBox="0 0 978.13 994.5"><defs><style>.cls-1,.cls-2{fill:none;stroke:#f6871f;stroke-linecap:round;stroke-linejoin:round;stroke-width:50px;}.cls-3{fill:#cc4097;}.cls-2{stroke-dasharray:0 0 12 70;}</style></defs><g id="Layer_1-2"><g><path class="cls-2" d="M218.13,939.25s22.89-436.8,186.5-436.8c198.19,0,217.83,443.88,217.83,443.88,0,0,17.6-235.05,141.31-235.05,130.36,0,165.68,228.48,165.68,228.48"/><path class="cls-1" d="M48.67,48.67c80.73,187.31,169.46,841.9,169.46,890.58"/><rect class="cls-3" x="14.26" y="14.26" width="68.84" height="68.84" transform="translate(48.67 -20.16) rotate(45)"/><rect class="cls-3" x="183.72" y="904.83" width="68.84" height="68.84" transform="translate(728.04 120.86) rotate(45)"/><rect class="cls-3" x="588.05" y="911.4" width="68.84" height="68.84" transform="translate(851.12 -163.13) rotate(45)"/><rect class="cls-3" x="895.04" y="904.83" width="68.84" height="68.84" transform="translate(936.38 -382.13) rotate(45)"/></g></g></svg>