<?xml version="1.0" encoding="UTF-8"?><svg id="Layer_2" xmlns="http://www.w3.org/2000/svg" viewBox="0 0 992.74 993.8"><defs><style>.cls-1{stroke-width:24.12px;}.cls-1,.cls-2,.cls-3,.cls-4,.cls-5,.cls-6,.cls-7,.cls-8,.cls-9{fill:none;}.cls-1,.cls-2,.cls-3,.cls-4,.cls-5,.cls-6,.cls-7,.cls-9{stroke-linejoin:round;}.cls-1,.cls-2,.cls-5,.cls-6,.cls-7,.cls-8{stroke-linecap:round;}.cls-1,.cls-8{stroke:#fff200;}.cls-10{fill:#cc4097;}.cls-2,.cls-3,.cls-4,.cls-6,.cls-9{stroke:#cc4097;}.cls-2,.cls-3,.cls-4,.cls-9{stroke-width:110px;}.cls-3,.cls-4,.cls-9{stroke-linecap:square;}.cls-4{stroke-dasharray:0 0 0 0 10.13 162.14 .01 0;}.cls-5,.cls-7{stroke:#f6871f;}.cls-5,.cls-8{stroke-width:31px;}.cls-6{stroke-width:20px;}.cls-7{stroke-width:18.13px;}.cls-8{stroke-miterlimit:10;}.cls-9{stroke-dasharray:0 0 .01 0;}</style></defs><g id="Layer_1-2"><g><g><g><polyline class="cls-1" points="234.74 473.64 234.74 306.92 675.96 306.92 675.96 748.14 504.27 748.14"/><polyline class="cls-7" points="527.5 446.12 623.98 349.64 590.21 349.64"/><line class="cls-7" x1="623.98" y1="384.61" x2="623.98" y2="349.64"/></g><g><rect class="cls-7" x="169.31" y="478.67" width="331.66" height="331.66"/><g><line class="cls-8" x1="200.32" y1="770.62" x2="449.7" y2="770.62"/><line class="cls-8" x1="213.68" y1="519.27" x2="213.68" y2="782.99"/><polyline class="cls-6" points="193.73 527.34 213.77 507.86 233.25 527.34"/><polyline class="cls-6" points="439.96 750.86 459.44 770.9 439.96 790.39"/><path class="cls-5" d="M213.68,681.81c36.5,7.3,78.67,51.95,83.87,88.82"/></g></g></g><g><path class="cls-3" d="M937.74,536.76c0,1.67-.01,3.34-.03,5"/><path class="cls-9" d="M903.6,699.16s0,0,0,.01"/><path class="cls-4" d="M903.59,699.17c-62.4,141.14-203.64,239.63-367.89,239.63H138.68"/><line class="cls-3" x1="138.66" y1="938.8" x2="133.66" y2="938.8"/></g><path class="cls-2" d="M133.66,134.72h402.04c222.04,0,402.04,180,402.04,402.04h0"/><polygon class="cls-10" points="0 134.72 233.34 269.43 233.34 0 0 134.72"/></g></g></svg>