<?xml version="1.0" encoding="UTF-8"?><svg id="Layer_2" xmlns="http://www.w3.org/2000/svg" viewBox="0 0 992.1 994.28"><defs><style>.cls-1{fill:#f6871f;stroke:#f6871f;}.cls-1,.cls-2{stroke-width:39.5px;}.cls-1,.cls-2,.cls-3,.cls-4,.cls-5{stroke-miterlimit:10;}.cls-2{fill:#fff200;stroke:#fff200;}.cls-6{fill:#2d429b;}.cls-3{stroke:#2d429b;stroke-width:41.97px;}.cls-3,.cls-4,.cls-5{fill:none;}.cls-4{stroke-dasharray:0 0 11.68 29.19;stroke-linecap:round;stroke-width:21.4px;}.cls-4,.cls-5{stroke:#cc4097;}.cls-5{stroke-width:21.26px;}</style></defs><g id="Layer_1-2"><g><rect class="cls-5" x="10.63" y="137.07" width="846.59" height="846.59" rx="52.91" ry="52.91"/><path class="cls-4" d="M932.96,10.7H206.45c-26.7,0-48.43,21.74-48.43,48.43s21.74,48.43,48.43,48.43H884.53V785.64c0,26.7,21.74,48.43,48.43,48.43s48.43-21.74,48.43-48.43V59.14c0-26.7-21.74-48.43-48.43-48.43Z"/><g><rect class="cls-1" x="379.29" y="243.02" width="109.27" height="109.27" transform="translate(337.57 -219.65) rotate(45)"/><rect class="cls-2" x="379.29" y="768.43" width="109.27" height="109.27" transform="translate(-454.9 547.9) rotate(-45)"/><path class="cls-3" d="M556.02,812.16c95.25-45.6,161.04-142.88,161.04-255.53,0-79.36-32.65-151.09-85.25-202.5"/><path class="cls-3" d="M301.33,306.4c-89.55,47.55-150.54,141.77-150.54,250.23,0,80.12,33.28,152.47,86.78,203.98"/><polygon class="cls-6" points="556.02 306.4 607.46 431.57 690.14 324.43 556.02 306.4"/><polygon class="cls-6" points="305.11 808.34 253.67 683.17 170.99 790.3 305.11 808.34"/></g></g></g></svg>