<?xml version="1.0" encoding="UTF-8"?><svg id="Layer_2" xmlns="http://www.w3.org/2000/svg" viewBox="0 0 892.98 940.12"><g id="Layer_1-2"><path d="M43.21,532.14h0c-15.15,0-28-11.81-28-26.96l-.21-68.59c0-15.15,12.52-26.83,27.67-26.83h0c15.15,0,27.91,11.86,27.91,27.01l.4,68.49c0,15.15-12.61,26.88-27.76,26.88Z" fill="none" stroke="#cc4097" stroke-miterlimit="10" stroke-width="30"/><path d="M146.1,700.34h-2.99c-14.33,0-26.23-11.39-26.23-25.72l-.66-406.72c0-14.33,11.73-25.65,26.06-25.65h0c15.97,0,29.15,12.73,29.15,28.7l.8,403.7c0,14.33-11.8,25.69-26.13,25.69Z" fill="none" stroke="#fff200" stroke-miterlimit="10" stroke-width="30"/><path d="M245.21,611.18h0c-15.15,0-27.81-11.97-27.81-27.12l-.47-226.29c0-15.15,12.44-27.03,27.59-27.03h0c15.15,0,27.72,12.02,27.72,27.17l.64,226.19c0,15.15-12.52,27.08-27.67,27.08Z" fill="none" stroke="#f6871f" stroke-miterlimit="10" stroke-width="30"/><path d="M346.67,819.89h0c-15.15,0-27.67-12.08-27.67-27.23l-.84-641.44c0-15.15,12.38-27.18,27.53-27.18h0c15.15,0,27.61,12.12,27.61,27.27l.97,641.37c0,15.15-12.44,27.21-27.59,27.21Z" fill="none" stroke="#fff200" stroke-miterlimit="10" stroke-width="30"/><path d="M447.8,925.12h0c-15.15,0-27.64-12.11-27.64-27.26l-.98-855.66c0-15.15,12.37-27.21,27.52-27.21h0c15.15,0,27.58,12.14,27.58,27.29l1.09,855.59c0,15.15-12.42,27.24-27.57,27.24Z" fill="none" stroke="#cc4097" stroke-miterlimit="10" stroke-width="30"/><path d="M548.42,819.89h0c-15.15,0-27.67-12.08-27.67-27.23l-.84-641.44c0-15.15,12.38-27.18,27.53-27.18h0c15.15,0,27.61,12.12,27.61,27.27l.97,641.37c0,15.15-12.44,27.21-27.59,27.21Z" fill="none" stroke="#fff200" stroke-miterlimit="10" stroke-width="30"/><path d="M648.72,611.18h0c-15.15,0-27.81-11.97-27.81-27.12l-.47-226.29c0-15.15,12.44-27.03,27.59-27.03h0c15.15,0,27.72,12.02,27.72,27.17l.64,226.19c0,15.15-12.52,27.08-27.67,27.08Z" fill="none" stroke="#f6871f" stroke-miterlimit="10" stroke-width="30"/><path d="M749.86,700.33h0c-15.15,0-27.73-12.04-27.73-27.19l-.65-403.79c0-15.15,12.4-27.12,27.55-27.12h0c15.15,0,27.65,12.08,27.65,27.23l.8,403.7c0,15.15-12.48,27.16-27.63,27.16Z" fill="none" stroke="#fff200" stroke-miterlimit="10" stroke-width="30"/><path d="M850.22,532.14h0c-15.15,0-28-11.81-28-26.96l-.21-68.59c0-15.15,12.52-26.83,27.67-26.83h0c15.15,0,27.91,11.86,27.91,27.01l.4,68.49c0,15.15-12.61,26.88-27.76,26.88Z" fill="none" stroke="#cc4097" stroke-miterlimit="10" stroke-width="30"/><path d="M683.57,424.33c-.12-8.4-6.5-15.45-14.84-16.41l-45.5-5.2-17.73-35.56,23.21-39.47c4.26-7.24,2.47-16.58-4.17-21.73l-65.41-50.7c-2.92-2.26-6.57-3.51-10.26-3.51-4.46,0-8.66,1.73-11.83,4.89l-32.43,32.32-38.85-8.31-16.39-42.76c-2.46-6.43-8.75-10.75-15.64-10.75-1.32,0-2.66.16-3.95.47l-80.42,19.53c-8.17,1.98-13.62,9.77-12.7,18.12l5.05,45.51-30.72,25.2-43.64-13.85c-1.65-.52-3.35-.78-5.07-.78-6.49,0-12.45,3.8-15.19,9.69l-34.87,75.05c-3.54,7.62-.85,16.75,6.25,21.23l38.73,24.43.55,39.72-38.04,25.49c-6.98,4.68-9.41,13.87-5.67,21.39l36.94,74.06c2.85,5.72,8.6,9.28,14.99,9.28,1.87,0,3.72-.32,5.5-.93l43.25-15.05,31.4,24.34-3.79,45.63c-.7,8.37,4.97,16.01,13.19,17.77l80.93,17.3c1.15.24,2.33.37,3.51.37,7.09,0,13.44-4.5,15.79-11.19l15.2-43.2,38.61-9.37,33.31,31.41c3.12,2.94,7.21,4.56,11.5,4.56,3.86,0,7.63-1.34,10.62-3.8l63.98-52.49c6.5-5.32,8.03-14.71,3.58-21.83l-24.3-38.82,16.74-36.03,45.34-6.45c8.32-1.19,14.5-8.42,14.38-16.82l-1.14-82.75ZM584.3,475.55l-44.18,95.07,21.38,34.16-5.15,4.22-29.31-27.64-101.88,24.74-13.38,38.01-6.51-1.39,3.34-40.16-82.86-64.23-38.06,13.24-2.97-5.95,33.47-22.43-1.44-104.83-34.09-21.5,2.81-6.04,38.41,12.19,81.06-66.49-4.45-40.05,6.47-1.57,14.42,37.62,102.52,21.92,28.55-28.44,5.26,4.07-20.43,34.74,46.79,93.82,40.03,4.58.09,6.65-39.89,5.69Z" fill="#fff" stroke="#2d429b" stroke-miterlimit="10" stroke-width="3"/><circle cx="445.43" cy="470.06" r="60.39" fill="#fff"/><polygon points="572.43 568.39 599.18 611.12 553.22 648.82 516.54 614.24 446.3 631.29 429.57 678.85 371.44 666.42 375.61 616.18 318.48 571.9 270.87 588.47 244.34 535.27 286.21 507.21 285.22 434.93 242.58 408.04 267.63 354.13 315.68 369.38 371.57 323.53 366.01 273.43 423.77 259.4 441.81 306.47 512.5 321.58 548.21 286 595.19 322.42 569.63 365.87 601.89 430.56 651.98 436.29 652.8 495.73 602.89 502.84 572.43 568.39" fill="none" stroke="#2d429b" stroke-linecap="round" stroke-linejoin="round" stroke-width="30"/><path d="M492.2,430.95c-21.02-25.62-58.82-29.35-84.44-8.34-25.62,21.02-29.35,58.82-8.34,84.44,21.02,25.62,58.82,29.35,84.44,8.34,25.62-21.02,29.35-58.82,8.34-84.44Z" fill="#fff200" stroke="#2d429b" stroke-linecap="round" stroke-linejoin="round" stroke-width="30"/></g></svg>