<?xml version="1.0" encoding="UTF-8"?><svg id="b" data-name="Layer 2" xmlns="http://www.w3.org/2000/svg" width="491.61" height="491.6" viewBox="0 0 491.61 491.6">  <g id="c" data-name="Layer 1">    <g>      <path d="m246.44,0c161.5-.07,285.96,160.82,232.67,323-48.59,147.87-222.87,213.86-357.67,135.01C27.19,402.88-19.15,291.23,7.42,185.3,34.65,76.79,134.8.05,246.44,0Z" fill="#ff923b" stroke-width="0"/>      <g>        <path d="m239.11,33.2c99.92-2.59,191.17,67.15,213.62,164.79,20.77,90.33-19.93,185.32-100.34,231.69-99.41,57.32-227.03,25.45-287.35-72.02C2.16,256.05,36.66,120.92,139.99,61.52c28.62-16.45,66.16-27.46,99.12-28.32Z" fill="#fcee21" stroke-width="0"/>        <path d="m213.48,225.59l61.52,54.69c-3.21,3.86-6.86,7.49-9.28,11.96-3.65,26.6-6.57,53.3-10.74,79.83-17.95,7.6-35.73,12.66-54.2,3.42,1.61-19.01,4.05-38.01,6.84-56.88-10.33-5.67-16.18-9.26-22.22-19.78-17.43,6.3-34.49,13.43-52,19.53-13.55-16.34-16.24-31.93-13.67-52.73,10.25-3.74,82.61-32.83,86.67-35.16,3.43-1.97,5.02-4.89,7.08-4.88Z" fill="#f0f" stroke-width="0"/>        <path d="m133.4,318.36c-4.92,1.71-10.05,5.25-15.38,5.86-22.25,2.52-30.11-25.51-25.15-42.72,3.68-12.75,13.34-10.93,26.86-15.87-2.57,20.8.12,36.39,13.67,52.73Z" fill="#93278f" stroke-width="0"/>        <path d="m254.98,372.07c-1.22,7.75-.76,19.85-5.86,26.12-8.21,10.1-33.71,13.51-44.68,5.62-8.41-6.06-4.72-15.89-3.66-28.32,18.47,9.24,36.25,4.18,54.2-3.42Z" fill="#93278f" stroke-width="0"/>        <path d="m318.46,184.08c-7.81,6.07-18.33-1.48-15.62-11.23,5.56,3.04,10.94,6.97,15.62,11.23Z" fill="#412969" stroke-width="0"/>        <path d="m358.99,269.29c1.72,9.57,7.38,32.15-7.08,33.94-17.27,2.13-13.62-23.73-21.24-48.1-.81-2.59-9.21-23.56-10.5-23.68-14.04,17.13-31.02,31.83-45.17,48.83l-61.52-54.69-.49-.73c10.8-12.13,21.79-24.11,32.71-36.13-17.11,3.21-32.7,11.09-47.61,19.78-9.15,5.33-18.42,16.69-27.83,9.28-11.63-9.15.99-19.58,8.3-25.39,34.1-27.1,84.17-41.43,124.27-19.53-2.71,9.75,7.82,17.3,15.62,11.23,22.09,20.11,35.35,56.37,40.53,85.21h0Z" fill="#93278f" stroke-width="0"/>        <path d="m372.66,144.53c-6.44,3.95-10.96,9.63,0,3.91-1.37,30.21-37.38,41.14-55.18,21.48,9.98-3.17,5.04-5.4-1.95-2.44-20.02-28.71,12.06-63.72,42.24-47.36,8.68,4.7,14.37,14.74,14.89,24.41Z" fill="#93278f" stroke-width="0"/>      </g>    </g>  </g></svg>