<?xml version="1.0" encoding="UTF-8"?><svg id="Layer_2" xmlns="http://www.w3.org/2000/svg" viewBox="0 0 804.81 733.05"><g id="Layer_1-2"><circle cx="399.25" cy="378.13" r="255.91" fill="none" stroke="#fff200" stroke-dasharray="20.62 113.38" stroke-miterlimit="10" stroke-width="43.92"/><line x1="399.25" y1="378.13" x2="523.41" y2="502.29" fill="none" stroke="#f6871f" stroke-linecap="round" stroke-linejoin="round" stroke-width="60"/><line x1="399.25" y1="378.13" x2="399.25" y2="258.42" fill="none" stroke="#f6871f" stroke-linecap="round" stroke-linejoin="round" stroke-width="60"/><path d="M67.27,472.92c45.08,142.13,178.08,245.13,335.14,245.13,168.75,0,309.73-118.91,343.72-277.51" fill="none" stroke="#cc4097" stroke-miterlimit="10" stroke-width="30"/><polygon points="0 507.18 50.88 366.53 147.26 480.9 0 507.18" fill="#cc4097"/><rect x="738.55" y="391.75" width="15" height="97.5" transform="translate(158.62 1077.34) rotate(-77.87)" fill="#cc4097"/><path d="M737.54,260.13C692.46,118,559.46,15,402.41,15c-169.74,0-311.37,120.3-344.3,280.29" fill="none" stroke="#cc4097" stroke-miterlimit="10" stroke-width="30"/><polygon points="804.81 225.87 753.93 366.53 657.55 252.15 804.81 225.87" fill="#cc4097"/><rect x="50.68" y="246.58" width="15" height="97.5" transform="translate(-242.81 292.56) rotate(-78.33)" fill="#cc4097"/></g></svg>