<?xml version="1.0" encoding="UTF-8"?><svg id="Layer_2" xmlns="http://www.w3.org/2000/svg" viewBox="0 0 1000 464.4"><defs><style>.cls-1{fill:#cc4097;stroke:#cc4097;stroke-width:100px;}.cls-1,.cls-2,.cls-3,.cls-4{stroke-miterlimit:10;}.cls-5,.cls-2{fill:#f6871f;}.cls-6{fill:#fff200;}.cls-7{fill:#fff;}.cls-2{stroke-dasharray:0 0 20 20;stroke-width:50px;}.cls-2,.cls-3,.cls-4{stroke:#f6871f;}.cls-3{stroke-linecap:square;stroke-width:40px;}.cls-3,.cls-8,.cls-4{fill:none;}.cls-8{stroke:#1bb24b;stroke-linecap:round;stroke-linejoin:round;}.cls-8,.cls-4{stroke-width:35px;}</style></defs><g id="Layer_1-2"><g><line class="cls-2" y1="414.4" x2="1000" y2="414.4"/><line class="cls-1" x1="283" y1="414.4" x2="895.54" y2="414.4"/><polygon class="cls-6" points="283 346.52 221.25 239.57 344.75 239.57 283 346.52"/><polygon class="cls-6" points="895.54 346.52 833.79 239.57 957.29 239.57 895.54 346.52"/></g><g><line class="cls-3" x1="522.73" y1="284.41" x2="675.15" y2="284.41"/><g><polygon class="cls-7" points="433.06 343.9 533.51 284.08 433.06 224.24 433.06 343.9"/><path class="cls-5" d="M427.06,354.46l118.18-70.38-118.18-70.39v140.78Zm94.72-70.38l-82.72,49.27v-98.54l82.72,49.28Z"/></g><polygon class="cls-5" points="657.64 344.24 761.26 284.41 657.64 224.57 657.64 344.24"/></g><g><g><path class="cls-4" d="M629.04,180.32c16.62-17.29,26.84-40.77,26.84-66.65,0-53.12-43.06-96.17-96.17-96.17-40.08,0-74.44,24.52-88.89,59.38"/><polygon class="cls-5" points="664.24 215.7 559.7 209.85 617.03 122.24 664.24 215.7"/><path class="cls-5" d="M432.99,66.94c-4.47,21.34,9.2,42.27,30.54,46.74,21.34,4.47,42.27-9.2,46.74-30.54,4.47-21.34-9.2-42.26-30.54-46.74-21.34-4.47-42.27,9.2-46.74,30.54Z"/></g><polyline class="cls-8" points="469.69 157.45 508.53 196.29 557.85 115.96"/></g></g></svg>