<?xml version="1.0" encoding="UTF-8"?><svg id="b" data-name="Layer 2" xmlns="http://www.w3.org/2000/svg" width="500" height="500" viewBox="0 0 500 500">  <g id="c" data-name="Layer 1">    <g id="d" data-name="ntAckm">      <g>        <path d="m500,485.35c-4.85,12.37-8.28,14.65-22.09,14.65h-163.11v-37.53h145.49v-149h39.71v171.87Z" fill="#93278f" stroke-width="0"/>        <path d="m183.08,0c.14,11.7.38,23.4.24,35.09-.01.96-2.55,2.65-3.97,2.7-7.56.26-15.14.11-22.72.1-36.91-.03-73.82-.06-110.73-.09-1.99,0-3.99,0-6.46,0v148.42H.12c0-1.97,0-3.87,0-5.77,0-53.22.13-106.44-.11-159.66C-.04,10.9,3.16,3.75,12.98,0h170.1Z" fill="#93278f" stroke-width="0"/>        <path d="m500,186.52h-39.31V37.5h-145.98V0h172.13c7.05,2.66,11.46,7.52,13.16,14.65v171.87Z" fill="#93278f" stroke-width="0"/>        <path d="m500,14.65c-1.7-7.13-6.12-11.99-13.16-14.65h13.16v14.65Z" fill="#fff" stroke-width="0"/>        <path d="m342.67,208.89c-9.78,39.42-50.19,72.61-93.07,72.48-48.13.47-95.63-43.64-94.76-94.18.87-50,41.06-86.96,96.36-86.22,50.99.68,94.36,33.29,93.71,90.72-.07,5.81-.84,11.57-2.24,17.2m-92.94,26.89c26.65.04,47.95-20.35,47.94-45.87-.01-25.26-21.27-45.71-47.59-45.79-26.36-.08-47.83,20.27-47.94,45.45-.11,25.61,21.06,46.17,47.59,46.21Z" fill="red" stroke-width="0"/>        <path d="m39.39,313.68v148.77h143.58v37.28c-1.58.09-3.05.25-4.52.25-53.32.01-106.64.02-159.97,0-11.36,0-18.33-6.56-18.34-17.6-.06-55.17-.03-110.34-.02-165.51,0-.95.11-1.9.2-3.2h39.06Z" fill="#93278f" stroke-width="0"/>        <path d="m158.76,368.48v29.47h-23.81v-73.79c.8-.19,1.74-.6,2.67-.59,15.34.14,30.69.09,46.01.61,11.71.39,19.3,6.81,20.62,16.43,1.55,11.34-3.63,19.65-14.75,23.68-.6.22-1.18.49-2.22.91,13.38,7.29,15.76,21.24,23.73,32.9-9.3,0-17.49.13-25.67-.14-1.16-.04-2.59-1.82-3.34-3.1-4.22-7.21-8.22-14.53-12.4-21.76-2.26-3.92-5.63-5.83-10.86-4.63Zm.28-14.39c5.41-.39,10.56-.51,15.62-1.2,4.14-.56,5.74-3.46,5.67-7.38-.08-4.03-2.76-6.05-6.29-6.38-4.92-.46-9.92-.12-15-.12v15.07Z" fill="#f0f" stroke-width="0"/>        <path d="m216.83,323.53c19.88,0,39.41,0,58.94,0,1.32,0,2.63.13,4.23.22v15.68h-39.1v11.87h36.17v15.33h-36.25v14.43h40.27v16.73h-64.26v-74.26Z" fill="#f0f" stroke-width="0"/>        <path d="m364.06,345.64c-7,1.49-13.55,2.89-20.37,4.34-2.9-6.01-6.89-10.45-14.45-10.23-6.43.18-11.43,3.23-13.55,9.08-3.05,8.43-2.76,17.01.14,25.36,1.77,5.1,6.06,7.5,11.68,7.81,6.34.36,11.25-1.7,14.14-7.32,1.04-2.01,1.74-4.19,2.83-6.87,6.73,1.94,13.41,3.86,20.01,5.76-1.39,13.58-12.51,24.03-27.83,25.42-6.62.6-13.54.19-20.08-.99-12.59-2.26-20.24-10.44-24.23-21.78-6.33-17.99-1.32-37.65,11.71-47.13,20.4-14.84,52.95-6.08,60.01,16.55Z" fill="#f0f" stroke-width="0"/>        <path d="m180.33,345.51c.07,3.92-1.53,6.82-5.67,7.38-5.06.69-10.21.81-15.62,1.2v-15.07" fill="#fff" stroke-width="0"/>      </g>    </g>  </g></svg>