<?xml version="1.0" encoding="utf-8"?><!-- Generator: Adobe Illustrator 27.9.0, SVG Export Plug-In . SVG Version: 6.00 Build 0)  --><svg version="1.1" id="Layer_1" xmlns="http://www.w3.org/2000/svg" xmlns:xlink="http://www.w3.org/1999/xlink" x="0px" y="0px"	 viewBox="0 0 309 274.5" style="enable-background:new 0 0 309 274.5;" xml:space="preserve"><style type="text/css">	.st0{fill:none;stroke:#FFF200;stroke-width:15;stroke-miterlimit:10;}	.st1{fill:none;stroke:#FFF200;stroke-width:20;stroke-miterlimit:10;}	.st2{fill:none;stroke:#F6871F;stroke-width:15;stroke-miterlimit:10;}	.st3{fill:none;stroke:#BD10E0;stroke-width:20;stroke-miterlimit:10;}	.st4{fill:none;stroke:#BD10E0;stroke-width:15;stroke-miterlimit:10;}</style><g>	<path class="st0" d="M292.9,217.9"/>	<line class="st1" x1="181.5" y1="144.3" x2="248.6" y2="214.1"/>	<line class="st1" x1="61.3" y1="214.1" x2="130.2" y2="144.3"/>			<rect x="256.6" y="223.1" transform="matrix(0.7071 0.7071 -0.7071 0.7071 248.8511 -122.7292)" class="st2" width="31.9" height="31.9"/>	<path class="st3" d="M143.6,130.6L143.6,130.6c-6.2-6.2-6.2-16.3,0-22.6l0,0c6.2-6.2,16.3-6.2,22.6,0l0,0c6.2,6.2,6.2,16.3,0,22.6		l0,0C159.9,136.9,149.8,136.9,143.6,130.6z"/>			<rect x="20.5" y="223.1" transform="matrix(0.7071 0.7071 -0.7071 0.7071 179.6978 44.2216)" class="st2" width="31.9" height="31.9"/>	<polyline class="st3" points="185.7,119.3 269.9,119.3 269.9,12.3 154.9,12.3 154.9,90.1 	"/>	<path class="st4" d="M194.3,80.7"/>	<path class="st4" d="M163.5,80.7"/>	<path class="st4" d="M163.5,51.5"/></g></svg>