<?xml version="1.0" encoding="UTF-8"?>
<svg id="Layer_2" data-name="Layer 2" xmlns="http://www.w3.org/2000/svg" viewBox="0 0 119.85004 217.63995">
  <g id="Layer_2-2" data-name="Layer 2">
    <g>
      <path d="M34.40002,47.17999v-7.28003c0-1.65997,1.34003-3,3-3h41.5c8.82001,0,8.65997,13.28003,0,13.28003h-41.5c-1.62,0-3-1.32001-3-3Z" fill="#f15a24"/>
      <path d="M78.90002,168.16998h-40.95001c-1.95996,0-3.54999,1.58997-3.54999,3.54999v6.16998c0,1.96002,1.59003,3.56,3.54999,3.56h40.95001c8.65997,0,8.82001-13.27997,0-13.27997ZM81.10004,132.14996c-4.98004-2.73999-8.57001-7.84998-8.59003-15.28998-.01001-6.42999-3.90997-12.38-10.09998-14.15002-9.66003-2.75-18.5,4.41003-18.5,13.70001,0,6-2.66998,10.78003-6.78003,13.78998-1.70001,1.24005-2.63995,3.28003-2.64996,5.38l-.06,6.45001c0,.79999.31,1.57001.87,2.13.57001.57001,1.32996.89001,2.13.89001h41.47998c7.40002,0,9.21002-10.51001,2.20001-12.90002ZM58.21002,123.34998c-3.83002,0-6.94-3.10999-6.94-6.94s3.10999-6.94,6.94-6.94,6.94,3.10999,6.94,6.94-3.10999,6.94-6.94,6.94ZM37.42004,145.04999h41.47998c7.40002,0,9.21002-10.51001,2.20001-12.90002-4.98004-2.73999-8.57001-7.84998-8.59003-15.28998-.01001-6.42999-3.90997-12.38-10.09998-14.15002-9.66003-2.75-18.5,4.41003-18.5,13.70001,0,6-2.66998,10.78003-6.78003,13.78998-1.70001,1.24005-2.63995,3.28003-2.64996,5.38l-.06,6.45001c0,.79999.31,1.57001.87,2.13.57001.57001,1.32996.89001,2.13.89001ZM58.21002,109.46997c3.83002,0,6.94,3.10999,6.94,6.94s-3.10999,6.94-6.94,6.94-6.94-3.10999-6.94-6.94,3.10999-6.94,6.94-6.94ZM78.90002,168.16998h-40.95001c-1.95996,0-3.54999,1.58997-3.54999,3.54999v6.16998c0,1.96002,1.59003,3.56,3.54999,3.56h40.95001c8.65997,0,8.82001-13.27997,0-13.27997ZM78.42999,0H23.56C10.55005,0,0,10.54999,0,23.56v170.51996c0,13.01001,10.55005,23.56,23.56,23.56h54.87c22.88,0,41.42004-18.54999,41.42004-41.41998V41.41998C119.85004,18.53998,101.31,0,78.42999,0ZM13.17999,28.27997c0-8.01001,6.49005-14.5,14.5-14.5h49.32001c24.99005,0,38.52002,28.84003,23.46002,48.06,8.02002,10.17999,8.16998,23.78003,1.69,33.96002-1.35999,2.14996-4.53998,2.10999-5.76001-.12-2.51001-4.60999-5.83997-8.70001-9.78998-12.10004-.85004-.73999-1.21002-1.85999-1.10004-2.97998.48004-3.70001-2.51996-7.34998-6.59998-7.34998h-41.34998c-1.75,0-3.15002,1.41998-3.15002,3.14996v2c0,1.03003-.47998,2.02002-1.33002,2.62-5.67999,4.03003-10.34998,9.38-13.56,15.61005-1.58002,3.07996-6.31,2.08997-6.33002-1.38V28.27997ZM77,204.57001H27.67999c-8.00995,0-14.5-6.5-14.5-14.5v-71.5c0-5.48004,4.44-9.92004,9.92004-9.92004,4.35999-15.33997,18.14996-26.79999,34.67999-27.07996,19.31-.33002,35.33997,14.26996,37.21002,33.13995,13.25995,10.07001,15.60999,28.92999,5.54999,41.91003,14.95996,19.28998,1.34998,47.95001-23.54004,47.95001ZM81.10004,132.14996c-4.98004-2.73999-8.57001-7.84998-8.59003-15.28998-.01001-6.42999-3.90997-12.38-10.09998-14.15002-9.66003-2.75-18.5,4.41003-18.5,13.70001,0,6-2.66998,10.78003-6.78003,13.78998-1.70001,1.24005-2.63995,3.28003-2.64996,5.38l-.06,6.45001c0,.79999.31,1.57001.87,2.13.57001.57001,1.32996.89001,2.13.89001h41.47998c7.40002,0,9.21002-10.51001,2.20001-12.90002ZM58.21002,123.34998c-3.83002,0-6.94-3.10999-6.94-6.94s3.10999-6.94,6.94-6.94,6.94,3.10999,6.94,6.94-3.10999,6.94-6.94,6.94ZM78.90002,168.16998h-40.95001c-1.95996,0-3.54999,1.58997-3.54999,3.54999v6.16998c0,1.96002,1.59003,3.56,3.54999,3.56h40.95001c8.65997,0,8.82001-13.27997,0-13.27997Z" fill="#f15a24"/>
    </g>
  </g>
</svg>