<?xml version="1.0" encoding="UTF-8"?>
<svg id="Layer_2" data-name="Layer 2" xmlns="http://www.w3.org/2000/svg" viewBox="0 0 254.48999 115.85004">
  <g id="Layer_2-2" data-name="Layer 2">
    <g>
      <path d="M34.05393,43.58007v-7.73004c0-1.52997,1.25-2.76996,2.78003-2.76996h41.71997c8.82001,0,8.65997,13.27997,0,13.27997h-41.71997c-1.53003,0-2.78003-1.25-2.78003-2.77997Z" fill="#f15a24"/>
      <path d="M213.79392,46.36004h-41.71997c-1.53003,0-2.78003-1.25-2.78003-2.77997v-7.73004c0-1.52997,1.25-2.76996,2.78003-2.76996h41.44c9.15997,0,8.94,13.27997.27997,13.27997Z" fill="#f15a24"/>
      <path d="M230.94,0H23.56C10.54999,0,0,10.54004,0,23.54999v68.74005c0,13.00995,10.54999,23.56,23.56,23.56h207.38c13.01001,0,23.54999-10.55005,23.54999-23.56V23.54999c0-13.00995-10.53998-23.54999-23.54999-23.54999ZM123.95001,95.08002c-5.66003-.02002-10.22998-4.62-10.20001-10.28003.02002-5.64996,4.62-10.21997,10.27002-10.19995,5.65997.01996,10.22998,4.62,10.20001,10.27997-.02002,5.65002-4.62,10.22003-10.27002,10.20001ZM211.89001,105.88h-49.35999c-11.60004,0-20.97003-9.41998-20.97003-20.96997,0-23.19-35.07001-23.30005-35.14996-.04004-.04004,11.59003-9.37006,21.01001-20.97003,21.01001H26.94c-7.78998,0-14.10999-6.32001-14.10999-14.10999V24.06c0-7.78998,6.32001-14.09998,14.10999-14.09998h49.71002c14.13995,0,25.97998,9.85999,29.01001,23.07001.5,2.19-.66003,4.45996-2.72003,5.34998-12.95001,5.59998-22.65002,15.73999-27.90002,27.87-.83997,1.94-2.72998,3.22998-4.84998,3.22998h-33.35999c-1.53003,0-2.78003,1.24005-2.78003,2.77002v7.72998c0,1.53003,1.25,2.78003,2.78003,2.78003,7.52002-.01001,28.33002-.01001,37.57001-.02002,2.51001,0,4.65997-1.77997,5.14996-4.23999,4.13-20.79999,22.46002-36.44,44.42999-36.44h.01001c22.03003,0,40.33002,15.73004,44.44,36.45001.48999,2.46002,2.64001,4.25,5.16003,4.25h40.19995c8.81006,0,8.83002-13.28003-.27997-13.28003h-35.72003c-2.12994,0-4.01996-1.29999-4.85999-3.25-4.72998-10.92999-12.76001-19.60999-22.45996-25.13995-1.48004-.84003-2.40002-2.42004-2.40002-4.13v-12.90002c0-7.78998,6.32001-14.09998,14.10999-14.09998h49.07001c24.60999,0,39.56,28.12,24.17999,47.95996,14.95001,19.27002,1.38,47.96002-23.53998,47.96002Z" fill="#f15a24"/>
    </g>
  </g>
</svg>